M48
; DRILL file {KiCad (6.0.10)} date Fri Jan  6 17:42:43 2023
; FORMAT={-:-/ absolute / inch / decimal}
; #@! TF.CreationDate,2023-01-06T17:42:43-07:00
; #@! TF.GenerationSoftware,Kicad,Pcbnew,(6.0.10)
; #@! TF.FileFunction,Plated,1,4,PTH
FMAT,2
INCH
; #@! TA.AperFunction,Plated,PTH,ViaDrill
T1C0.0118
; #@! TA.AperFunction,Plated,PTH,ViaDrill
T2C0.0150
; #@! TA.AperFunction,Plated,PTH,ComponentDrill
T3C0.0197
; #@! TA.AperFunction,Plated,PTH,ViaDrill
T4C0.0200
; #@! TA.AperFunction,Plated,PTH,ComponentDrill
T5C0.0217
; #@! TA.AperFunction,Plated,PTH,ComponentDrill
T6C0.0290
; #@! TA.AperFunction,Plated,PTH,ComponentDrill
T7C0.0315
; #@! TA.AperFunction,Plated,PTH,ComponentDrill
T8C0.0354
; #@! TA.AperFunction,Plated,PTH,ComponentDrill
T9C0.0433
; #@! TA.AperFunction,Plated,PTH,ComponentDrill
T10C0.0470
; #@! TA.AperFunction,Plated,PTH,ComponentDrill
T11C0.0669
%
G90
G05
T1
X3.7915Y-3.1365
X3.7915Y-3.6815
X4.1834Y-3.4316
X4.2182Y-3.1718
X4.4166Y-3.4316
X4.4218Y-3.5182
X4.48Y-2.945
X4.525Y-2.79
X4.5675Y-2.9775
X4.635Y-2.88
X4.655Y-3.13
X4.67Y-3.88
X4.68Y-3.11
X4.685Y-3.045
X4.7Y-2.93
X4.722Y-3.248
X4.743Y-2.932
X4.744Y-3.026
X4.765Y-3.89
X4.775Y-3.05
X4.795Y-2.92
X4.855Y-2.77
X4.885Y-2.805
X4.895Y-3.245
X4.9005Y-3.1545
X4.95Y-3.2
X4.97Y-3.495
X4.9924Y-2.8824
X4.995Y-2.845
X4.995Y-2.985
X4.995Y-3.46
X5.0095Y-3.1545
X5.01Y-3.12
X5.0225Y-3.2575
X5.04Y-3.36
X5.0939Y-2.8811
X5.0995Y-3.1755
X5.1Y-3.615
X5.13Y-3.165
X5.159Y-3.121
X5.1925Y-3.2275
X5.2489Y-2.8811
X5.255Y-2.815
X5.255Y-3.38
X5.255Y-3.535
X5.2631Y-3.8469
X5.2657Y-2.7743
X5.275Y-3.32
X5.295Y-3.37
X5.302Y-3.592
X5.325Y-3.355
X5.325Y-3.625
X5.33Y-3.26
X5.35Y-3.405
X5.38Y-3.01
X5.385Y-3.36
X5.39Y-2.755
X5.391Y-2.794
X5.3925Y-3.2975
X5.398Y-2.978
X5.4Y-3.33
X5.41Y-2.885
X5.4125Y-3.2375
X5.44Y-2.86
X5.4815Y-3.1845
X5.4849Y-2.9649
X5.4882Y-3.2208
X5.49Y-2.875
X5.49Y-3.26
X5.49Y-3.73
X5.5Y-3.33
X5.505Y-3.395
X5.528Y-3.368
X5.5825Y-3.5175
X5.59Y-2.765
X5.595Y-2.725
X5.6033Y-3.1617
X5.6079Y-3.0239
X5.61Y-3.23
X5.62Y-3.06
X5.625Y-3.275
X5.6395Y-2.7255
X5.64Y-2.83
X5.645Y-2.87
X5.66Y-3.33
X5.68Y-2.895
X5.705Y-3.295
X5.72Y-3.5
X5.73Y-3.54
X5.74Y-2.955
X5.755Y-2.67
X5.828Y-3.48
X5.83Y-3.29
X5.85Y-2.88
X5.855Y-3.499
X5.8954Y-3.4896
X5.9Y-2.91
X5.9285Y-3.5025
X5.93Y-3.575
X5.9315Y-2.5515
X5.951Y-2.718
X5.9544Y-2.8346
X5.97Y-3.495
X5.986Y-3.449
X6.0Y-3.925
X6.005Y-2.834
X6.012Y-3.474
X6.03Y-3.5
X6.037Y-2.853
X6.075Y-2.8301
X6.08Y-3.205
X6.08Y-3.93
X6.1146Y-3.3854
X6.135Y-3.36
X6.185Y-2.81
X6.2315Y-2.9245
X6.24Y-3.19
X6.24Y-3.23
X6.2419Y-3.2799
X6.272Y-3.232
X6.28Y-3.273
X6.317Y-3.321
X6.33Y-3.35
X6.34Y-2.785
X6.355Y-3.65
X6.361Y-3.333
X6.443Y-3.407
X6.46Y-2.98
X6.475Y-3.47
X6.505Y-3.555
X6.525Y-2.725
X6.572Y-3.082
X6.615Y-3.0
X6.642Y-3.059
X6.655Y-3.001
X6.67Y-3.485
X6.68Y-3.14
X6.69Y-3.585
X6.74Y-2.72
X6.74Y-3.97
X6.755Y-2.935
X6.79Y-2.67
X6.7947Y-2.8003
X6.7947Y-2.8647
X6.8039Y-2.7311
X6.845Y-3.24
X6.85Y-2.87
X6.89Y-3.425
X6.895Y-3.29
X6.895Y-3.34
X6.895Y-3.38
X6.895Y-3.51
X6.91Y-3.78
X6.94Y-2.985
X6.945Y-2.81
T2
X4.75Y-3.375
X6.25Y-2.44
X6.2625Y-2.5375
X6.28Y-3.545
X6.38Y-3.455
X6.5825Y-2.4775
X7.0461Y-2.9161
T4
X6.545Y-2.635
X7.045Y-3.06
X7.08Y-3.695
T6
X5.33Y-2.5554
X5.33Y-2.6054
X5.38Y-2.5554
X5.38Y-2.6054
X5.43Y-2.5554
X5.43Y-2.6054
X5.48Y-2.5554
X5.48Y-2.6054
X5.53Y-2.5554
X5.53Y-2.6054
X5.58Y-2.5554
X5.58Y-2.6054
X5.63Y-2.5554
X5.63Y-2.6054
X5.68Y-2.5554
X5.68Y-2.6054
X5.73Y-2.5554
X5.73Y-2.6054
X5.78Y-2.5554
X5.78Y-2.6054
T7
X5.357Y-3.885
X5.436Y-3.885
X5.515Y-3.885
X5.701Y-3.884
X5.78Y-3.884
X5.859Y-3.884
X6.041Y-3.884
X6.12Y-3.884
X6.199Y-3.884
X6.381Y-3.885
X6.46Y-3.885
X6.539Y-3.885
T8
X6.3434Y-3.22
X6.6426Y-3.22
T9
X3.88Y-2.6561
X3.88Y-2.7939
T10
X4.3215Y-2.5364
X4.4593Y-2.5364
X4.5971Y-2.5364
X4.7349Y-2.5364
X4.8727Y-2.5364
X5.0105Y-2.5364
T11
X6.8421Y-2.3857
X6.8421Y-2.5416
T3
G00X7.2562Y-2.6935
M15
G01X7.2818Y-2.6935
M16
G05
G00X7.2562Y-2.9691
M15
G01X7.2818Y-2.9691
M16
G05
T5
G00X7.1627Y-2.7387
M15
G01X7.1627Y-2.7269
M16
G05
G00X7.1627Y-2.9356
M15
G01X7.1627Y-2.9238
M16
G05
T0
M30
