%TF.GenerationSoftware,KiCad,Pcbnew,(6.0.9)*%
%TF.CreationDate,2022-12-16T16:08:48-07:00*%
%TF.ProjectId,Flight-Computer,466c6967-6874-42d4-936f-6d7075746572,1.0*%
%TF.SameCoordinates,Original*%
%TF.FileFunction,Soldermask,Bot*%
%TF.FilePolarity,Negative*%
%FSLAX46Y46*%
G04 Gerber Fmt 4.6, Leading zero omitted, Abs format (unit mm)*
G04 Created by KiCad (PCBNEW (6.0.9)) date 2022-12-16 16:08:48*
%MOMM*%
%LPD*%
G01*
G04 APERTURE LIST*
%ADD10R,2.050000X2.050000*%
%ADD11C,2.050000*%
%ADD12C,1.701800*%
%ADD13R,5.080000X2.413000*%
%ADD14C,1.066800*%
%ADD15R,1.150000X1.150000*%
%ADD16C,1.150000*%
%ADD17C,1.408000*%
%ADD18C,3.000000*%
%ADD19O,0.650000X1.300000*%
%ADD20O,1.550000X0.775000*%
%ADD21C,0.950000*%
%ADD22C,1.650000*%
%ADD23R,1.650000X1.650000*%
%ADD24C,1.524000*%
G04 APERTURE END LIST*
D10*
%TO.C,P1*%
X173790500Y-64557500D03*
D11*
X173790500Y-60597500D03*
%TD*%
D12*
%TO.C,P9*%
X127267252Y-64425101D03*
X123767249Y-64425101D03*
X120267248Y-64425101D03*
X116767247Y-64425101D03*
X113267247Y-64425101D03*
X109767246Y-64425101D03*
%TD*%
D13*
%TO.C,AE2*%
X96304100Y-82232500D03*
X96304100Y-91008200D03*
%TD*%
D14*
%TO.C,P3*%
X135382000Y-66178050D03*
X135382000Y-64908050D03*
X136652000Y-66178050D03*
X136652000Y-64908050D03*
X137922000Y-66178050D03*
X137922000Y-64908050D03*
X139192000Y-66178050D03*
X139192000Y-64908050D03*
X140462000Y-66178050D03*
X140462000Y-64908050D03*
X141732000Y-66178050D03*
X141732000Y-64908050D03*
X143002000Y-66178050D03*
X143002000Y-64908050D03*
X144272000Y-66178050D03*
X144272000Y-64908050D03*
X145542000Y-66178050D03*
X145542000Y-64908050D03*
X146812000Y-66178050D03*
X146812000Y-64908050D03*
%TD*%
D15*
%TO.C,P7*%
X140081000Y-98679000D03*
D16*
X138074000Y-98679000D03*
X136068000Y-98679000D03*
%TD*%
D17*
%TO.C,BZ1*%
X161122200Y-81788000D03*
X168722200Y-81788000D03*
%TD*%
D18*
%TO.C,H3*%
X183261000Y-98171000D03*
%TD*%
%TO.C,H2*%
X96393000Y-98171000D03*
%TD*%
D19*
%TO.C,P8*%
X181932600Y-74414000D03*
X181932600Y-69414000D03*
D20*
X184632600Y-68414000D03*
X184632600Y-75414000D03*
%TD*%
D21*
%TO.C,P10*%
X185166000Y-82833000D03*
X185166000Y-89633000D03*
%TD*%
D15*
%TO.C,P5*%
X157454500Y-98654800D03*
D16*
X155447500Y-98654800D03*
X153441500Y-98654800D03*
%TD*%
D15*
%TO.C,P4*%
X166090500Y-98679000D03*
D16*
X164083500Y-98679000D03*
X162077500Y-98679000D03*
%TD*%
D22*
%TO.C,P2*%
X98552000Y-70965000D03*
D23*
X98552000Y-67465000D03*
%TD*%
D18*
%TO.C,H1*%
X96520000Y-61341000D03*
%TD*%
D15*
%TO.C,P6*%
X148818500Y-98654800D03*
D16*
X146811500Y-98654800D03*
X144805500Y-98654800D03*
%TD*%
D24*
%TO.C,TP1*%
X156210000Y-69088000D03*
%TD*%
M02*
