M48
; DRILL file {KiCad (6.0.7)} date Fri Sep 16 08:47:38 2022
; FORMAT={-:-/ absolute / inch / decimal}
; #@! TF.CreationDate,2022-09-16T08:47:38-07:00
; #@! TF.GenerationSoftware,Kicad,Pcbnew,(6.0.7)
; #@! TF.FileFunction,Plated,1,4,PTH
FMAT,2
INCH
; #@! TA.AperFunction,Plated,PTH,ViaDrill
T1C0.0118
; #@! TA.AperFunction,Plated,PTH,ViaDrill
T2C0.0150
; #@! TA.AperFunction,Plated,PTH,ComponentDrill
T3C0.0197
; #@! TA.AperFunction,Plated,PTH,ViaDrill
T4C0.0200
; #@! TA.AperFunction,Plated,PTH,ComponentDrill
T5C0.0217
; #@! TA.AperFunction,Plated,PTH,ComponentDrill
T6C0.0290
; #@! TA.AperFunction,Plated,PTH,ViaDrill
T7C0.0300
; #@! TA.AperFunction,Plated,PTH,ComponentDrill
T8C0.0315
; #@! TA.AperFunction,Plated,PTH,ComponentDrill
T9C0.0354
; #@! TA.AperFunction,Plated,PTH,ComponentDrill
T10C0.0433
; #@! TA.AperFunction,Plated,PTH,ComponentDrill
T11C0.0669
%
G90
G05
T1
X4.3Y-2.83
X4.31Y-2.66
X4.3178Y-3.3466
X4.4326Y-2.8874
X4.45Y-3.0
X4.5Y-2.93
X4.51Y-2.76
X4.6209Y-3.2288
X4.63Y-3.01
X4.64Y-3.05
X4.65Y-2.85
X4.67Y-3.88
X4.68Y-2.69
X4.68Y-3.08
X4.71Y-3.13
X4.7302Y-2.7797
X4.7311Y-3.0189
X4.74Y-3.11
X4.78Y-2.93
X4.79Y-2.88
X4.8983Y-3.2817
X4.91Y-3.03
X4.91Y-3.23
X4.93Y-3.36
X4.9974Y-2.8426
X5.01Y-3.38
X5.055Y-3.093
X5.06Y-3.02
X5.06Y-3.06
X5.07Y-2.89
X5.07Y-3.22
X5.159Y-3.121
X5.17Y-3.33
X5.19Y-2.78
X5.208Y-2.882
X5.27Y-3.31
X5.32Y-3.33
X5.3243Y-2.8087
X5.3337Y-2.7693
X5.3715Y-3.2285
X5.38Y-3.01
X5.38Y-3.58
X5.39Y-2.9
X5.398Y-2.978
X5.4Y-3.31
X5.415Y-2.865
X5.45Y-3.33
X5.46Y-3.62
X5.47Y-2.95
X5.48Y-3.28
X5.4815Y-3.1845
X5.4882Y-3.2208
X5.49Y-2.875
X5.49Y-3.683
X5.491Y-3.368
X5.5Y-3.49
X5.51Y-3.26
X5.518Y-2.57
X5.52Y-3.389
X5.53Y-3.66
X5.53Y-3.71
X5.542Y-3.625
X5.594Y-2.55
X5.6079Y-3.0239
X5.62Y-3.06
X5.6305Y-2.6285
X5.64Y-2.83
X5.66Y-3.33
X5.687Y-2.873
X5.72Y-3.5
X5.73Y-3.54
X5.7875Y-2.6295
X5.817Y-2.611
X5.828Y-3.48
X5.85Y-2.88
X5.855Y-3.499
X5.8954Y-3.4896
X5.9Y-2.91
X5.917Y-3.607
X5.9285Y-3.5025
X5.9544Y-2.8346
X5.983Y-3.732
X5.986Y-3.449
X6.003Y-3.64
X6.005Y-2.834
X6.012Y-3.474
X6.027Y-3.612
X6.027Y-3.7
X6.037Y-2.853
X6.075Y-2.8301
X6.1375Y-3.3865
X6.185Y-2.791
X6.2315Y-2.9245
X6.24Y-3.19
X6.24Y-3.23
X6.2419Y-3.2799
X6.253Y-3.354
X6.272Y-3.232
X6.28Y-3.273
X6.3045Y-2.8005
X6.317Y-3.321
X6.33Y-3.35
X6.361Y-3.333
X6.443Y-3.407
X6.444Y-2.902
X6.5369Y-2.5579
X6.572Y-3.082
X6.629Y-2.963
X6.642Y-3.059
X6.655Y-3.001
X6.6777Y-3.9323
X6.679Y-3.699
X6.6819Y-2.5661
X6.701Y-3.617
X6.739Y-2.91
X6.74Y-3.143
X6.7577Y-3.4557
X6.759Y-3.369
X6.764Y-3.17
X6.79Y-2.809
X6.8Y-3.182
X6.8376Y-2.7726
X6.845Y-3.195
X6.848Y-2.81
X6.9035Y-3.7435
T2
X3.78Y-3.35
X3.8275Y-3.6225
X4.013Y-2.997
X4.0934Y-3.3466
X4.3232Y-3.4332
X4.64Y-3.375
X4.729Y-3.889
X5.1984Y-3.6116
X5.2021Y-3.8479
X6.1572Y-3.5467
X6.378Y-3.541
T4
X6.243Y-2.444
X6.254Y-2.352
X6.744Y-2.69
X6.996Y-2.889
X7.0791Y-3.6399
T6
X5.318Y-2.4624
X5.318Y-2.5124
X5.368Y-2.4624
X5.368Y-2.5124
X5.418Y-2.4624
X5.418Y-2.5124
X5.468Y-2.4624
X5.468Y-2.5124
X5.518Y-2.4624
X5.518Y-2.5124
X5.568Y-2.4624
X5.568Y-2.5124
X5.618Y-2.4624
X5.618Y-2.5124
X5.668Y-2.4624
X5.668Y-2.5124
X5.718Y-2.4624
X5.718Y-2.5124
X5.768Y-2.4624
X5.768Y-2.5124
T7
X6.5825Y-2.3815
T8
X5.302Y-3.89
X5.381Y-3.89
X5.46Y-3.89
X5.642Y-3.89
X5.721Y-3.89
X5.8Y-3.89
X5.982Y-3.89
X6.061Y-3.89
X6.14Y-3.89
X6.322Y-3.89
X6.401Y-3.89
X6.48Y-3.89
T9
X6.3434Y-3.22
X6.6426Y-3.22
T10
X3.73Y-2.69
X3.73Y-2.89
X3.98Y-2.4
X4.18Y-2.4
X4.38Y-2.4
X4.58Y-2.4
X4.78Y-2.4
X4.98Y-2.4
T11
X6.8371Y-2.3047
X6.8371Y-2.4606
T3
G00X7.2462Y-2.6222
M15
G01X7.2718Y-2.6222
M16
G05
G00X7.2462Y-2.8978
M15
G01X7.2718Y-2.8978
M16
G05
T5
G00X7.1527Y-2.6675
M15
G01X7.1527Y-2.6557
M16
G05
G00X7.1527Y-2.8643
M15
G01X7.1527Y-2.8525
M16
G05
T0
M30
