%TF.GenerationSoftware,KiCad,Pcbnew,(6.0.9)*%
%TF.CreationDate,2022-12-16T16:13:02-07:00*%
%TF.ProjectId,Flight-Computer,466c6967-6874-42d4-936f-6d7075746572,1.0*%
%TF.SameCoordinates,Original*%
%TF.FileFunction,Legend,Bot*%
%TF.FilePolarity,Positive*%
%FSLAX46Y46*%
G04 Gerber Fmt 4.6, Leading zero omitted, Abs format (unit mm)*
G04 Created by KiCad (PCBNEW (6.0.9)) date 2022-12-16 16:13:02*
%MOMM*%
%LPD*%
G01*
G04 APERTURE LIST*
%ADD10C,0.150000*%
%ADD11C,0.120000*%
G04 APERTURE END LIST*
D10*
X130894666Y-100189453D02*
X130410857Y-100189453D01*
X130991428Y-100479739D02*
X130652761Y-99463739D01*
X130314095Y-100479739D01*
X129781904Y-99463739D02*
X129685142Y-99463739D01*
X129588380Y-99512120D01*
X129540000Y-99560500D01*
X129491619Y-99657262D01*
X129443238Y-99850786D01*
X129443238Y-100092691D01*
X129491619Y-100286215D01*
X129540000Y-100382977D01*
X129588380Y-100431358D01*
X129685142Y-100479739D01*
X129781904Y-100479739D01*
X129878666Y-100431358D01*
X129927047Y-100382977D01*
X129975428Y-100286215D01*
X130023809Y-100092691D01*
X130023809Y-99850786D01*
X129975428Y-99657262D01*
X129927047Y-99560500D01*
X129878666Y-99512120D01*
X129781904Y-99463739D01*
X128814285Y-99463739D02*
X128717523Y-99463739D01*
X128620761Y-99512120D01*
X128572380Y-99560500D01*
X128524000Y-99657262D01*
X128475619Y-99850786D01*
X128475619Y-100092691D01*
X128524000Y-100286215D01*
X128572380Y-100382977D01*
X128620761Y-100431358D01*
X128717523Y-100479739D01*
X128814285Y-100479739D01*
X128911047Y-100431358D01*
X128959428Y-100382977D01*
X129007809Y-100286215D01*
X129056190Y-100092691D01*
X129056190Y-99850786D01*
X129007809Y-99657262D01*
X128959428Y-99560500D01*
X128911047Y-99512120D01*
X128814285Y-99463739D01*
X127846666Y-99463739D02*
X127749904Y-99463739D01*
X127653142Y-99512120D01*
X127604761Y-99560500D01*
X127556380Y-99657262D01*
X127508000Y-99850786D01*
X127508000Y-100092691D01*
X127556380Y-100286215D01*
X127604761Y-100382977D01*
X127653142Y-100431358D01*
X127749904Y-100479739D01*
X127846666Y-100479739D01*
X127943428Y-100431358D01*
X127991809Y-100382977D01*
X128040190Y-100286215D01*
X128088571Y-100092691D01*
X128088571Y-99850786D01*
X128040190Y-99657262D01*
X127991809Y-99560500D01*
X127943428Y-99512120D01*
X127846666Y-99463739D01*
X127120952Y-99560500D02*
X127072571Y-99512120D01*
X126975809Y-99463739D01*
X126733904Y-99463739D01*
X126637142Y-99512120D01*
X126588761Y-99560500D01*
X126540380Y-99657262D01*
X126540380Y-99754024D01*
X126588761Y-99899167D01*
X127169333Y-100479739D01*
X126540380Y-100479739D01*
X124992190Y-99947548D02*
X125330857Y-99947548D01*
X125330857Y-100479739D02*
X125330857Y-99463739D01*
X124847047Y-99463739D01*
X124314857Y-100479739D02*
X124411619Y-100431358D01*
X124460000Y-100334596D01*
X124460000Y-99463739D01*
X123927809Y-100479739D02*
X123927809Y-99802405D01*
X123927809Y-99463739D02*
X123976190Y-99512120D01*
X123927809Y-99560500D01*
X123879428Y-99512120D01*
X123927809Y-99463739D01*
X123927809Y-99560500D01*
X123008571Y-99802405D02*
X123008571Y-100624881D01*
X123056952Y-100721643D01*
X123105333Y-100770024D01*
X123202095Y-100818405D01*
X123347238Y-100818405D01*
X123444000Y-100770024D01*
X123008571Y-100431358D02*
X123105333Y-100479739D01*
X123298857Y-100479739D01*
X123395619Y-100431358D01*
X123444000Y-100382977D01*
X123492380Y-100286215D01*
X123492380Y-99995929D01*
X123444000Y-99899167D01*
X123395619Y-99850786D01*
X123298857Y-99802405D01*
X123105333Y-99802405D01*
X123008571Y-99850786D01*
X122524761Y-100479739D02*
X122524761Y-99463739D01*
X122089333Y-100479739D02*
X122089333Y-99947548D01*
X122137714Y-99850786D01*
X122234476Y-99802405D01*
X122379619Y-99802405D01*
X122476380Y-99850786D01*
X122524761Y-99899167D01*
X121750666Y-99802405D02*
X121363619Y-99802405D01*
X121605523Y-99463739D02*
X121605523Y-100334596D01*
X121557142Y-100431358D01*
X121460380Y-100479739D01*
X121363619Y-100479739D01*
X119670285Y-100382977D02*
X119718666Y-100431358D01*
X119863809Y-100479739D01*
X119960571Y-100479739D01*
X120105714Y-100431358D01*
X120202476Y-100334596D01*
X120250857Y-100237834D01*
X120299238Y-100044310D01*
X120299238Y-99899167D01*
X120250857Y-99705643D01*
X120202476Y-99608881D01*
X120105714Y-99512120D01*
X119960571Y-99463739D01*
X119863809Y-99463739D01*
X119718666Y-99512120D01*
X119670285Y-99560500D01*
X119089714Y-100479739D02*
X119186476Y-100431358D01*
X119234857Y-100382977D01*
X119283238Y-100286215D01*
X119283238Y-99995929D01*
X119234857Y-99899167D01*
X119186476Y-99850786D01*
X119089714Y-99802405D01*
X118944571Y-99802405D01*
X118847809Y-99850786D01*
X118799428Y-99899167D01*
X118751047Y-99995929D01*
X118751047Y-100286215D01*
X118799428Y-100382977D01*
X118847809Y-100431358D01*
X118944571Y-100479739D01*
X119089714Y-100479739D01*
X118315619Y-100479739D02*
X118315619Y-99802405D01*
X118315619Y-99899167D02*
X118267238Y-99850786D01*
X118170476Y-99802405D01*
X118025333Y-99802405D01*
X117928571Y-99850786D01*
X117880190Y-99947548D01*
X117880190Y-100479739D01*
X117880190Y-99947548D02*
X117831809Y-99850786D01*
X117735047Y-99802405D01*
X117589904Y-99802405D01*
X117493142Y-99850786D01*
X117444761Y-99947548D01*
X117444761Y-100479739D01*
X116960952Y-99802405D02*
X116960952Y-100818405D01*
X116960952Y-99850786D02*
X116864190Y-99802405D01*
X116670666Y-99802405D01*
X116573904Y-99850786D01*
X116525523Y-99899167D01*
X116477142Y-99995929D01*
X116477142Y-100286215D01*
X116525523Y-100382977D01*
X116573904Y-100431358D01*
X116670666Y-100479739D01*
X116864190Y-100479739D01*
X116960952Y-100431358D01*
X115606285Y-99802405D02*
X115606285Y-100479739D01*
X116041714Y-99802405D02*
X116041714Y-100334596D01*
X115993333Y-100431358D01*
X115896571Y-100479739D01*
X115751428Y-100479739D01*
X115654666Y-100431358D01*
X115606285Y-100382977D01*
X115267619Y-99802405D02*
X114880571Y-99802405D01*
X115122476Y-99463739D02*
X115122476Y-100334596D01*
X115074095Y-100431358D01*
X114977333Y-100479739D01*
X114880571Y-100479739D01*
X114154857Y-100431358D02*
X114251619Y-100479739D01*
X114445142Y-100479739D01*
X114541904Y-100431358D01*
X114590285Y-100334596D01*
X114590285Y-99947548D01*
X114541904Y-99850786D01*
X114445142Y-99802405D01*
X114251619Y-99802405D01*
X114154857Y-99850786D01*
X114106476Y-99947548D01*
X114106476Y-100044310D01*
X114590285Y-100141072D01*
X113671047Y-100479739D02*
X113671047Y-99802405D01*
X113671047Y-99995929D02*
X113622666Y-99899167D01*
X113574285Y-99850786D01*
X113477523Y-99802405D01*
X113380761Y-99802405D01*
X111687428Y-100479739D02*
X112026095Y-99995929D01*
X112268000Y-100479739D02*
X112268000Y-99463739D01*
X111880952Y-99463739D01*
X111784190Y-99512120D01*
X111735809Y-99560500D01*
X111687428Y-99657262D01*
X111687428Y-99802405D01*
X111735809Y-99899167D01*
X111784190Y-99947548D01*
X111880952Y-99995929D01*
X112268000Y-99995929D01*
X110864952Y-100431358D02*
X110961714Y-100479739D01*
X111155238Y-100479739D01*
X111252000Y-100431358D01*
X111300380Y-100334596D01*
X111300380Y-99947548D01*
X111252000Y-99850786D01*
X111155238Y-99802405D01*
X110961714Y-99802405D01*
X110864952Y-99850786D01*
X110816571Y-99947548D01*
X110816571Y-100044310D01*
X111300380Y-100141072D01*
X110477904Y-99802405D02*
X110236000Y-100479739D01*
X109994095Y-99802405D01*
X108881333Y-99560500D02*
X108832952Y-99512120D01*
X108736190Y-99463739D01*
X108494285Y-99463739D01*
X108397523Y-99512120D01*
X108349142Y-99560500D01*
X108300761Y-99657262D01*
X108300761Y-99754024D01*
X108349142Y-99899167D01*
X108929714Y-100479739D01*
X108300761Y-100479739D01*
X107865333Y-100382977D02*
X107816952Y-100431358D01*
X107865333Y-100479739D01*
X107913714Y-100431358D01*
X107865333Y-100382977D01*
X107865333Y-100479739D01*
X107188000Y-99463739D02*
X107091238Y-99463739D01*
X106994476Y-99512120D01*
X106946095Y-99560500D01*
X106897714Y-99657262D01*
X106849333Y-99850786D01*
X106849333Y-100092691D01*
X106897714Y-100286215D01*
X106946095Y-100382977D01*
X106994476Y-100431358D01*
X107091238Y-100479739D01*
X107188000Y-100479739D01*
X107284761Y-100431358D01*
X107333142Y-100382977D01*
X107381523Y-100286215D01*
X107429904Y-100092691D01*
X107429904Y-99850786D01*
X107381523Y-99657262D01*
X107333142Y-99560500D01*
X107284761Y-99512120D01*
X107188000Y-99463739D01*
X94917380Y-71561476D02*
X95933380Y-71561476D01*
X95933380Y-71174428D01*
X95885000Y-71077666D01*
X95836619Y-71029285D01*
X95739857Y-70980904D01*
X95594714Y-70980904D01*
X95497952Y-71029285D01*
X95449571Y-71077666D01*
X95401190Y-71174428D01*
X95401190Y-71561476D01*
X95933380Y-70351952D02*
X95933380Y-70158428D01*
X95885000Y-70061666D01*
X95788238Y-69964904D01*
X95594714Y-69916523D01*
X95256047Y-69916523D01*
X95062523Y-69964904D01*
X94965761Y-70061666D01*
X94917380Y-70158428D01*
X94917380Y-70351952D01*
X94965761Y-70448714D01*
X95062523Y-70545476D01*
X95256047Y-70593857D01*
X95594714Y-70593857D01*
X95788238Y-70545476D01*
X95885000Y-70448714D01*
X95933380Y-70351952D01*
X95933380Y-69577857D02*
X94917380Y-69335952D01*
X95643095Y-69142428D01*
X94917380Y-68948904D01*
X95933380Y-68707000D01*
X95449571Y-68319952D02*
X95449571Y-67981285D01*
X94917380Y-67836142D02*
X94917380Y-68319952D01*
X95933380Y-68319952D01*
X95933380Y-67836142D01*
X94917380Y-66820142D02*
X95401190Y-67158809D01*
X94917380Y-67400714D02*
X95933380Y-67400714D01*
X95933380Y-67013666D01*
X95885000Y-66916904D01*
X95836619Y-66868523D01*
X95739857Y-66820142D01*
X95594714Y-66820142D01*
X95497952Y-66868523D01*
X95449571Y-66916904D01*
X95401190Y-67013666D01*
X95401190Y-67400714D01*
%TO.C,TP1*%
X157471904Y-66559180D02*
X156900476Y-66559180D01*
X157186190Y-67559180D02*
X157186190Y-66559180D01*
X156567142Y-67559180D02*
X156567142Y-66559180D01*
X156186190Y-66559180D01*
X156090952Y-66606800D01*
X156043333Y-66654419D01*
X155995714Y-66749657D01*
X155995714Y-66892514D01*
X156043333Y-66987752D01*
X156090952Y-67035371D01*
X156186190Y-67082990D01*
X156567142Y-67082990D01*
X155043333Y-67559180D02*
X155614761Y-67559180D01*
X155329047Y-67559180D02*
X155329047Y-66559180D01*
X155424285Y-66702038D01*
X155519523Y-66797276D01*
X155614761Y-66844895D01*
D11*
%TO.C,P9*%
X130558252Y-64395101D02*
G75*
G03*
X130558252Y-64395101I-381000J0D01*
G01*
%TD*%
M02*
