%TF.GenerationSoftware,KiCad,Pcbnew,(6.0.7)*%
%TF.CreationDate,2022-09-16T08:47:35-07:00*%
%TF.ProjectId,Flight-Computer,466c6967-6874-42d4-936f-6d7075746572,1.0*%
%TF.SameCoordinates,Original*%
%TF.FileFunction,Copper,L1,Top*%
%TF.FilePolarity,Positive*%
%FSLAX46Y46*%
G04 Gerber Fmt 4.6, Leading zero omitted, Abs format (unit mm)*
G04 Created by KiCad (PCBNEW (6.0.7)) date 2022-09-16 08:47:35*
%MOMM*%
%LPD*%
G01*
G04 APERTURE LIST*
G04 Aperture macros list*
%AMRoundRect*
0 Rectangle with rounded corners*
0 $1 Rounding radius*
0 $2 $3 $4 $5 $6 $7 $8 $9 X,Y pos of 4 corners*
0 Add a 4 corners polygon primitive as box body*
4,1,4,$2,$3,$4,$5,$6,$7,$8,$9,$2,$3,0*
0 Add four circle primitives for the rounded corners*
1,1,$1+$1,$2,$3*
1,1,$1+$1,$4,$5*
1,1,$1+$1,$6,$7*
1,1,$1+$1,$8,$9*
0 Add four rect primitives between the rounded corners*
20,1,$1+$1,$2,$3,$4,$5,0*
20,1,$1+$1,$4,$5,$6,$7,0*
20,1,$1+$1,$6,$7,$8,$9,0*
20,1,$1+$1,$8,$9,$2,$3,0*%
G04 Aperture macros list end*
%TA.AperFunction,EtchedComponent*%
%ADD10C,0.001000*%
%TD*%
%TA.AperFunction,SMDPad,CuDef*%
%ADD11R,0.650000X2.200000*%
%TD*%
%TA.AperFunction,SMDPad,CuDef*%
%ADD12R,0.650000X2.300000*%
%TD*%
%TA.AperFunction,SMDPad,CuDef*%
%ADD13RoundRect,0.006600X-0.313400X-0.103400X0.313400X-0.103400X0.313400X0.103400X-0.313400X0.103400X0*%
%TD*%
%TA.AperFunction,SMDPad,CuDef*%
%ADD14RoundRect,0.006600X0.103400X-0.313400X0.103400X0.313400X-0.103400X0.313400X-0.103400X-0.313400X0*%
%TD*%
%TA.AperFunction,SMDPad,CuDef*%
%ADD15RoundRect,0.006600X0.313400X0.103400X-0.313400X0.103400X-0.313400X-0.103400X0.313400X-0.103400X0*%
%TD*%
%TA.AperFunction,SMDPad,CuDef*%
%ADD16RoundRect,0.006600X-0.103400X0.313400X-0.103400X-0.313400X0.103400X-0.313400X0.103400X0.313400X0*%
%TD*%
%TA.AperFunction,SMDPad,CuDef*%
%ADD17R,0.940000X1.020000*%
%TD*%
%TA.AperFunction,SMDPad,CuDef*%
%ADD18R,1.000000X0.800000*%
%TD*%
%TA.AperFunction,SMDPad,CuDef*%
%ADD19R,0.647700X0.355600*%
%TD*%
%TA.AperFunction,SMDPad,CuDef*%
%ADD20R,1.320800X0.558800*%
%TD*%
%TA.AperFunction,SMDPad,CuDef*%
%ADD21R,1.020000X0.940000*%
%TD*%
%TA.AperFunction,SMDPad,CuDef*%
%ADD22R,5.080000X2.286000*%
%TD*%
%TA.AperFunction,SMDPad,CuDef*%
%ADD23R,5.080000X2.413000*%
%TD*%
%TA.AperFunction,SMDPad,CuDef*%
%ADD24R,1.000000X1.100000*%
%TD*%
%TA.AperFunction,ComponentPad*%
%ADD25C,1.066800*%
%TD*%
%TA.AperFunction,ComponentPad*%
%ADD26R,1.150000X1.150000*%
%TD*%
%TA.AperFunction,ComponentPad*%
%ADD27C,1.150000*%
%TD*%
%TA.AperFunction,SMDPad,CuDef*%
%ADD28R,2.150000X0.950000*%
%TD*%
%TA.AperFunction,SMDPad,CuDef*%
%ADD29R,2.150000X3.250000*%
%TD*%
%TA.AperFunction,ComponentPad*%
%ADD30C,1.408000*%
%TD*%
%TA.AperFunction,SMDPad,CuDef*%
%ADD31R,0.355600X0.647700*%
%TD*%
%TA.AperFunction,SMDPad,CuDef*%
%ADD32R,0.406400X0.952500*%
%TD*%
%TA.AperFunction,SMDPad,CuDef*%
%ADD33R,1.950000X1.050000*%
%TD*%
%TA.AperFunction,SMDPad,CuDef*%
%ADD34R,0.584200X1.041400*%
%TD*%
%TA.AperFunction,SMDPad,CuDef*%
%ADD35R,1.100000X1.000000*%
%TD*%
%TA.AperFunction,SMDPad,CuDef*%
%ADD36R,1.560000X0.280000*%
%TD*%
%TA.AperFunction,SMDPad,CuDef*%
%ADD37R,0.280000X1.560000*%
%TD*%
%TA.AperFunction,SMDPad,CuDef*%
%ADD38R,0.952500X0.406400*%
%TD*%
%TA.AperFunction,ComponentPad*%
%ADD39R,2.050000X2.050000*%
%TD*%
%TA.AperFunction,ComponentPad*%
%ADD40C,2.050000*%
%TD*%
%TA.AperFunction,ComponentPad*%
%ADD41R,1.650000X1.650000*%
%TD*%
%TA.AperFunction,ComponentPad*%
%ADD42C,1.650000*%
%TD*%
%TA.AperFunction,SMDPad,CuDef*%
%ADD43R,1.778000X1.270000*%
%TD*%
%TA.AperFunction,SMDPad,CuDef*%
%ADD44R,0.979300X0.558800*%
%TD*%
%TA.AperFunction,SMDPad,CuDef*%
%ADD45R,1.000000X1.000000*%
%TD*%
%TA.AperFunction,SMDPad,CuDef*%
%ADD46R,2.200000X1.050000*%
%TD*%
%TA.AperFunction,SMDPad,CuDef*%
%ADD47R,1.350000X0.400000*%
%TD*%
%TA.AperFunction,SMDPad,CuDef*%
%ADD48R,1.550000X1.500000*%
%TD*%
%TA.AperFunction,ComponentPad*%
%ADD49O,0.650000X1.300000*%
%TD*%
%TA.AperFunction,ComponentPad*%
%ADD50O,1.550000X0.775000*%
%TD*%
%TA.AperFunction,SMDPad,CuDef*%
%ADD51R,1.400000X0.620000*%
%TD*%
%TA.AperFunction,SMDPad,CuDef*%
%ADD52R,2.400000X1.100000*%
%TD*%
%TA.AperFunction,SMDPad,CuDef*%
%ADD53R,1.700000X0.990600*%
%TD*%
%TA.AperFunction,SMDPad,CuDef*%
%ADD54R,0.685800X0.609600*%
%TD*%
%TA.AperFunction,SMDPad,CuDef*%
%ADD55R,1.800000X0.700000*%
%TD*%
%TA.AperFunction,SMDPad,CuDef*%
%ADD56R,1.800000X0.800000*%
%TD*%
%TA.AperFunction,SMDPad,CuDef*%
%ADD57R,0.250000X0.275000*%
%TD*%
%TA.AperFunction,SMDPad,CuDef*%
%ADD58R,0.275000X0.250000*%
%TD*%
%TA.AperFunction,SMDPad,CuDef*%
%ADD59R,0.900000X0.254000*%
%TD*%
%TA.AperFunction,SMDPad,CuDef*%
%ADD60R,0.254000X0.900000*%
%TD*%
%TA.AperFunction,SMDPad,CuDef*%
%ADD61R,3.100000X3.100000*%
%TD*%
%TA.AperFunction,SMDPad,CuDef*%
%ADD62R,1.524000X0.558800*%
%TD*%
%TA.AperFunction,SMDPad,CuDef*%
%ADD63R,0.965200X1.295400*%
%TD*%
%TA.AperFunction,SMDPad,CuDef*%
%ADD64R,1.300000X1.100000*%
%TD*%
%TA.AperFunction,ViaPad*%
%ADD65C,0.500000*%
%TD*%
%TA.AperFunction,ViaPad*%
%ADD66C,1.016000*%
%TD*%
%TA.AperFunction,ViaPad*%
%ADD67C,1.270000*%
%TD*%
%TA.AperFunction,Conductor*%
%ADD68C,0.177800*%
%TD*%
%TA.AperFunction,Conductor*%
%ADD69C,0.508000*%
%TD*%
%TA.AperFunction,Conductor*%
%ADD70C,0.381000*%
%TD*%
%TA.AperFunction,Conductor*%
%ADD71C,0.313738*%
%TD*%
%TA.AperFunction,Conductor*%
%ADD72C,0.762000*%
%TD*%
%TA.AperFunction,Conductor*%
%ADD73C,0.254000*%
%TD*%
%TA.AperFunction,Conductor*%
%ADD74C,0.266700*%
%TD*%
%TA.AperFunction,Conductor*%
%ADD75C,1.778000*%
%TD*%
G04 APERTURE END LIST*
%TO.C,P3*%
G36*
X185153600Y-73602000D02*
G01*
X184953600Y-73602000D01*
X184953600Y-73590000D01*
X184952600Y-73577000D01*
X184948600Y-73551000D01*
X184945600Y-73538000D01*
X184941600Y-73526000D01*
X184926600Y-73490000D01*
X184920600Y-73478000D01*
X184913600Y-73467000D01*
X184905600Y-73457000D01*
X184898600Y-73446000D01*
X184889600Y-73436000D01*
X184871600Y-73418000D01*
X184861600Y-73409000D01*
X184850600Y-73402000D01*
X184840600Y-73394000D01*
X184829600Y-73387000D01*
X184817600Y-73381000D01*
X184781600Y-73366000D01*
X184769600Y-73362000D01*
X184756600Y-73359000D01*
X184730600Y-73355000D01*
X184717600Y-73354000D01*
X184040600Y-73354000D01*
X184027600Y-73355000D01*
X184001600Y-73359000D01*
X183988600Y-73363000D01*
X183976600Y-73366000D01*
X183963600Y-73371000D01*
X183951600Y-73376000D01*
X183940600Y-73381000D01*
X183928600Y-73387000D01*
X183917600Y-73394000D01*
X183906600Y-73402000D01*
X183886600Y-73418000D01*
X183876600Y-73427000D01*
X183867600Y-73437000D01*
X183851600Y-73457000D01*
X183843600Y-73468000D01*
X183836600Y-73479000D01*
X183830600Y-73491000D01*
X183825600Y-73502000D01*
X183820600Y-73514000D01*
X183815600Y-73527000D01*
X183812600Y-73539000D01*
X183808600Y-73552000D01*
X183804600Y-73578000D01*
X183803600Y-73591000D01*
X183803600Y-73617000D01*
X183804600Y-73630000D01*
X183808600Y-73656000D01*
X183812600Y-73669000D01*
X183815600Y-73681000D01*
X183820600Y-73694000D01*
X183825600Y-73706000D01*
X183830600Y-73717000D01*
X183836600Y-73729000D01*
X183843600Y-73740000D01*
X183851600Y-73751000D01*
X183867600Y-73771000D01*
X183876600Y-73781000D01*
X183886600Y-73790000D01*
X183906600Y-73806000D01*
X183917600Y-73814000D01*
X183928600Y-73821000D01*
X183940600Y-73827000D01*
X183951600Y-73832000D01*
X183963600Y-73837000D01*
X183976600Y-73842000D01*
X183988600Y-73845000D01*
X184001600Y-73849000D01*
X184027600Y-73853000D01*
X184040600Y-73854000D01*
X184717600Y-73854000D01*
X184730600Y-73853000D01*
X184756600Y-73849000D01*
X184769600Y-73846000D01*
X184781600Y-73842000D01*
X184817600Y-73827000D01*
X184829600Y-73821000D01*
X184840600Y-73814000D01*
X184850600Y-73806000D01*
X184861600Y-73799000D01*
X184871600Y-73790000D01*
X184889600Y-73772000D01*
X184898600Y-73762000D01*
X184905600Y-73751000D01*
X184913600Y-73741000D01*
X184920600Y-73730000D01*
X184926600Y-73718000D01*
X184941600Y-73682000D01*
X184945600Y-73670000D01*
X184948600Y-73657000D01*
X184952600Y-73631000D01*
X184953600Y-73618000D01*
X184953600Y-73606000D01*
X185153600Y-73606000D01*
X185152600Y-73631000D01*
X185150600Y-73657000D01*
X185147600Y-73683000D01*
X185142600Y-73709000D01*
X185136600Y-73734000D01*
X185129600Y-73759000D01*
X185120600Y-73784000D01*
X185110600Y-73808000D01*
X185099600Y-73832000D01*
X185086600Y-73855000D01*
X185073600Y-73877000D01*
X185058600Y-73898000D01*
X185042600Y-73919000D01*
X185025600Y-73939000D01*
X185007600Y-73958000D01*
X184988600Y-73976000D01*
X184968600Y-73993000D01*
X184947600Y-74009000D01*
X184926600Y-74024000D01*
X184904600Y-74037000D01*
X184881600Y-74050000D01*
X184857600Y-74061000D01*
X184833600Y-74071000D01*
X184808600Y-74080000D01*
X184783600Y-74087000D01*
X184758600Y-74093000D01*
X184732600Y-74098000D01*
X184706600Y-74101000D01*
X184680600Y-74103000D01*
X184653600Y-74104000D01*
X184103600Y-74104000D01*
X184077600Y-74103000D01*
X184051600Y-74101000D01*
X184025600Y-74098000D01*
X183999600Y-74093000D01*
X183974600Y-74087000D01*
X183948600Y-74080000D01*
X183924600Y-74071000D01*
X183900600Y-74061000D01*
X183876600Y-74050000D01*
X183853600Y-74037000D01*
X183809600Y-74009000D01*
X183788600Y-73993000D01*
X183768600Y-73976000D01*
X183749600Y-73958000D01*
X183731600Y-73939000D01*
X183714600Y-73919000D01*
X183698600Y-73898000D01*
X183670600Y-73854000D01*
X183657600Y-73831000D01*
X183646600Y-73807000D01*
X183636600Y-73783000D01*
X183627600Y-73759000D01*
X183620600Y-73733000D01*
X183614600Y-73708000D01*
X183609600Y-73682000D01*
X183606600Y-73656000D01*
X183604600Y-73630000D01*
X183603600Y-73604000D01*
X183603600Y-72409000D01*
X183598600Y-72409000D01*
X183598600Y-72404000D01*
X185153600Y-72404000D01*
X185153600Y-73602000D01*
G37*
D10*
X185153600Y-73602000D02*
X184953600Y-73602000D01*
X184953600Y-73590000D01*
X184952600Y-73577000D01*
X184948600Y-73551000D01*
X184945600Y-73538000D01*
X184941600Y-73526000D01*
X184926600Y-73490000D01*
X184920600Y-73478000D01*
X184913600Y-73467000D01*
X184905600Y-73457000D01*
X184898600Y-73446000D01*
X184889600Y-73436000D01*
X184871600Y-73418000D01*
X184861600Y-73409000D01*
X184850600Y-73402000D01*
X184840600Y-73394000D01*
X184829600Y-73387000D01*
X184817600Y-73381000D01*
X184781600Y-73366000D01*
X184769600Y-73362000D01*
X184756600Y-73359000D01*
X184730600Y-73355000D01*
X184717600Y-73354000D01*
X184040600Y-73354000D01*
X184027600Y-73355000D01*
X184001600Y-73359000D01*
X183988600Y-73363000D01*
X183976600Y-73366000D01*
X183963600Y-73371000D01*
X183951600Y-73376000D01*
X183940600Y-73381000D01*
X183928600Y-73387000D01*
X183917600Y-73394000D01*
X183906600Y-73402000D01*
X183886600Y-73418000D01*
X183876600Y-73427000D01*
X183867600Y-73437000D01*
X183851600Y-73457000D01*
X183843600Y-73468000D01*
X183836600Y-73479000D01*
X183830600Y-73491000D01*
X183825600Y-73502000D01*
X183820600Y-73514000D01*
X183815600Y-73527000D01*
X183812600Y-73539000D01*
X183808600Y-73552000D01*
X183804600Y-73578000D01*
X183803600Y-73591000D01*
X183803600Y-73617000D01*
X183804600Y-73630000D01*
X183808600Y-73656000D01*
X183812600Y-73669000D01*
X183815600Y-73681000D01*
X183820600Y-73694000D01*
X183825600Y-73706000D01*
X183830600Y-73717000D01*
X183836600Y-73729000D01*
X183843600Y-73740000D01*
X183851600Y-73751000D01*
X183867600Y-73771000D01*
X183876600Y-73781000D01*
X183886600Y-73790000D01*
X183906600Y-73806000D01*
X183917600Y-73814000D01*
X183928600Y-73821000D01*
X183940600Y-73827000D01*
X183951600Y-73832000D01*
X183963600Y-73837000D01*
X183976600Y-73842000D01*
X183988600Y-73845000D01*
X184001600Y-73849000D01*
X184027600Y-73853000D01*
X184040600Y-73854000D01*
X184717600Y-73854000D01*
X184730600Y-73853000D01*
X184756600Y-73849000D01*
X184769600Y-73846000D01*
X184781600Y-73842000D01*
X184817600Y-73827000D01*
X184829600Y-73821000D01*
X184840600Y-73814000D01*
X184850600Y-73806000D01*
X184861600Y-73799000D01*
X184871600Y-73790000D01*
X184889600Y-73772000D01*
X184898600Y-73762000D01*
X184905600Y-73751000D01*
X184913600Y-73741000D01*
X184920600Y-73730000D01*
X184926600Y-73718000D01*
X184941600Y-73682000D01*
X184945600Y-73670000D01*
X184948600Y-73657000D01*
X184952600Y-73631000D01*
X184953600Y-73618000D01*
X184953600Y-73606000D01*
X185153600Y-73606000D01*
X185152600Y-73631000D01*
X185150600Y-73657000D01*
X185147600Y-73683000D01*
X185142600Y-73709000D01*
X185136600Y-73734000D01*
X185129600Y-73759000D01*
X185120600Y-73784000D01*
X185110600Y-73808000D01*
X185099600Y-73832000D01*
X185086600Y-73855000D01*
X185073600Y-73877000D01*
X185058600Y-73898000D01*
X185042600Y-73919000D01*
X185025600Y-73939000D01*
X185007600Y-73958000D01*
X184988600Y-73976000D01*
X184968600Y-73993000D01*
X184947600Y-74009000D01*
X184926600Y-74024000D01*
X184904600Y-74037000D01*
X184881600Y-74050000D01*
X184857600Y-74061000D01*
X184833600Y-74071000D01*
X184808600Y-74080000D01*
X184783600Y-74087000D01*
X184758600Y-74093000D01*
X184732600Y-74098000D01*
X184706600Y-74101000D01*
X184680600Y-74103000D01*
X184653600Y-74104000D01*
X184103600Y-74104000D01*
X184077600Y-74103000D01*
X184051600Y-74101000D01*
X184025600Y-74098000D01*
X183999600Y-74093000D01*
X183974600Y-74087000D01*
X183948600Y-74080000D01*
X183924600Y-74071000D01*
X183900600Y-74061000D01*
X183876600Y-74050000D01*
X183853600Y-74037000D01*
X183809600Y-74009000D01*
X183788600Y-73993000D01*
X183768600Y-73976000D01*
X183749600Y-73958000D01*
X183731600Y-73939000D01*
X183714600Y-73919000D01*
X183698600Y-73898000D01*
X183670600Y-73854000D01*
X183657600Y-73831000D01*
X183646600Y-73807000D01*
X183636600Y-73783000D01*
X183627600Y-73759000D01*
X183620600Y-73733000D01*
X183614600Y-73708000D01*
X183609600Y-73682000D01*
X183606600Y-73656000D01*
X183604600Y-73630000D01*
X183603600Y-73604000D01*
X183603600Y-72409000D01*
X183598600Y-72409000D01*
X183598600Y-72404000D01*
X185153600Y-72404000D01*
X185153600Y-73602000D01*
G36*
X184679600Y-66105000D02*
G01*
X184705600Y-66107000D01*
X184731600Y-66110000D01*
X184757600Y-66115000D01*
X184782600Y-66121000D01*
X184808600Y-66128000D01*
X184832600Y-66137000D01*
X184856600Y-66147000D01*
X184880600Y-66158000D01*
X184903600Y-66171000D01*
X184947600Y-66199000D01*
X184968600Y-66215000D01*
X184988600Y-66232000D01*
X185007600Y-66250000D01*
X185025600Y-66269000D01*
X185042600Y-66289000D01*
X185058600Y-66310000D01*
X185086600Y-66354000D01*
X185099600Y-66377000D01*
X185110600Y-66401000D01*
X185120600Y-66425000D01*
X185129600Y-66449000D01*
X185136600Y-66475000D01*
X185142600Y-66500000D01*
X185147600Y-66526000D01*
X185150600Y-66552000D01*
X185152600Y-66578000D01*
X185153600Y-66604000D01*
X185153600Y-67799000D01*
X185158600Y-67799000D01*
X185158600Y-67804000D01*
X183603600Y-67804000D01*
X183603600Y-66606000D01*
X183803600Y-66606000D01*
X183803600Y-66618000D01*
X183804600Y-66631000D01*
X183808600Y-66657000D01*
X183811600Y-66670000D01*
X183815600Y-66682000D01*
X183830600Y-66718000D01*
X183836600Y-66730000D01*
X183843600Y-66741000D01*
X183851600Y-66751000D01*
X183858600Y-66762000D01*
X183867600Y-66772000D01*
X183885600Y-66790000D01*
X183895600Y-66799000D01*
X183906600Y-66806000D01*
X183916600Y-66814000D01*
X183927600Y-66821000D01*
X183939600Y-66827000D01*
X183975600Y-66842000D01*
X183987600Y-66846000D01*
X184000600Y-66849000D01*
X184026600Y-66853000D01*
X184039600Y-66854000D01*
X184716600Y-66854000D01*
X184729600Y-66853000D01*
X184755600Y-66849000D01*
X184768600Y-66845000D01*
X184780600Y-66842000D01*
X184793600Y-66837000D01*
X184805600Y-66832000D01*
X184816600Y-66827000D01*
X184828600Y-66821000D01*
X184839600Y-66814000D01*
X184850600Y-66806000D01*
X184870600Y-66790000D01*
X184880600Y-66781000D01*
X184889600Y-66771000D01*
X184905600Y-66751000D01*
X184913600Y-66740000D01*
X184920600Y-66729000D01*
X184926600Y-66717000D01*
X184931600Y-66706000D01*
X184936600Y-66694000D01*
X184941600Y-66681000D01*
X184944600Y-66669000D01*
X184948600Y-66656000D01*
X184952600Y-66630000D01*
X184953600Y-66617000D01*
X184953600Y-66591000D01*
X184952600Y-66578000D01*
X184948600Y-66552000D01*
X184944600Y-66539000D01*
X184941600Y-66527000D01*
X184936600Y-66514000D01*
X184931600Y-66502000D01*
X184926600Y-66491000D01*
X184920600Y-66479000D01*
X184913600Y-66468000D01*
X184905600Y-66457000D01*
X184889600Y-66437000D01*
X184880600Y-66427000D01*
X184870600Y-66418000D01*
X184850600Y-66402000D01*
X184839600Y-66394000D01*
X184828600Y-66387000D01*
X184816600Y-66381000D01*
X184805600Y-66376000D01*
X184793600Y-66371000D01*
X184780600Y-66366000D01*
X184768600Y-66363000D01*
X184755600Y-66359000D01*
X184729600Y-66355000D01*
X184716600Y-66354000D01*
X184039600Y-66354000D01*
X184026600Y-66355000D01*
X184000600Y-66359000D01*
X183987600Y-66362000D01*
X183975600Y-66366000D01*
X183939600Y-66381000D01*
X183927600Y-66387000D01*
X183916600Y-66394000D01*
X183906600Y-66402000D01*
X183895600Y-66409000D01*
X183885600Y-66418000D01*
X183867600Y-66436000D01*
X183858600Y-66446000D01*
X183851600Y-66457000D01*
X183843600Y-66467000D01*
X183836600Y-66478000D01*
X183830600Y-66490000D01*
X183815600Y-66526000D01*
X183811600Y-66538000D01*
X183808600Y-66551000D01*
X183804600Y-66577000D01*
X183803600Y-66590000D01*
X183803600Y-66602000D01*
X183603600Y-66602000D01*
X183604600Y-66577000D01*
X183606600Y-66551000D01*
X183609600Y-66525000D01*
X183614600Y-66499000D01*
X183620600Y-66474000D01*
X183627600Y-66449000D01*
X183636600Y-66424000D01*
X183646600Y-66400000D01*
X183657600Y-66376000D01*
X183670600Y-66353000D01*
X183683600Y-66331000D01*
X183698600Y-66310000D01*
X183714600Y-66289000D01*
X183731600Y-66269000D01*
X183749600Y-66250000D01*
X183768600Y-66232000D01*
X183788600Y-66215000D01*
X183809600Y-66199000D01*
X183830600Y-66184000D01*
X183852600Y-66171000D01*
X183875600Y-66158000D01*
X183899600Y-66147000D01*
X183923600Y-66137000D01*
X183948600Y-66128000D01*
X183973600Y-66121000D01*
X183998600Y-66115000D01*
X184024600Y-66110000D01*
X184050600Y-66107000D01*
X184076600Y-66105000D01*
X184103600Y-66104000D01*
X184653600Y-66104000D01*
X184679600Y-66105000D01*
G37*
X184679600Y-66105000D02*
X184705600Y-66107000D01*
X184731600Y-66110000D01*
X184757600Y-66115000D01*
X184782600Y-66121000D01*
X184808600Y-66128000D01*
X184832600Y-66137000D01*
X184856600Y-66147000D01*
X184880600Y-66158000D01*
X184903600Y-66171000D01*
X184947600Y-66199000D01*
X184968600Y-66215000D01*
X184988600Y-66232000D01*
X185007600Y-66250000D01*
X185025600Y-66269000D01*
X185042600Y-66289000D01*
X185058600Y-66310000D01*
X185086600Y-66354000D01*
X185099600Y-66377000D01*
X185110600Y-66401000D01*
X185120600Y-66425000D01*
X185129600Y-66449000D01*
X185136600Y-66475000D01*
X185142600Y-66500000D01*
X185147600Y-66526000D01*
X185150600Y-66552000D01*
X185152600Y-66578000D01*
X185153600Y-66604000D01*
X185153600Y-67799000D01*
X185158600Y-67799000D01*
X185158600Y-67804000D01*
X183603600Y-67804000D01*
X183603600Y-66606000D01*
X183803600Y-66606000D01*
X183803600Y-66618000D01*
X183804600Y-66631000D01*
X183808600Y-66657000D01*
X183811600Y-66670000D01*
X183815600Y-66682000D01*
X183830600Y-66718000D01*
X183836600Y-66730000D01*
X183843600Y-66741000D01*
X183851600Y-66751000D01*
X183858600Y-66762000D01*
X183867600Y-66772000D01*
X183885600Y-66790000D01*
X183895600Y-66799000D01*
X183906600Y-66806000D01*
X183916600Y-66814000D01*
X183927600Y-66821000D01*
X183939600Y-66827000D01*
X183975600Y-66842000D01*
X183987600Y-66846000D01*
X184000600Y-66849000D01*
X184026600Y-66853000D01*
X184039600Y-66854000D01*
X184716600Y-66854000D01*
X184729600Y-66853000D01*
X184755600Y-66849000D01*
X184768600Y-66845000D01*
X184780600Y-66842000D01*
X184793600Y-66837000D01*
X184805600Y-66832000D01*
X184816600Y-66827000D01*
X184828600Y-66821000D01*
X184839600Y-66814000D01*
X184850600Y-66806000D01*
X184870600Y-66790000D01*
X184880600Y-66781000D01*
X184889600Y-66771000D01*
X184905600Y-66751000D01*
X184913600Y-66740000D01*
X184920600Y-66729000D01*
X184926600Y-66717000D01*
X184931600Y-66706000D01*
X184936600Y-66694000D01*
X184941600Y-66681000D01*
X184944600Y-66669000D01*
X184948600Y-66656000D01*
X184952600Y-66630000D01*
X184953600Y-66617000D01*
X184953600Y-66591000D01*
X184952600Y-66578000D01*
X184948600Y-66552000D01*
X184944600Y-66539000D01*
X184941600Y-66527000D01*
X184936600Y-66514000D01*
X184931600Y-66502000D01*
X184926600Y-66491000D01*
X184920600Y-66479000D01*
X184913600Y-66468000D01*
X184905600Y-66457000D01*
X184889600Y-66437000D01*
X184880600Y-66427000D01*
X184870600Y-66418000D01*
X184850600Y-66402000D01*
X184839600Y-66394000D01*
X184828600Y-66387000D01*
X184816600Y-66381000D01*
X184805600Y-66376000D01*
X184793600Y-66371000D01*
X184780600Y-66366000D01*
X184768600Y-66363000D01*
X184755600Y-66359000D01*
X184729600Y-66355000D01*
X184716600Y-66354000D01*
X184039600Y-66354000D01*
X184026600Y-66355000D01*
X184000600Y-66359000D01*
X183987600Y-66362000D01*
X183975600Y-66366000D01*
X183939600Y-66381000D01*
X183927600Y-66387000D01*
X183916600Y-66394000D01*
X183906600Y-66402000D01*
X183895600Y-66409000D01*
X183885600Y-66418000D01*
X183867600Y-66436000D01*
X183858600Y-66446000D01*
X183851600Y-66457000D01*
X183843600Y-66467000D01*
X183836600Y-66478000D01*
X183830600Y-66490000D01*
X183815600Y-66526000D01*
X183811600Y-66538000D01*
X183808600Y-66551000D01*
X183804600Y-66577000D01*
X183803600Y-66590000D01*
X183803600Y-66602000D01*
X183603600Y-66602000D01*
X183604600Y-66577000D01*
X183606600Y-66551000D01*
X183609600Y-66525000D01*
X183614600Y-66499000D01*
X183620600Y-66474000D01*
X183627600Y-66449000D01*
X183636600Y-66424000D01*
X183646600Y-66400000D01*
X183657600Y-66376000D01*
X183670600Y-66353000D01*
X183683600Y-66331000D01*
X183698600Y-66310000D01*
X183714600Y-66289000D01*
X183731600Y-66269000D01*
X183749600Y-66250000D01*
X183768600Y-66232000D01*
X183788600Y-66215000D01*
X183809600Y-66199000D01*
X183830600Y-66184000D01*
X183852600Y-66171000D01*
X183875600Y-66158000D01*
X183899600Y-66147000D01*
X183923600Y-66137000D01*
X183948600Y-66128000D01*
X183973600Y-66121000D01*
X183998600Y-66115000D01*
X184024600Y-66110000D01*
X184050600Y-66107000D01*
X184076600Y-66105000D01*
X184103600Y-66104000D01*
X184653600Y-66104000D01*
X184679600Y-66105000D01*
%TD*%
D11*
%TO.P,BT1,1,+*%
%TO.N,/Navigation and Control/3V_BAK*%
X104128000Y-74541000D03*
D12*
%TO.P,BT1,2,-*%
%TO.N,Earth*%
X102628000Y-74491000D03*
%TD*%
D13*
%TO.P,U8,1,RESV_1*%
%TO.N,3.3V*%
X125123708Y-79264000D03*
%TO.P,U8,2*%
%TO.N,unconnected-(U8-Pad2)*%
X125123708Y-79664000D03*
%TO.P,U8,3*%
%TO.N,unconnected-(U8-Pad3)*%
X125123708Y-80064000D03*
%TO.P,U8,4*%
%TO.N,unconnected-(U8-Pad4)*%
X125123708Y-80464000D03*
%TO.P,U8,5*%
%TO.N,unconnected-(U8-Pad5)*%
X125123708Y-80864000D03*
%TO.P,U8,6*%
%TO.N,unconnected-(U8-Pad6)*%
X125123708Y-81264000D03*
D14*
%TO.P,U8,7,AUX_CL*%
%TO.N,unconnected-(U8-Pad7)*%
X125668708Y-81809000D03*
%TO.P,U8,8,VDDIO*%
%TO.N,3.3V*%
X126068708Y-81809000D03*
%TO.P,U8,9,AD0/SDO*%
%TO.N,Earth*%
X126468708Y-81809000D03*
%TO.P,U8,10,REGOUT*%
%TO.N,Net-(C20-Pad1)*%
X126868708Y-81809000D03*
%TO.P,U8,11,FSYNC*%
%TO.N,Earth*%
X127268708Y-81809000D03*
%TO.P,U8,12,INT*%
%TO.N,IMU_INT*%
X127668708Y-81809000D03*
D15*
%TO.P,U8,13,VDD*%
%TO.N,3.3V*%
X128213708Y-81264000D03*
%TO.P,U8,14*%
%TO.N,unconnected-(U8-Pad14)*%
X128213708Y-80864000D03*
%TO.P,U8,15*%
%TO.N,unconnected-(U8-Pad15)*%
X128213708Y-80464000D03*
%TO.P,U8,16*%
%TO.N,unconnected-(U8-Pad16)*%
X128213708Y-80064000D03*
%TO.P,U8,17*%
%TO.N,unconnected-(U8-Pad17)*%
X128213708Y-79664000D03*
%TO.P,U8,18,GND*%
%TO.N,Earth*%
X128213708Y-79264000D03*
D16*
%TO.P,U8,19,RESV_19*%
%TO.N,unconnected-(U8-Pad19)*%
X127668708Y-78719000D03*
%TO.P,U8,20,RESV_20*%
%TO.N,Earth*%
X127268708Y-78719000D03*
%TO.P,U8,21,AUX_DA*%
%TO.N,unconnected-(U8-Pad21)*%
X126868708Y-78719000D03*
%TO.P,U8,22,~{CS}*%
%TO.N,unconnected-(U8-Pad22)*%
X126468708Y-78719000D03*
%TO.P,U8,23,SCL/SCLK*%
%TO.N,SCL*%
X126068708Y-78719000D03*
%TO.P,U8,24,SDA/SDI*%
%TO.N,SDA*%
X125668708Y-78719000D03*
%TD*%
D17*
%TO.P,R17,1*%
%TO.N,~{MAIN_CONT}*%
X118590000Y-73914000D03*
%TO.P,R17,2*%
%TO.N,3.3V*%
X120170000Y-73914000D03*
%TD*%
D18*
%TO.P,D1,1*%
%TO.N,3.3V*%
X159651000Y-65693200D03*
%TO.P,D1,2*%
%TO.N,Net-(D1-Pad2)*%
X161151000Y-65693200D03*
%TO.P,D1,3*%
%TO.N,Net-(D1-Pad3)*%
X161151000Y-66793200D03*
%TO.P,D1,4*%
%TO.N,Net-(D1-Pad4)*%
X159651000Y-66793200D03*
%TD*%
D19*
%TO.P,D7,1,1*%
%TO.N,MOTOR1_PWM*%
X167201850Y-90906600D03*
%TO.P,D7,2,2*%
%TO.N,Earth*%
X169652950Y-90906600D03*
%TD*%
D20*
%TO.P,U7,1*%
%TO.N,~{DROGUE_CONT}*%
X110667800Y-72832001D03*
%TO.P,U7,2,V-*%
%TO.N,Earth*%
X110667800Y-71882000D03*
%TO.P,U7,3,-*%
%TO.N,VCOMP*%
X110667800Y-70931999D03*
%TO.P,U7,4,+*%
%TO.N,Net-(P4-Pad4)*%
X108280200Y-70931999D03*
%TO.P,U7,5,V+*%
%TO.N,VIN*%
X108280200Y-72832001D03*
%TD*%
D21*
%TO.P,R20,1*%
%TO.N,SDA*%
X123444000Y-77188000D03*
%TO.P,R20,2*%
%TO.N,3.3V*%
X123444000Y-78768000D03*
%TD*%
D22*
%TO.P,AE2,1,A*%
%TO.N,Net-(AE2-Pad1)*%
X92900500Y-87630000D03*
D23*
%TO.P,AE2,2,Shield*%
%TO.N,Earth*%
X92900500Y-92011500D03*
X92900500Y-83248500D03*
%TD*%
D24*
%TO.P,C6,1*%
%TO.N,3.3V*%
X142087600Y-68464800D03*
%TO.P,C6,2*%
%TO.N,Earth*%
X142087600Y-66764800D03*
%TD*%
%TO.P,C22,1*%
%TO.N,3.3V*%
X129794000Y-81700000D03*
%TO.P,C22,2*%
%TO.N,Earth*%
X129794000Y-83400000D03*
%TD*%
D25*
%TO.P,P8,1,1*%
%TO.N,3.3V*%
X135077200Y-63815850D03*
%TO.P,P8,2,2*%
X135077200Y-62545850D03*
%TO.P,P8,3,3*%
%TO.N,Earth*%
X136347200Y-63815850D03*
%TO.P,P8,4,4*%
X136347200Y-62545850D03*
%TO.P,P8,5,5*%
X137617200Y-63815850D03*
%TO.P,P8,6,6*%
X137617200Y-62545850D03*
%TO.P,P8,7,7*%
%TO.N,SWDIO*%
X138887200Y-63815850D03*
%TO.P,P8,8,8*%
%TO.N,Earth*%
X138887200Y-62545850D03*
%TO.P,P8,9,9*%
%TO.N,SWCLK*%
X140157200Y-63815850D03*
%TO.P,P8,10,10*%
%TO.N,Earth*%
X140157200Y-62545850D03*
%TO.P,P8,11,11*%
%TO.N,unconnected-(P8-Pad11)*%
X141427200Y-63815850D03*
%TO.P,P8,12,12*%
%TO.N,Earth*%
X141427200Y-62545850D03*
%TO.P,P8,13,13*%
%TO.N,SWO*%
X142697200Y-63815850D03*
%TO.P,P8,14,14*%
%TO.N,Earth*%
X142697200Y-62545850D03*
%TO.P,P8,15,15*%
%TO.N,NRST*%
X143967200Y-63815850D03*
%TO.P,P8,16,16*%
%TO.N,Earth*%
X143967200Y-62545850D03*
%TO.P,P8,17,17*%
%TO.N,unconnected-(P8-Pad17)*%
X145237200Y-63815850D03*
%TO.P,P8,18,18*%
%TO.N,Earth*%
X145237200Y-62545850D03*
%TO.P,P8,19,19*%
%TO.N,unconnected-(P8-Pad19)*%
X146507200Y-63815850D03*
%TO.P,P8,20,20*%
%TO.N,Earth*%
X146507200Y-62545850D03*
%TD*%
D26*
%TO.P,P9,1,+12V*%
%TO.N,VIN*%
X138684000Y-98806000D03*
D27*
%TO.P,P9,2,GND*%
%TO.N,MOTOR4_PWM*%
X136677000Y-98806000D03*
%TO.P,P9,3,3*%
%TO.N,Net-(P9-Pad3)*%
X134671000Y-98806000D03*
%TD*%
D28*
%TO.P,U2,1,GND*%
%TO.N,Earth*%
X161573800Y-62040800D03*
D29*
%TO.P,U2,2,VOUT*%
%TO.N,3.3V*%
X155773800Y-59740800D03*
D28*
X161573800Y-59740800D03*
%TO.P,U2,3,VIN*%
%TO.N,VIN*%
X161573800Y-57440800D03*
%TD*%
D30*
%TO.P,BZ1,1,-*%
%TO.N,BEEP*%
X161122200Y-81788000D03*
%TO.P,BZ1,2,+*%
%TO.N,Earth*%
X168722200Y-81788000D03*
%TD*%
D24*
%TO.P,J1,1,A*%
%TO.N,3.3V*%
X145999200Y-66790200D03*
%TO.P,J1,2,B*%
%TO.N,BOOT*%
X145999200Y-68490200D03*
%TD*%
%TO.P,C3,1*%
%TO.N,3.3V*%
X142748000Y-88050000D03*
%TO.P,C3,2*%
%TO.N,Earth*%
X142748000Y-89750000D03*
%TD*%
D21*
%TO.P,R13,1*%
%TO.N,Earth*%
X123952000Y-67310000D03*
%TO.P,R13,2*%
%TO.N,MAIN*%
X123952000Y-68890000D03*
%TD*%
D31*
%TO.P,D9,1,1*%
%TO.N,MOTOR2_PWM*%
X150266400Y-93198950D03*
%TO.P,D9,2,2*%
%TO.N,Earth*%
X150266400Y-90747850D03*
%TD*%
D32*
%TO.P,Q6,1,G*%
%TO.N,MOTOR4_EN*%
X137602001Y-92195650D03*
%TO.P,Q6,2,S*%
%TO.N,Earth*%
X136652000Y-92195650D03*
%TO.P,Q6,3*%
%TO.N,unconnected-(Q6-Pad3)*%
X135701999Y-92195650D03*
%TO.P,Q6,4*%
%TO.N,unconnected-(Q6-Pad4)*%
X135701999Y-94748350D03*
%TO.P,Q6,5,D*%
%TO.N,Net-(P9-Pad3)*%
X137602001Y-94748350D03*
%TD*%
D24*
%TO.P,C9,1*%
%TO.N,OSC_IN*%
X130505200Y-76112000D03*
%TO.P,C9,2*%
%TO.N,Earth*%
X130505200Y-77812000D03*
%TD*%
D21*
%TO.P,R12,1*%
%TO.N,Earth*%
X112776000Y-67282000D03*
%TO.P,R12,2*%
%TO.N,DROGUE*%
X112776000Y-68862000D03*
%TD*%
D24*
%TO.P,C1,1*%
%TO.N,3.3V*%
X143941800Y-68490200D03*
%TO.P,C1,2*%
%TO.N,Earth*%
X143941800Y-66790200D03*
%TD*%
D21*
%TO.P,R8,1*%
%TO.N,Earth*%
X177546000Y-99088000D03*
%TO.P,R8,2*%
%TO.N,FLASH_SCK*%
X177546000Y-97508000D03*
%TD*%
D33*
%TO.P,U10,1,GND*%
%TO.N,Earth*%
X115510600Y-85735400D03*
%TO.P,U10,2,MISO*%
%TO.N,W_MOSI*%
X115510600Y-87735400D03*
%TO.P,U10,3,MOSI*%
%TO.N,W_MISO*%
X115510600Y-89735400D03*
%TO.P,U10,4,SCK*%
%TO.N,W_SCK*%
X115510600Y-91735400D03*
%TO.P,U10,5,NSS*%
%TO.N,W_SS*%
X115510600Y-93735400D03*
%TO.P,U10,6,RESET*%
%TO.N,W_RST*%
X115510600Y-95735400D03*
%TO.P,U10,7,DIO5*%
%TO.N,W_IO5*%
X115510600Y-97735400D03*
%TO.P,U10,8,GND@1*%
%TO.N,Earth*%
X115510600Y-99735400D03*
%TO.P,U10,9,ANT*%
%TO.N,Net-(AE2-Pad1)*%
X130310600Y-99735400D03*
%TO.P,U10,10,GND@2*%
%TO.N,Earth*%
X130310600Y-97735400D03*
%TO.P,U10,11,DIO3*%
%TO.N,W_IO3*%
X130310600Y-95735400D03*
%TO.P,U10,12,DIO4*%
%TO.N,W_IO4*%
X130310600Y-93735400D03*
%TO.P,U10,13,3_3V*%
%TO.N,3.3V*%
X130310600Y-91735400D03*
%TO.P,U10,14,DIO0*%
%TO.N,W_IO0*%
X130310600Y-89735400D03*
%TO.P,U10,15,DIO1*%
%TO.N,W_IO1*%
X130310600Y-87735400D03*
%TO.P,U10,16,DIO2*%
%TO.N,W_IO2*%
X130310600Y-85735400D03*
%TD*%
D21*
%TO.P,R21,1*%
%TO.N,~{GPS_RST}*%
X99060000Y-87404000D03*
%TO.P,R21,2*%
%TO.N,Net-(R21-Pad2)*%
X99060000Y-85824000D03*
%TD*%
D17*
%TO.P,R7,1*%
%TO.N,~{FLASH_SS}*%
X166926200Y-93954600D03*
%TO.P,R7,2*%
%TO.N,3.3V*%
X168506200Y-93954600D03*
%TD*%
D34*
%TO.P,D2,1*%
%TO.N,VIN*%
X167195500Y-62502770D03*
%TO.P,D2,2*%
%TO.N,5V*%
X170878500Y-62502770D03*
%TD*%
D17*
%TO.P,R23,1*%
%TO.N,GPS_INT*%
X97762000Y-83058000D03*
%TO.P,R23,2*%
%TO.N,Net-(R23-Pad2)*%
X99342000Y-83058000D03*
%TD*%
D35*
%TO.P,C17,1*%
%TO.N,5V*%
X173165400Y-66522600D03*
%TO.P,C17,2*%
%TO.N,Earth*%
X174865400Y-66522600D03*
%TD*%
D34*
%TO.P,D4,1*%
%TO.N,VIN*%
X167170100Y-58547000D03*
%TO.P,D4,2*%
%TO.N,/PIN_HARN*%
X170853100Y-58547000D03*
%TD*%
D17*
%TO.P,R5,1*%
%TO.N,Earth*%
X166037200Y-66141600D03*
%TO.P,R5,2*%
%TO.N,~{USB_SUSPEND}*%
X167617200Y-66141600D03*
%TD*%
D36*
%TO.P,U1,1,PE2*%
%TO.N,W_SCK*%
X141062400Y-72308200D03*
%TO.P,U1,2,PE3*%
%TO.N,BP_INT*%
X141062400Y-72808200D03*
%TO.P,U1,3,PE4*%
%TO.N,~{MAIN_CONT}*%
X141062400Y-73308200D03*
%TO.P,U1,4,PE5*%
%TO.N,W_MISO*%
X141062400Y-73808200D03*
%TO.P,U1,5,PE6*%
%TO.N,W_MOSI*%
X141062400Y-74308200D03*
%TO.P,U1,6,VBAT*%
%TO.N,unconnected-(U1-Pad6)*%
X141062400Y-74808200D03*
%TO.P,U1,7,PC13*%
%TO.N,DROGUE*%
X141062400Y-75308200D03*
%TO.P,U1,8,PC14*%
%TO.N,~{DROGUE_CONT}*%
X141062400Y-75808200D03*
%TO.P,U1,9,PC15*%
%TO.N,~{GPS_SBOOT}*%
X141062400Y-76308200D03*
%TO.P,U1,10,VSS*%
%TO.N,Earth*%
X141062400Y-76808200D03*
%TO.P,U1,11,VDD*%
%TO.N,3.3V*%
X141062400Y-77308200D03*
%TO.P,U1,12,PH0*%
%TO.N,OSC_IN*%
X141062400Y-77808200D03*
%TO.P,U1,13,PH1*%
%TO.N,OSC_OUT*%
X141062400Y-78308200D03*
%TO.P,U1,14,NRST*%
%TO.N,NRST*%
X141062400Y-78808200D03*
%TO.P,U1,15,PC0*%
%TO.N,W_SS*%
X141062400Y-79308200D03*
%TO.P,U1,16,PC1*%
%TO.N,W_RST*%
X141062400Y-79808200D03*
%TO.P,U1,17,PC2_C*%
%TO.N,unconnected-(U1-Pad17)*%
X141062400Y-80308200D03*
%TO.P,U1,18,PC3_C*%
%TO.N,unconnected-(U1-Pad18)*%
X141062400Y-80808200D03*
%TO.P,U1,19,VSSA*%
%TO.N,Earth*%
X141062400Y-81308200D03*
%TO.P,U1,20,VREF+*%
%TO.N,3.3V*%
X141062400Y-81808200D03*
%TO.P,U1,21,VDDA*%
X141062400Y-82308200D03*
%TO.P,U1,22,PA0*%
%TO.N,GPS_RX*%
X141062400Y-82808200D03*
%TO.P,U1,23,PA1*%
%TO.N,GPS_TX*%
X141062400Y-83308200D03*
%TO.P,U1,24,PA2*%
%TO.N,IMU_INT*%
X141062400Y-83808200D03*
%TO.P,U1,25,PA3*%
%TO.N,GPS_INT*%
X141062400Y-84308200D03*
D37*
%TO.P,U1,26,VSS*%
%TO.N,Earth*%
X142742400Y-85988200D03*
%TO.P,U1,27,VDD*%
%TO.N,3.3V*%
X143242400Y-85988200D03*
%TO.P,U1,28,PA4*%
%TO.N,MOTOR4_EN*%
X143742400Y-85988200D03*
%TO.P,U1,29,PA5*%
%TO.N,MOTOR4_PWM*%
X144242400Y-85988200D03*
%TO.P,U1,30,PA6*%
%TO.N,MOTOR2_PWM*%
X144742400Y-85988200D03*
%TO.P,U1,31,PA7*%
%TO.N,~{GPS_RST}*%
X145242400Y-85988200D03*
%TO.P,U1,32,PC4*%
%TO.N,GPS_TIM*%
X145742400Y-85988200D03*
%TO.P,U1,33,PC5*%
%TO.N,MOTOR2_EN*%
X146242400Y-85988200D03*
%TO.P,U1,34,PB0*%
%TO.N,MOTOR3_PWM*%
X146742400Y-85988200D03*
%TO.P,U1,35,PB1*%
%TO.N,MOTOR1_PWM*%
X147242400Y-85988200D03*
%TO.P,U1,36,PB2*%
%TO.N,unconnected-(U1-Pad36)*%
X147742400Y-85988200D03*
%TO.P,U1,37,PE7*%
%TO.N,unconnected-(U1-Pad37)*%
X148242400Y-85988200D03*
%TO.P,U1,38,PE8*%
%TO.N,W_IO0*%
X148742400Y-85988200D03*
%TO.P,U1,39,PE9*%
%TO.N,W_IO4*%
X149242400Y-85988200D03*
%TO.P,U1,40,PE10*%
%TO.N,W_IO1*%
X149742400Y-85988200D03*
%TO.P,U1,41,PE11*%
%TO.N,W_IO3*%
X150242400Y-85988200D03*
%TO.P,U1,42,PE12*%
%TO.N,W_IO2*%
X150742400Y-85988200D03*
%TO.P,U1,43,PE13*%
%TO.N,W_IO5*%
X151242400Y-85988200D03*
%TO.P,U1,44,PE14*%
%TO.N,unconnected-(U1-Pad44)*%
X151742400Y-85988200D03*
%TO.P,U1,45,PE15*%
%TO.N,unconnected-(U1-Pad45)*%
X152242400Y-85988200D03*
%TO.P,U1,46,PB10*%
%TO.N,SCL*%
X152742400Y-85988200D03*
%TO.P,U1,47,PB11*%
%TO.N,SDA*%
X153242400Y-85988200D03*
%TO.P,U1,48,VCAP1*%
%TO.N,CAP1*%
X153742400Y-85988200D03*
%TO.P,U1,49,VSS*%
%TO.N,Earth*%
X154242400Y-85988200D03*
%TO.P,U1,50,VDD*%
%TO.N,3.3V*%
X154742400Y-85988200D03*
D36*
%TO.P,U1,51,PB12*%
%TO.N,~{FLASH_SS}*%
X156422400Y-84308200D03*
%TO.P,U1,52,PB13*%
%TO.N,FLASH_SCK*%
X156422400Y-83808200D03*
%TO.P,U1,53,PB14*%
%TO.N,FLASH_MISO*%
X156422400Y-83308200D03*
%TO.P,U1,54,PB15*%
%TO.N,FLASH_MOSI*%
X156422400Y-82808200D03*
%TO.P,U1,55,PD8*%
%TO.N,unconnected-(U1-Pad55)*%
X156422400Y-82308200D03*
%TO.P,U1,56,PD9*%
%TO.N,unconnected-(U1-Pad56)*%
X156422400Y-81808200D03*
%TO.P,U1,57,PD10*%
%TO.N,MOTOR3_EN*%
X156422400Y-81308200D03*
%TO.P,U1,58,PD11*%
%TO.N,MOTOR1_EN*%
X156422400Y-80808200D03*
%TO.P,U1,59,PD12*%
%TO.N,~{FLASH_WP}*%
X156422400Y-80308200D03*
%TO.P,U1,60,PD13*%
%TO.N,~{FLASH_HOLD}*%
X156422400Y-79808200D03*
%TO.P,U1,61,PD14*%
%TO.N,BEEP*%
X156422400Y-79308200D03*
%TO.P,U1,62,PD15*%
%TO.N,~{SD_DETECT}*%
X156422400Y-78808200D03*
%TO.P,U1,63,PC6*%
%TO.N,RX_USB*%
X156422400Y-78308200D03*
%TO.P,U1,64,PC7*%
%TO.N,TX_USB*%
X156422400Y-77808200D03*
%TO.P,U1,65,PC8*%
%TO.N,SD_DAT0*%
X156422400Y-77308200D03*
%TO.P,U1,66,PC9*%
%TO.N,SD_DAT1*%
X156422400Y-76808200D03*
%TO.P,U1,67,PA8*%
%TO.N,~{USB_SUSPEND}*%
X156422400Y-76308200D03*
%TO.P,U1,68,PA9*%
%TO.N,STATUS_B*%
X156422400Y-75808200D03*
%TO.P,U1,69,PA10*%
%TO.N,STATUS_G*%
X156422400Y-75308200D03*
%TO.P,U1,70,PA11*%
%TO.N,STATUS_R*%
X156422400Y-74808200D03*
%TO.P,U1,71,PA12*%
%TO.N,~{USB_RST}*%
X156422400Y-74308200D03*
%TO.P,U1,72,PA13*%
%TO.N,SWDIO*%
X156422400Y-73808200D03*
%TO.P,U1,73,VCAP2*%
%TO.N,CAP2*%
X156422400Y-73308200D03*
%TO.P,U1,74,VSS*%
%TO.N,Earth*%
X156422400Y-72808200D03*
%TO.P,U1,75,VDD*%
%TO.N,3.3V*%
X156422400Y-72308200D03*
D37*
%TO.P,U1,76,PA14*%
%TO.N,SWCLK*%
X154742400Y-70628200D03*
%TO.P,U1,77,PA15*%
%TO.N,unconnected-(U1-Pad77)*%
X154242400Y-70628200D03*
%TO.P,U1,78,PC10*%
%TO.N,SD_DAT2*%
X153742400Y-70628200D03*
%TO.P,U1,79,PC11*%
%TO.N,SD_DAT3*%
X153242400Y-70628200D03*
%TO.P,U1,80,PC12*%
%TO.N,SD_CLK*%
X152742400Y-70628200D03*
%TO.P,U1,81,PD0*%
%TO.N,unconnected-(U1-Pad81)*%
X152242400Y-70628200D03*
%TO.P,U1,82,PD1*%
%TO.N,unconnected-(U1-Pad82)*%
X151742400Y-70628200D03*
%TO.P,U1,83,PD2*%
%TO.N,SD_CMD*%
X151242400Y-70628200D03*
%TO.P,U1,84,PD3*%
%TO.N,unconnected-(U1-Pad84)*%
X150742400Y-70628200D03*
%TO.P,U1,85,PD4*%
%TO.N,unconnected-(U1-Pad85)*%
X150242400Y-70628200D03*
%TO.P,U1,86,PD5*%
%TO.N,unconnected-(U1-Pad86)*%
X149742400Y-70628200D03*
%TO.P,U1,87,PD6*%
%TO.N,MAIN*%
X149242400Y-70628200D03*
%TO.P,U1,88,PD7*%
%TO.N,~{SWITCH}*%
X148742400Y-70628200D03*
%TO.P,U1,89,PB3*%
%TO.N,SWO*%
X148242400Y-70628200D03*
%TO.P,U1,90,PB4*%
%TO.N,unconnected-(U1-Pad90)*%
X147742400Y-70628200D03*
%TO.P,U1,91,PB5*%
%TO.N,unconnected-(U1-Pad91)*%
X147242400Y-70628200D03*
%TO.P,U1,92,PB6*%
%TO.N,BP_SCL*%
X146742400Y-70628200D03*
%TO.P,U1,93,PB7*%
%TO.N,BP_SDA*%
X146242400Y-70628200D03*
%TO.P,U1,94,BOOT0*%
%TO.N,BOOT*%
X145742400Y-70628200D03*
%TO.P,U1,95,PB8*%
%TO.N,unconnected-(U1-Pad95)*%
X145242400Y-70628200D03*
%TO.P,U1,96,PB9*%
%TO.N,unconnected-(U1-Pad96)*%
X144742400Y-70628200D03*
%TO.P,U1,97,PE0*%
%TO.N,unconnected-(U1-Pad97)*%
X144242400Y-70628200D03*
%TO.P,U1,98,PE1*%
%TO.N,unconnected-(U1-Pad98)*%
X143742400Y-70628200D03*
%TO.P,U1,99,VSS*%
%TO.N,Earth*%
X143242400Y-70628200D03*
%TO.P,U1,100,VDD*%
%TO.N,3.3V*%
X142742400Y-70628200D03*
%TD*%
D17*
%TO.P,R31,1*%
%TO.N,Net-(C26-Pad1)*%
X104168000Y-89916000D03*
%TO.P,R31,2*%
%TO.N,Net-(R31-Pad2)*%
X102588000Y-89916000D03*
%TD*%
D35*
%TO.P,C2,1*%
%TO.N,3.3V*%
X156325200Y-87858600D03*
%TO.P,C2,2*%
%TO.N,Earth*%
X158025200Y-87858600D03*
%TD*%
D38*
%TO.P,Q2,1,G*%
%TO.N,MAIN*%
X120148350Y-69276001D03*
%TO.P,Q2,2,S*%
%TO.N,Earth*%
X120148350Y-68326000D03*
%TO.P,Q2,3*%
%TO.N,unconnected-(Q2-Pad3)*%
X120148350Y-67375999D03*
%TO.P,Q2,4*%
%TO.N,unconnected-(Q2-Pad4)*%
X117595650Y-67375999D03*
%TO.P,Q2,5,D*%
%TO.N,Net-(P4-Pad6)*%
X117595650Y-69276001D03*
%TD*%
D39*
%TO.P,P2,1,1*%
%TO.N,/PIN_HARN*%
X173663500Y-62500100D03*
D40*
%TO.P,P2,2,2*%
%TO.N,Earth*%
X173663500Y-58540100D03*
%TD*%
D21*
%TO.P,R4,1*%
%TO.N,STATUS_G*%
X163626800Y-71427400D03*
%TO.P,R4,2*%
%TO.N,Net-(D1-Pad3)*%
X163626800Y-69847400D03*
%TD*%
D20*
%TO.P,U5,1*%
%TO.N,~{SWITCH}*%
X125653800Y-73152000D03*
%TO.P,U5,2,V-*%
%TO.N,Earth*%
X125653800Y-72201999D03*
%TO.P,U5,3,-*%
%TO.N,VCOMP*%
X125653800Y-71251998D03*
%TO.P,U5,4,+*%
%TO.N,VIN_SW*%
X123266200Y-71251998D03*
%TO.P,U5,5,V+*%
%TO.N,VIN*%
X123266200Y-73152000D03*
%TD*%
D32*
%TO.P,Q3,1,G*%
%TO.N,MOTOR1_EN*%
X163510001Y-91484450D03*
%TO.P,Q3,2,S*%
%TO.N,Earth*%
X162560000Y-91484450D03*
%TO.P,Q3,3*%
%TO.N,unconnected-(Q3-Pad3)*%
X161609999Y-91484450D03*
%TO.P,Q3,4*%
%TO.N,unconnected-(Q3-Pad4)*%
X161609999Y-94037150D03*
%TO.P,Q3,5,D*%
%TO.N,Net-(P5-Pad3)*%
X163510001Y-94037150D03*
%TD*%
D35*
%TO.P,C4,1*%
%TO.N,3.3V*%
X138645000Y-77978000D03*
%TO.P,C4,2*%
%TO.N,Earth*%
X136945000Y-77978000D03*
%TD*%
D41*
%TO.P,P4,1,5*%
%TO.N,VIN*%
X101092000Y-60960000D03*
D42*
%TO.P,P4,2,6*%
%TO.N,VIN_SW*%
X106172000Y-60960000D03*
%TO.P,P4,3,5*%
X111252000Y-60960000D03*
%TO.P,P4,4,6*%
%TO.N,Net-(P4-Pad4)*%
X116332000Y-60960000D03*
%TO.P,P4,5,5*%
%TO.N,VIN_SW*%
X121412000Y-60960000D03*
%TO.P,P4,6,6*%
%TO.N,Net-(P4-Pad6)*%
X126492000Y-60960000D03*
%TD*%
D21*
%TO.P,R24,1*%
%TO.N,SDA*%
X114046000Y-80236000D03*
%TO.P,R24,2*%
%TO.N,Net-(R24-Pad2)*%
X114046000Y-81816000D03*
%TD*%
D17*
%TO.P,R18,1*%
%TO.N,~{DROGUE_CONT}*%
X111732000Y-74930000D03*
%TO.P,R18,2*%
%TO.N,3.3V*%
X113312000Y-74930000D03*
%TD*%
D43*
%TO.P,C15,1*%
%TO.N,3.3V*%
X152476200Y-58064400D03*
%TO.P,C15,2*%
%TO.N,Earth*%
X152476200Y-60706000D03*
%TD*%
D34*
%TO.P,D3,1*%
%TO.N,VIN*%
X94805500Y-77832230D03*
%TO.P,D3,2*%
%TO.N,/PIN_SCREW*%
X91122500Y-77832230D03*
%TD*%
D17*
%TO.P,R25,1*%
%TO.N,SCL*%
X115598000Y-78486000D03*
%TO.P,R25,2*%
%TO.N,Net-(R25-Pad2)*%
X114018000Y-78486000D03*
%TD*%
D44*
%TO.P,D6,1*%
%TO.N,/Peripherals/D+*%
X174986252Y-70423999D03*
%TO.P,D6,2*%
%TO.N,Earth*%
X174986252Y-71374000D03*
%TO.P,D6,3*%
%TO.N,/Peripherals/D-*%
X174986252Y-72324001D03*
%TO.P,D6,4*%
%TO.N,5V*%
X177718148Y-72324001D03*
%TO.P,D6,5*%
%TO.N,unconnected-(D6-Pad5)*%
X177718148Y-70423999D03*
%TD*%
D31*
%TO.P,D8,1,1*%
%TO.N,MOTOR3_PWM*%
X159410400Y-92538550D03*
%TO.P,D8,2,2*%
%TO.N,Earth*%
X159410400Y-90087450D03*
%TD*%
D45*
%TO.P,AE1,1,A*%
%TO.N,/Navigation and Control/GPS*%
X115872000Y-82042000D03*
%TO.P,AE1,2,Shield*%
%TO.N,Earth*%
X118872000Y-82042000D03*
D46*
X117372000Y-83517000D03*
X117372000Y-80567000D03*
%TD*%
D47*
%TO.P,P3,1,VCC*%
%TO.N,5V*%
X181678600Y-71404000D03*
%TO.P,P3,2,D-*%
%TO.N,/Peripherals/D-*%
X181678600Y-70754000D03*
%TO.P,P3,3,D+*%
%TO.N,/Peripherals/D+*%
X181678600Y-70104000D03*
%TO.P,P3,4,ID*%
%TO.N,unconnected-(P3-Pad4)*%
X181678600Y-69454000D03*
%TO.P,P3,5,GND*%
%TO.N,Earth*%
X181678600Y-68804000D03*
D48*
%TO.P,P3,S1,SHIELD*%
X184378600Y-69104000D03*
D49*
X181678600Y-72604000D03*
D48*
X184378600Y-71104000D03*
D49*
%TO.P,P3,S2,SHIELD*%
X181678600Y-67604000D03*
D50*
X184378600Y-66604000D03*
X184378600Y-73604000D03*
%TD*%
D17*
%TO.P,R2,1*%
%TO.N,Earth*%
X150060600Y-65887600D03*
%TO.P,R2,2*%
%TO.N,Net-(D5-Pad1)*%
X151640600Y-65887600D03*
%TD*%
D35*
%TO.P,C11,1*%
%TO.N,3.3V*%
X138137000Y-82931000D03*
%TO.P,C11,2*%
%TO.N,Earth*%
X136437000Y-82931000D03*
%TD*%
D17*
%TO.P,R15,1*%
%TO.N,VCOMP*%
X116586000Y-75438000D03*
%TO.P,R15,2*%
%TO.N,3.3V*%
X115006000Y-75438000D03*
%TD*%
D51*
%TO.P,P10,P1,DAT2*%
%TO.N,SD_DAT2*%
X173365000Y-82273800D03*
%TO.P,P10,P2,DAT3/CD*%
%TO.N,SD_DAT3*%
X173365000Y-83373800D03*
%TO.P,P10,P3,CMD*%
%TO.N,SD_CMD*%
X173365000Y-84473800D03*
%TO.P,P10,P4,VDD*%
%TO.N,3.3V*%
X173365000Y-85573800D03*
%TO.P,P10,P5,CLK*%
%TO.N,SD_CLK*%
X173365000Y-86673800D03*
%TO.P,P10,P6,VSS*%
%TO.N,Earth*%
X173365000Y-87773800D03*
%TO.P,P10,P7,DAT0*%
%TO.N,SD_DAT0*%
X173365000Y-88873800D03*
%TO.P,P10,P8,DAT1*%
%TO.N,SD_DAT1*%
X173365000Y-89973800D03*
%TO.P,P10,P9,DETECT*%
%TO.N,~{SD_DETECT}*%
X173365000Y-91073800D03*
D52*
%TO.P,P10,SH1,SH1*%
%TO.N,Earth*%
X184365000Y-92453800D03*
%TO.P,P10,SH2,SH2*%
X175365000Y-92453800D03*
%TO.P,P10,SH3,SH3*%
X175365000Y-76303800D03*
%TO.P,P10,SH4,SH4*%
X184365000Y-76303800D03*
%TD*%
D35*
%TO.P,C10,1*%
%TO.N,OSC_OUT*%
X133869800Y-80340200D03*
%TO.P,C10,2*%
%TO.N,Earth*%
X132169800Y-80340200D03*
%TD*%
D24*
%TO.P,C23,1*%
%TO.N,3.3V*%
X132588000Y-85178000D03*
%TO.P,C23,2*%
%TO.N,Earth*%
X132588000Y-83478000D03*
%TD*%
D53*
%TO.P,B1,1,1*%
%TO.N,Earth*%
X138844000Y-90245999D03*
%TO.P,B1,2,2*%
%TO.N,unconnected-(B1-Pad2)*%
X133444000Y-90245999D03*
%TO.P,B1,3,3*%
%TO.N,NRST*%
X138844000Y-87046001D03*
%TO.P,B1,4,4*%
%TO.N,unconnected-(B1-Pad4)*%
X133444000Y-87046001D03*
%TD*%
D26*
%TO.P,P6,1,+12V*%
%TO.N,VIN*%
X155956000Y-98806000D03*
D27*
%TO.P,P6,2,GND*%
%TO.N,MOTOR3_PWM*%
X153949000Y-98806000D03*
%TO.P,P6,3,3*%
%TO.N,Net-(P6-Pad3)*%
X151943000Y-98806000D03*
%TD*%
D21*
%TO.P,R14,1*%
%TO.N,~{SWITCH}*%
X128778000Y-72164000D03*
%TO.P,R14,2*%
%TO.N,3.3V*%
X128778000Y-70584000D03*
%TD*%
D24*
%TO.P,C21,1*%
%TO.N,3.3V*%
X123444000Y-80684000D03*
%TO.P,C21,2*%
%TO.N,Earth*%
X123444000Y-82384000D03*
%TD*%
D21*
%TO.P,R32,1*%
%TO.N,3.3V*%
X177546000Y-95786000D03*
%TO.P,R32,2*%
%TO.N,~{SD_DETECT}*%
X177546000Y-94206000D03*
%TD*%
D17*
%TO.P,R28,1*%
%TO.N,Net-(R28-Pad1)*%
X98834000Y-81026000D03*
%TO.P,R28,2*%
%TO.N,GPS_TIM*%
X97254000Y-81026000D03*
%TD*%
D38*
%TO.P,Q1,1,G*%
%TO.N,DROGUE*%
X110750350Y-68514001D03*
%TO.P,Q1,2,S*%
%TO.N,Earth*%
X110750350Y-67564000D03*
%TO.P,Q1,3*%
%TO.N,unconnected-(Q1-Pad3)*%
X110750350Y-66613999D03*
%TO.P,Q1,4*%
%TO.N,unconnected-(Q1-Pad4)*%
X108197650Y-66613999D03*
%TO.P,Q1,5,D*%
%TO.N,Net-(P4-Pad4)*%
X108197650Y-68514001D03*
%TD*%
D21*
%TO.P,R6,1*%
%TO.N,STATUS_R*%
X161874200Y-71402000D03*
%TO.P,R6,2*%
%TO.N,Net-(D1-Pad4)*%
X161874200Y-69822000D03*
%TD*%
%TO.P,R9,1*%
%TO.N,Earth*%
X126746000Y-69624000D03*
%TO.P,R9,2*%
%TO.N,VIN_SW*%
X126746000Y-68044000D03*
%TD*%
D54*
%TO.P,L1,1*%
%TO.N,/Navigation and Control/GPS*%
X106883200Y-90424000D03*
%TO.P,L1,2*%
%TO.N,Net-(C26-Pad1)*%
X108000800Y-90424000D03*
%TD*%
D35*
%TO.P,C20,1*%
%TO.N,Net-(C20-Pad1)*%
X127596000Y-83566000D03*
%TO.P,C20,2*%
%TO.N,Earth*%
X125896000Y-83566000D03*
%TD*%
D55*
%TO.P,U9,1,GND*%
%TO.N,Earth*%
X101930000Y-78404000D03*
D56*
%TO.P,U9,2,TXD*%
%TO.N,Net-(R26-Pad1)*%
X101930000Y-79504000D03*
%TO.P,U9,3,RXD*%
%TO.N,Net-(R27-Pad1)*%
X101930000Y-80604000D03*
%TO.P,U9,4,TIMEPULSE*%
%TO.N,Net-(R28-Pad1)*%
X101930000Y-81704000D03*
%TO.P,U9,5,EXTINT*%
%TO.N,Net-(R23-Pad2)*%
X101930000Y-82804000D03*
%TO.P,U9,6,V_BCKP*%
%TO.N,/Navigation and Control/3V_BAK*%
X101930000Y-83904000D03*
%TO.P,U9,7,VCC_IO*%
%TO.N,3.3V*%
X101930000Y-85004000D03*
%TO.P,U9,8,VCC*%
X101930000Y-86104000D03*
D55*
%TO.P,U9,9,~{RESET}*%
%TO.N,Net-(R21-Pad2)*%
X101930000Y-87204000D03*
%TO.P,U9,10,GND*%
%TO.N,Earth*%
X111430000Y-87204000D03*
D56*
%TO.P,U9,11,RF_IN*%
%TO.N,/Navigation and Control/GPS*%
X111430000Y-86104000D03*
%TO.P,U9,12,GND*%
%TO.N,Earth*%
X111430000Y-85004000D03*
%TO.P,U9,13,LNA_EN*%
%TO.N,unconnected-(U9-Pad13)*%
X111430000Y-83904000D03*
%TO.P,U9,14,VCC_RF*%
%TO.N,Net-(R31-Pad2)*%
X111430000Y-82804000D03*
%TO.P,U9,15,RESERVED*%
%TO.N,unconnected-(U9-Pad15)*%
X111430000Y-81704000D03*
%TO.P,U9,16,SDA*%
%TO.N,Net-(R24-Pad2)*%
X111430000Y-80604000D03*
%TO.P,U9,17,SCL*%
%TO.N,Net-(R25-Pad2)*%
X111430000Y-79504000D03*
D55*
%TO.P,U9,18,~{SAFEBOOT}*%
%TO.N,Net-(R22-Pad2)*%
X111430000Y-78404000D03*
%TD*%
D57*
%TO.P,U11,1,VDDIO*%
%TO.N,3.3V*%
X134057700Y-70078100D03*
%TO.P,U11,2,SCK*%
%TO.N,BP_SCL*%
X133557700Y-70078100D03*
D58*
%TO.P,U11,3,VSS*%
%TO.N,Earth*%
X133045200Y-70340600D03*
%TO.P,U11,4,SDI*%
%TO.N,BP_SDA*%
X133045200Y-70840600D03*
%TO.P,U11,5,SDO*%
%TO.N,Earth*%
X133045200Y-71340600D03*
D57*
%TO.P,U11,6,CSB*%
%TO.N,3.3V*%
X133557700Y-71603100D03*
%TO.P,U11,7,INT*%
%TO.N,BP_INT*%
X134057700Y-71603100D03*
D58*
%TO.P,U11,8,VSS*%
%TO.N,Earth*%
X134570200Y-71340600D03*
%TO.P,U11,9,VSS*%
X134570200Y-70840600D03*
%TO.P,U11,10,VDD*%
%TO.N,3.3V*%
X134570200Y-70340600D03*
%TD*%
D26*
%TO.P,P5,1,+12V*%
%TO.N,VIN*%
X164592000Y-98806000D03*
D27*
%TO.P,P5,2,GND*%
%TO.N,MOTOR1_PWM*%
X162585000Y-98806000D03*
%TO.P,P5,3,3*%
%TO.N,Net-(P5-Pad3)*%
X160579000Y-98806000D03*
%TD*%
D59*
%TO.P,U3,1,DCD*%
%TO.N,unconnected-(U3-Pad1)*%
X171320200Y-72416800D03*
%TO.P,U3,2,RI*%
%TO.N,unconnected-(U3-Pad2)*%
X171320200Y-71916800D03*
%TO.P,U3,3,GND*%
%TO.N,Earth*%
X171320200Y-71416800D03*
%TO.P,U3,4,D+*%
%TO.N,/Peripherals/D+*%
X171320200Y-70916800D03*
%TO.P,U3,5,D-*%
%TO.N,/Peripherals/D-*%
X171320200Y-70416800D03*
%TO.P,U3,6,VDD*%
%TO.N,unconnected-(U3-Pad6)*%
X171320200Y-69916800D03*
%TO.P,U3,7,REGIN*%
%TO.N,5V*%
X171320200Y-69416800D03*
D60*
%TO.P,U3,8,VBUS*%
X170230200Y-68326800D03*
%TO.P,U3,9,~{RST}*%
%TO.N,~{USB_RST}*%
X169730200Y-68326800D03*
%TO.P,U3,10,NC*%
%TO.N,unconnected-(U3-Pad10)*%
X169230200Y-68326800D03*
%TO.P,U3,11,~{SUSPEND}*%
%TO.N,~{USB_SUSPEND}*%
X168730200Y-68326800D03*
%TO.P,U3,12,SUSPEND*%
%TO.N,unconnected-(U3-Pad12)*%
X168230200Y-68326800D03*
%TO.P,U3,13,NC@1*%
%TO.N,unconnected-(U3-Pad13)*%
X167730200Y-68326800D03*
%TO.P,U3,14,NC@2*%
%TO.N,unconnected-(U3-Pad14)*%
X167230200Y-68326800D03*
D59*
%TO.P,U3,15,NC@3*%
%TO.N,unconnected-(U3-Pad15)*%
X166140200Y-69416800D03*
%TO.P,U3,16,NC@4*%
%TO.N,unconnected-(U3-Pad16)*%
X166140200Y-69916800D03*
%TO.P,U3,17,NC@5*%
%TO.N,unconnected-(U3-Pad17)*%
X166140200Y-70416800D03*
%TO.P,U3,18,NC/VPP*%
%TO.N,unconnected-(U3-Pad18)*%
X166140200Y-70916800D03*
%TO.P,U3,19,NC@6*%
%TO.N,unconnected-(U3-Pad19)*%
X166140200Y-71416800D03*
%TO.P,U3,20,NC@7*%
%TO.N,unconnected-(U3-Pad20)*%
X166140200Y-71916800D03*
%TO.P,U3,21,NC@8*%
%TO.N,unconnected-(U3-Pad21)*%
X166140200Y-72416800D03*
D60*
%TO.P,U3,22,NC@9*%
%TO.N,unconnected-(U3-Pad22)*%
X167230200Y-73506800D03*
%TO.P,U3,23,CTS*%
%TO.N,unconnected-(U3-Pad23)*%
X167730200Y-73506800D03*
%TO.P,U3,24,RTS*%
%TO.N,unconnected-(U3-Pad24)*%
X168230200Y-73506800D03*
%TO.P,U3,25,RXD*%
%TO.N,RX_USB*%
X168730200Y-73506800D03*
%TO.P,U3,26,TXD*%
%TO.N,TX_USB*%
X169230200Y-73506800D03*
%TO.P,U3,27,DSR*%
%TO.N,unconnected-(U3-Pad27)*%
X169730200Y-73506800D03*
%TO.P,U3,28,DTR*%
%TO.N,unconnected-(U3-Pad28)*%
X170230200Y-73506800D03*
D61*
%TO.P,U3,29,PAD*%
%TO.N,Earth*%
X168730200Y-70916800D03*
%TD*%
D35*
%TO.P,C5,1*%
%TO.N,3.3V*%
X158433400Y-70231000D03*
%TO.P,C5,2*%
%TO.N,Earth*%
X160133400Y-70231000D03*
%TD*%
D24*
%TO.P,C8,1*%
%TO.N,NRST*%
X140970000Y-87034000D03*
%TO.P,C8,2*%
%TO.N,Earth*%
X140970000Y-88734000D03*
%TD*%
D17*
%TO.P,R19,1*%
%TO.N,SCL*%
X127282000Y-76962000D03*
%TO.P,R19,2*%
%TO.N,3.3V*%
X125702000Y-76962000D03*
%TD*%
D41*
%TO.P,P1,1,5*%
%TO.N,Earth*%
X94742000Y-68326000D03*
D42*
%TO.P,P1,2,6*%
%TO.N,/PIN_SCREW*%
X94742000Y-73406000D03*
%TD*%
D62*
%TO.P,U4,1,\u002ACE*%
%TO.N,~{FLASH_SS}*%
X168059100Y-96069350D03*
%TO.P,U4,2,SO*%
%TO.N,FLASH_MISO*%
X168059100Y-97339350D03*
%TO.P,U4,3,\u002AWP*%
%TO.N,~{FLASH_WP}*%
X168059100Y-98609350D03*
%TO.P,U4,4,VSS*%
%TO.N,Earth*%
X168059100Y-99879350D03*
%TO.P,U4,5,SI*%
%TO.N,FLASH_MOSI*%
X175348900Y-99879350D03*
%TO.P,U4,6,SCK*%
%TO.N,FLASH_SCK*%
X175348900Y-98609350D03*
%TO.P,U4,7,\u002AHOLD*%
%TO.N,~{FLASH_HOLD}*%
X175348900Y-97339350D03*
%TO.P,U4,8,VDD*%
%TO.N,3.3V*%
X175348900Y-96069350D03*
%TD*%
D63*
%TO.P,D5,1,1*%
%TO.N,Net-(D5-Pad1)*%
X153593800Y-65913000D03*
%TO.P,D5,2,2*%
%TO.N,3.3V*%
X156641800Y-65913000D03*
%TD*%
D17*
%TO.P,R3,1*%
%TO.N,3.3V*%
X169720200Y-66268600D03*
%TO.P,R3,2*%
%TO.N,~{USB_RST}*%
X171300200Y-66268600D03*
%TD*%
D35*
%TO.P,C25,1*%
%TO.N,3.3V*%
X133668400Y-73202800D03*
%TO.P,C25,2*%
%TO.N,Earth*%
X135368400Y-73202800D03*
%TD*%
%TO.P,C24,1*%
%TO.N,3.3V*%
X138060800Y-71374000D03*
%TO.P,C24,2*%
%TO.N,Earth*%
X136360800Y-71374000D03*
%TD*%
D21*
%TO.P,R11,1*%
%TO.N,SWCLK*%
X139954000Y-66901000D03*
%TO.P,R11,2*%
%TO.N,3.3V*%
X139954000Y-68481000D03*
%TD*%
D24*
%TO.P,C19,1*%
%TO.N,MAIN*%
X122174000Y-68922000D03*
%TO.P,C19,2*%
%TO.N,Earth*%
X122174000Y-67222000D03*
%TD*%
D26*
%TO.P,P7,1,+12V*%
%TO.N,VIN*%
X147320000Y-98806000D03*
D27*
%TO.P,P7,2,GND*%
%TO.N,MOTOR2_PWM*%
X145313000Y-98806000D03*
%TO.P,P7,3,3*%
%TO.N,Net-(P7-Pad3)*%
X143307000Y-98806000D03*
%TD*%
D21*
%TO.P,R1,1*%
%TO.N,STATUS_B*%
X163423600Y-66474400D03*
%TO.P,R1,2*%
%TO.N,Net-(D1-Pad2)*%
X163423600Y-64894400D03*
%TD*%
D43*
%TO.P,C14,1*%
%TO.N,VIN*%
X164998400Y-58293000D03*
%TO.P,C14,2*%
%TO.N,Earth*%
X164998400Y-60934600D03*
%TD*%
D35*
%TO.P,C13,1*%
%TO.N,CAP2*%
X158535000Y-73075800D03*
%TO.P,C13,2*%
%TO.N,Earth*%
X160235000Y-73075800D03*
%TD*%
D20*
%TO.P,U6,1*%
%TO.N,~{MAIN_CONT}*%
X116763800Y-73340001D03*
%TO.P,U6,2,V-*%
%TO.N,Earth*%
X116763800Y-72390000D03*
%TO.P,U6,3,-*%
%TO.N,VCOMP*%
X116763800Y-71439999D03*
%TO.P,U6,4,+*%
%TO.N,Net-(P4-Pad6)*%
X114376200Y-71439999D03*
%TO.P,U6,5,V+*%
%TO.N,VIN*%
X114376200Y-73340001D03*
%TD*%
D17*
%TO.P,R22,1*%
%TO.N,~{GPS_SBOOT}*%
X109502000Y-76454000D03*
%TO.P,R22,2*%
%TO.N,Net-(R22-Pad2)*%
X107922000Y-76454000D03*
%TD*%
D35*
%TO.P,C16,1*%
%TO.N,5V*%
X173190800Y-68427600D03*
%TO.P,C16,2*%
%TO.N,Earth*%
X174890800Y-68427600D03*
%TD*%
D32*
%TO.P,Q4,1,G*%
%TO.N,MOTOR3_EN*%
X155991601Y-92068650D03*
%TO.P,Q4,2,S*%
%TO.N,Earth*%
X155041600Y-92068650D03*
%TO.P,Q4,3*%
%TO.N,unconnected-(Q4-Pad3)*%
X154091599Y-92068650D03*
%TO.P,Q4,4*%
%TO.N,unconnected-(Q4-Pad4)*%
X154091599Y-94621350D03*
%TO.P,Q4,5,D*%
%TO.N,Net-(P6-Pad3)*%
X155991601Y-94621350D03*
%TD*%
D21*
%TO.P,R30,1*%
%TO.N,BP_SDA*%
X131064000Y-71600000D03*
%TO.P,R30,2*%
%TO.N,3.3V*%
X131064000Y-73180000D03*
%TD*%
D17*
%TO.P,R10,1*%
%TO.N,SWDIO*%
X136680000Y-66040000D03*
%TO.P,R10,2*%
%TO.N,3.3V*%
X135100000Y-66040000D03*
%TD*%
D31*
%TO.P,D10,1,1*%
%TO.N,MOTOR4_PWM*%
X141884400Y-93935550D03*
%TO.P,D10,2,2*%
%TO.N,Earth*%
X141884400Y-91484450D03*
%TD*%
D17*
%TO.P,R29,1*%
%TO.N,BP_SCL*%
X130528000Y-66294000D03*
%TO.P,R29,2*%
%TO.N,3.3V*%
X132108000Y-66294000D03*
%TD*%
D24*
%TO.P,C12,1*%
%TO.N,CAP1*%
X153924000Y-88405600D03*
%TO.P,C12,2*%
%TO.N,Earth*%
X153924000Y-90105600D03*
%TD*%
D35*
%TO.P,C26,1*%
%TO.N,Net-(C26-Pad1)*%
X109640000Y-89154000D03*
%TO.P,C26,2*%
%TO.N,Earth*%
X111340000Y-89154000D03*
%TD*%
D64*
%TO.P,Y1,1,1*%
%TO.N,OSC_IN*%
X134728600Y-76646200D03*
%TO.P,Y1,2*%
%TO.N,unconnected-(Y1-Pad2)*%
X132428600Y-76646200D03*
%TO.P,Y1,3,3*%
%TO.N,OSC_OUT*%
X132428600Y-78446200D03*
%TO.P,Y1,4*%
%TO.N,unconnected-(Y1-Pad4)*%
X134728600Y-78446200D03*
%TD*%
D24*
%TO.P,C18,1*%
%TO.N,DROGUE*%
X114554000Y-69088000D03*
%TO.P,C18,2*%
%TO.N,Earth*%
X114554000Y-67388000D03*
%TD*%
D17*
%TO.P,R26,1*%
%TO.N,Net-(R26-Pad1)*%
X99342000Y-77216000D03*
%TO.P,R26,2*%
%TO.N,GPS_TX*%
X97762000Y-77216000D03*
%TD*%
D35*
%TO.P,C7,1*%
%TO.N,3.3V*%
X138111600Y-81153000D03*
%TO.P,C7,2*%
%TO.N,Earth*%
X136411600Y-81153000D03*
%TD*%
D17*
%TO.P,R16,1*%
%TO.N,VCOMP*%
X118590000Y-75692000D03*
%TO.P,R16,2*%
%TO.N,Earth*%
X120170000Y-75692000D03*
%TD*%
%TO.P,R27,1*%
%TO.N,Net-(R27-Pad1)*%
X98834000Y-78994000D03*
%TO.P,R27,2*%
%TO.N,GPS_RX*%
X97254000Y-78994000D03*
%TD*%
D32*
%TO.P,Q5,1,G*%
%TO.N,MOTOR2_EN*%
X146746001Y-91052650D03*
%TO.P,Q5,2,S*%
%TO.N,Earth*%
X145796000Y-91052650D03*
%TO.P,Q5,3*%
%TO.N,unconnected-(Q5-Pad3)*%
X144845999Y-91052650D03*
%TO.P,Q5,4*%
%TO.N,unconnected-(Q5-Pad4)*%
X144845999Y-93605350D03*
%TO.P,Q5,5,D*%
%TO.N,Net-(P7-Pad3)*%
X146746001Y-93605350D03*
%TD*%
D65*
%TO.N,Earth*%
X137541000Y-72771000D03*
X171170600Y-73914000D03*
D66*
X101930000Y-76124000D03*
X162001200Y-89941400D03*
D65*
X142441800Y-76808200D03*
X118110000Y-72390000D03*
D66*
X120116600Y-98780600D03*
D65*
X118872000Y-68326000D03*
X109671389Y-85004000D03*
D66*
X117856000Y-85725000D03*
X132134600Y-97735400D03*
X156394150Y-90087450D03*
D65*
X135237600Y-71340600D03*
X131038600Y-79273400D03*
D66*
X158572200Y-62077600D03*
D65*
X139700000Y-88646000D03*
X169614650Y-99879350D03*
X136652000Y-90932000D03*
D66*
X96012000Y-85090000D03*
D65*
X128397000Y-78562200D03*
X136437000Y-82003000D03*
X143013800Y-66764800D03*
X124416000Y-83356000D03*
D66*
X109810000Y-87204000D03*
X97218500Y-92011500D03*
D65*
X170205400Y-91871800D03*
X109220000Y-71882000D03*
X166037200Y-64970600D03*
X120170000Y-76680000D03*
X173939200Y-71374000D03*
X139230100Y-80886300D03*
X109474000Y-67564000D03*
X126934001Y-72201999D03*
X160133400Y-71133600D03*
D66*
X179808800Y-92453800D03*
D65*
X171644600Y-87773800D03*
X150291800Y-91617800D03*
X140462000Y-94234000D03*
X117372000Y-82012000D03*
%TO.N,3.3V*%
X121412000Y-74422000D03*
X157099000Y-70891400D03*
X155892500Y-86017100D03*
D66*
X158851600Y-59740800D03*
D65*
X128778000Y-81788000D03*
X171678600Y-85572600D03*
X135475600Y-70340600D03*
X132283200Y-73202800D03*
X114300000Y-74422000D03*
X143764000Y-84582000D03*
X147001600Y-66790200D03*
D66*
X103972000Y-85004000D03*
D65*
X124714000Y-76962000D03*
X169720200Y-65179000D03*
X142748000Y-77724000D03*
X175348900Y-95084900D03*
D66*
X132038600Y-91735400D03*
D65*
X139400400Y-81808200D03*
X169646600Y-93954600D03*
X124714000Y-82042000D03*
%TO.N,NRST*%
X144449800Y-72974200D03*
X142087600Y-64770000D03*
%TO.N,SWCLK*%
X140157200Y-65278000D03*
%TO.N,SDA*%
X152704800Y-88239600D03*
X119634000Y-79502000D03*
X135128000Y-84582000D03*
X128524000Y-76708000D03*
X140208000Y-86080600D03*
%TO.N,SCL*%
X139471400Y-85547200D03*
X133858000Y-84074000D03*
X120396000Y-78994000D03*
X128524000Y-77724000D03*
X152044400Y-87604600D03*
%TO.N,VIN*%
X112587999Y-73340001D03*
X121666000Y-73152000D03*
D67*
X167195500Y-60490100D03*
D66*
%TO.N,5V*%
X177698400Y-73380600D03*
X171296800Y-68326800D03*
D65*
%TO.N,DROGUE*%
X114554000Y-70104000D03*
X138938000Y-74930000D03*
%TO.N,MAIN*%
X120148350Y-70605650D03*
X149860000Y-73914000D03*
%TO.N,/Peripherals/D+*%
X172466000Y-71348600D03*
X173674999Y-70423999D03*
%TO.N,SWO*%
X147751800Y-66319400D03*
%TO.N,MOTOR1_EN*%
X158826200Y-85191600D03*
X158496000Y-81026000D03*
%TO.N,MOTOR3_EN*%
X158496000Y-82042000D03*
X163652200Y-86537800D03*
%TO.N,~{USB_RST}*%
X158279600Y-74282800D03*
X163677600Y-73710800D03*
%TO.N,~{SWITCH}*%
X148590000Y-73152000D03*
X128778000Y-73406000D03*
%TO.N,~{MAIN_CONT}*%
X139446000Y-73025000D03*
X136906000Y-73660000D03*
%TO.N,~{DROGUE_CONT}*%
X137109680Y-75641680D03*
X113030000Y-76200000D03*
%TO.N,~{GPS_RST}*%
X145288000Y-88900000D03*
X125222000Y-85344000D03*
%TO.N,~{GPS_SBOOT}*%
X136652000Y-76454000D03*
X118872000Y-78232000D03*
%TO.N,GPS_INT*%
X138430000Y-84582000D03*
X127254000Y-85852000D03*
%TO.N,GPS_TX*%
X139192000Y-83312000D03*
X117856000Y-77470000D03*
%TO.N,GPS_RX*%
X139954000Y-82804000D03*
X117602000Y-76454000D03*
%TO.N,GPS_TIM*%
X145542000Y-89916000D03*
X118618000Y-98552000D03*
%TO.N,BP_SDA*%
X131826000Y-70612000D03*
X143256000Y-71882000D03*
%TO.N,FLASH_MISO*%
X158543000Y-83308200D03*
X160782000Y-85090000D03*
%TO.N,FLASH_MOSI*%
X159512000Y-83134200D03*
X160451800Y-84353400D03*
%TO.N,W_IO0*%
X138684000Y-91948000D03*
X148031200Y-88392000D03*
%TO.N,W_IO1*%
X149742400Y-88636600D03*
X140462000Y-92964000D03*
%TO.N,W_IO2*%
X151968200Y-94792800D03*
X152476200Y-92456000D03*
%TO.N,W_IO3*%
X139446000Y-93548200D03*
X150583900Y-88963500D03*
%TO.N,~{FLASH_WP}*%
X161569400Y-84658200D03*
X159308800Y-82092800D03*
%TO.N,W_IO4*%
X148717000Y-88874600D03*
X140766800Y-92075000D03*
%TO.N,W_IO5*%
X153085800Y-93980000D03*
X153085800Y-91744800D03*
%TO.N,RX_USB*%
X168376600Y-75260200D03*
X166928800Y-78282800D03*
%TO.N,TX_USB*%
X168706800Y-77698600D03*
X169037000Y-76225400D03*
%TO.N,IMU_INT*%
X131318000Y-84582000D03*
X137160000Y-84074000D03*
%TO.N,SD_DAT2*%
X154305000Y-71885800D03*
X173863000Y-81153000D03*
%TO.N,SD_DAT3*%
X172720000Y-80822800D03*
X153339800Y-72466200D03*
%TO.N,SD_CMD*%
X151242400Y-71998200D03*
X171196000Y-79832200D03*
%TO.N,SD_CLK*%
X152527000Y-71983600D03*
X171805600Y-80518000D03*
%TD*%
D68*
%TO.N,Earth*%
X143484600Y-69342000D02*
X144602200Y-69342000D01*
X124416000Y-83356000D02*
X124880000Y-83820000D01*
X138844000Y-89502000D02*
X139700000Y-88646000D01*
D69*
X155041600Y-92068650D02*
X155041600Y-90271600D01*
D70*
X173365000Y-87773800D02*
X171644600Y-87773800D01*
D69*
X158572200Y-62077600D02*
X161112200Y-62077600D01*
X101930000Y-78404000D02*
X101930000Y-76124000D01*
D68*
X160133400Y-71133600D02*
X160133400Y-71895600D01*
X136945000Y-77278600D02*
X137083800Y-77139800D01*
X139230100Y-80886300D02*
X138633200Y-80289400D01*
X136437000Y-82931000D02*
X136437000Y-82003000D01*
D69*
X161975800Y-89941400D02*
X159435800Y-89941400D01*
D68*
X174986252Y-71374000D02*
X173939200Y-71374000D01*
X143242400Y-69584200D02*
X143484600Y-69342000D01*
X154990800Y-87579200D02*
X154990800Y-90220800D01*
D69*
X158025200Y-87858600D02*
X158025200Y-90056600D01*
D70*
X146507200Y-62545850D02*
X148880450Y-62545850D01*
D68*
X139700000Y-88646000D02*
X140970000Y-88646000D01*
D70*
X183007000Y-71342000D02*
X183007000Y-72059800D01*
X148880450Y-62545850D02*
X150060600Y-63726000D01*
X181678600Y-68804000D02*
X183053200Y-68804000D01*
D68*
X127268700Y-79186500D02*
X127336620Y-79254420D01*
X158304600Y-71895600D02*
X160133400Y-71895600D01*
X126468700Y-81809000D02*
X126468700Y-81379500D01*
X126934001Y-69784001D02*
X126746000Y-69596000D01*
X122174000Y-67222000D02*
X123864000Y-67222000D01*
D69*
X115510600Y-85735400D02*
X115510600Y-84895400D01*
D70*
X174865400Y-68263400D02*
X174828200Y-68300600D01*
D68*
X168730200Y-70916800D02*
X168730200Y-70940200D01*
X134570200Y-71340600D02*
X134570200Y-71224600D01*
D71*
X117443600Y-82042000D02*
X117372000Y-82113600D01*
D72*
X175365000Y-92453800D02*
X178615000Y-92453800D01*
X179808800Y-92453800D02*
X183898200Y-92453800D01*
D68*
X154242400Y-85988200D02*
X154242400Y-87161000D01*
D69*
X153847800Y-62077600D02*
X158572200Y-62077600D01*
D68*
X133045200Y-70340600D02*
X133238522Y-70340600D01*
X121158000Y-68072000D02*
X121158000Y-67564000D01*
X176784000Y-100584000D02*
X170319300Y-100584000D01*
X130505200Y-77812000D02*
X130505200Y-78740000D01*
X126934001Y-72201999D02*
X126934001Y-69784001D01*
D71*
X111340000Y-89154000D02*
X111340000Y-87464000D01*
D69*
X155225750Y-90087450D02*
X154044650Y-90087450D01*
X137414000Y-90170000D02*
X138938000Y-90170000D01*
X162001200Y-89941400D02*
X161975800Y-89941400D01*
D70*
X182437400Y-67604000D02*
X183053200Y-68219800D01*
X183245000Y-71104000D02*
X183007000Y-71342000D01*
D68*
X136085200Y-71340600D02*
X136169400Y-71424800D01*
D72*
X92900500Y-92011500D02*
X97218500Y-92011500D01*
D68*
X144830800Y-66979800D02*
X144653000Y-66802000D01*
D69*
X162052000Y-89941400D02*
X162001200Y-89941400D01*
X112776000Y-67282000D02*
X114526000Y-67282000D01*
X114526000Y-67282000D02*
X114554000Y-67310000D01*
D68*
X133238522Y-70340600D02*
X133653800Y-70755878D01*
X136448800Y-81153000D02*
X137312400Y-80289400D01*
X134570200Y-71340600D02*
X135237600Y-71340600D01*
D69*
X115510600Y-99735400D02*
X119161800Y-99735400D01*
D68*
X168730200Y-70940200D02*
X171170600Y-73380600D01*
X128397000Y-78562200D02*
X128397000Y-79248000D01*
X154711400Y-87299800D02*
X154990800Y-87579200D01*
D69*
X130310600Y-97735400D02*
X132134600Y-97735400D01*
D68*
X141884400Y-91484450D02*
X141884400Y-92811600D01*
D73*
X169652950Y-91319350D02*
X170205400Y-91871800D01*
X150291800Y-91617800D02*
X150291800Y-90728800D01*
D70*
X184272400Y-68804000D02*
X184353200Y-68884800D01*
D69*
X116763800Y-72390000D02*
X118110000Y-72390000D01*
X111430000Y-87204000D02*
X109810000Y-87204000D01*
D68*
X141732000Y-87884000D02*
X141732000Y-86614000D01*
X136437000Y-81293600D02*
X136372600Y-81229200D01*
D71*
X117372000Y-80567000D02*
X117372000Y-82012000D01*
D68*
X139801600Y-76835000D02*
X140487400Y-76835000D01*
X141986000Y-86360000D02*
X142748000Y-86360000D01*
X170319300Y-100584000D02*
X169614650Y-99879350D01*
X143242400Y-70628200D02*
X143242400Y-69584200D01*
X169918000Y-71416800D02*
X169900600Y-71399400D01*
D69*
X155041600Y-90271600D02*
X155225750Y-90087450D01*
D68*
X142087600Y-66764800D02*
X143013800Y-66764800D01*
D73*
X146037780Y-91935780D02*
X145796000Y-91694000D01*
D68*
X133399800Y-71070200D02*
X133653800Y-71070200D01*
X170569000Y-71416800D02*
X169918000Y-71416800D01*
X136398000Y-72898000D02*
X135382000Y-72898000D01*
X166037200Y-66141600D02*
X166037200Y-64970600D01*
D69*
X136652000Y-90932000D02*
X137414000Y-90170000D01*
D68*
X134570200Y-70915800D02*
X134415800Y-71070200D01*
X133653800Y-71070200D02*
X134415800Y-71070200D01*
X124880000Y-83820000D02*
X125984000Y-83820000D01*
X139496800Y-77139800D02*
X139801600Y-76835000D01*
X135237600Y-71340600D02*
X136085200Y-71340600D01*
X134570200Y-71070200D02*
X134570200Y-71349600D01*
X139652000Y-81308200D02*
X139230100Y-80886300D01*
D73*
X149973820Y-91935780D02*
X150291800Y-91617800D01*
D69*
X159410400Y-90087450D02*
X157994350Y-90087450D01*
D70*
X150060600Y-63726000D02*
X150060600Y-65887600D01*
D68*
X171320200Y-71416800D02*
X170569000Y-71416800D01*
X134570200Y-70840600D02*
X134570200Y-71070200D01*
X177546000Y-99088000D02*
X177546000Y-99822000D01*
D69*
X119161800Y-99735400D02*
X120116600Y-98780600D01*
D68*
X133045200Y-71340600D02*
X133129400Y-71340600D01*
D69*
X120148350Y-68326000D02*
X118872000Y-68326000D01*
D68*
X128009580Y-79254420D02*
X128016000Y-79248000D01*
X120170000Y-75692000D02*
X120170000Y-76680000D01*
D69*
X110750350Y-67564000D02*
X109474000Y-67564000D01*
D68*
X129794000Y-83400000D02*
X132500000Y-83400000D01*
X140970000Y-88646000D02*
X141732000Y-87884000D01*
D72*
X183898200Y-92453800D02*
X183997600Y-92354400D01*
D68*
X171170600Y-73380600D02*
X171170600Y-73914000D01*
X126468700Y-82573300D02*
X126238000Y-82804000D01*
D69*
X111430000Y-85004000D02*
X109671389Y-85004000D01*
D68*
X127254000Y-81356200D02*
X127254000Y-81788000D01*
D70*
X179360200Y-67604000D02*
X178638200Y-68326000D01*
D68*
X126468700Y-81379500D02*
X126619000Y-81229200D01*
X136945000Y-77978000D02*
X136945000Y-77278600D01*
X133129400Y-71340600D02*
X133399800Y-71070200D01*
X136525000Y-72771000D02*
X136398000Y-72898000D01*
D69*
X157994350Y-90087450D02*
X156394150Y-90087450D01*
D68*
X143013800Y-66764800D02*
X143953600Y-66764800D01*
D69*
X162560000Y-91484450D02*
X162560000Y-90449400D01*
D73*
X149973820Y-91935780D02*
X146037780Y-91935780D01*
D68*
X133653800Y-70755878D02*
X133653800Y-71070200D01*
D69*
X162560000Y-90449400D02*
X162052000Y-89941400D01*
D68*
X138633200Y-80289400D02*
X137312400Y-80289400D01*
D72*
X92900500Y-83248500D02*
X94170500Y-83248500D01*
D71*
X117372000Y-82113600D02*
X117372000Y-83383600D01*
D69*
X136652000Y-92195650D02*
X136652000Y-90932000D01*
D68*
X127268700Y-78719000D02*
X127268700Y-79186500D01*
D70*
X183053200Y-68219800D02*
X183053200Y-68804000D01*
D68*
X157392000Y-72808200D02*
X158304600Y-71895600D01*
D72*
X184378600Y-73604000D02*
X184378600Y-76276200D01*
D69*
X101930000Y-76124000D02*
X102616000Y-75438000D01*
D71*
X117372000Y-82012000D02*
X117372000Y-82113600D01*
D68*
X120904000Y-68326000D02*
X121158000Y-68072000D01*
D69*
X156063950Y-90087450D02*
X155225750Y-90087450D01*
X154044650Y-90087450D02*
X154025600Y-90068400D01*
D68*
X137541000Y-72771000D02*
X136525000Y-72771000D01*
X126619000Y-81229200D02*
X127127000Y-81229200D01*
D69*
X163587400Y-62040800D02*
X164312600Y-61315600D01*
D72*
X175365000Y-76303800D02*
X184325600Y-76303800D01*
D68*
X123444000Y-82384000D02*
X124416000Y-83356000D01*
X143953600Y-66764800D02*
X143992600Y-66725800D01*
X136437000Y-82003000D02*
X136437000Y-81293600D01*
X134570200Y-71224600D02*
X134415800Y-71070200D01*
X160133400Y-70231000D02*
X160133400Y-71133600D01*
D69*
X110667800Y-71882000D02*
X109220000Y-71882000D01*
X115510600Y-85735400D02*
X117830600Y-85725000D01*
D68*
X141884400Y-92811600D02*
X140462000Y-94234000D01*
D70*
X181678600Y-67604000D02*
X179360200Y-67604000D01*
D68*
X131038600Y-79273400D02*
X132105400Y-80340200D01*
X130505200Y-78740000D02*
X131038600Y-79273400D01*
D70*
X183053200Y-68804000D02*
X184272400Y-68804000D01*
D69*
X156394150Y-90087450D02*
X156063950Y-90087450D01*
D68*
X126468700Y-81809000D02*
X126468700Y-82573300D01*
D69*
X110750350Y-67564000D02*
X112522000Y-67564000D01*
D68*
X132500000Y-83400000D02*
X132588000Y-83312000D01*
D70*
X182448200Y-72618600D02*
X181813200Y-72618600D01*
D68*
X160133400Y-71895600D02*
X160133400Y-73038600D01*
D70*
X183007000Y-72059800D02*
X182448200Y-72618600D01*
D68*
X177546000Y-99822000D02*
X176784000Y-100584000D01*
D70*
X174865400Y-66522600D02*
X174865400Y-68263400D01*
D73*
X145796000Y-91694000D02*
X145796000Y-91186000D01*
D68*
X144602200Y-69342000D02*
X144830800Y-69113400D01*
X137083800Y-77139800D02*
X139496800Y-77139800D01*
D69*
X115510600Y-84895400D02*
X116586000Y-83820000D01*
X132588000Y-83312000D02*
X135890000Y-83312000D01*
D68*
X140970000Y-88734000D02*
X140970000Y-89662000D01*
X156422400Y-72808200D02*
X157392000Y-72808200D01*
X134570200Y-70840600D02*
X134570200Y-70915800D01*
X136411600Y-81153000D02*
X136448800Y-81153000D01*
D70*
X181678600Y-67604000D02*
X182437400Y-67604000D01*
D68*
X138844000Y-90245999D02*
X138844000Y-89502000D01*
X144830800Y-69113400D02*
X144830800Y-66979800D01*
D69*
X125653800Y-72201999D02*
X126934001Y-72201999D01*
D68*
X127127000Y-81229200D02*
X127254000Y-81356200D01*
D72*
X94170500Y-83248500D02*
X96012000Y-85090000D01*
D70*
X178638200Y-68326000D02*
X175056800Y-68326000D01*
D69*
X161573800Y-62040800D02*
X163587400Y-62040800D01*
D68*
X140970000Y-88734000D02*
X140970000Y-88646000D01*
D70*
X184378600Y-71104000D02*
X183245000Y-71104000D01*
D68*
X154242400Y-87161000D02*
X154381200Y-87299800D01*
X141224000Y-89916000D02*
X142494000Y-89916000D01*
X154990800Y-90220800D02*
X155041600Y-90271600D01*
D69*
X152476200Y-60706000D02*
X153847800Y-62077600D01*
D68*
X120148350Y-68326000D02*
X120904000Y-68326000D01*
X121158000Y-67564000D02*
X121412000Y-67310000D01*
X126238000Y-82804000D02*
X126238000Y-83312000D01*
X140970000Y-89662000D02*
X141224000Y-89916000D01*
X134415800Y-71070200D02*
X134570200Y-71070200D01*
X141062400Y-81308200D02*
X139652000Y-81308200D01*
X132105400Y-80340200D02*
X132169800Y-80340200D01*
D73*
X169652950Y-90906600D02*
X169652950Y-91319350D01*
D68*
X121412000Y-67310000D02*
X122174000Y-67310000D01*
X123864000Y-67222000D02*
X123952000Y-67310000D01*
D69*
X168059100Y-99879350D02*
X169614650Y-99879350D01*
D68*
X127336620Y-79254420D02*
X128009580Y-79254420D01*
X144653000Y-66802000D02*
X144145000Y-66802000D01*
D69*
X135890000Y-83312000D02*
X136144000Y-83058000D01*
D68*
X141062400Y-76808200D02*
X142441800Y-76808200D01*
D72*
X178615000Y-92453800D02*
X179808800Y-92453800D01*
D68*
X154381200Y-87299800D02*
X154711400Y-87299800D01*
D71*
X118872000Y-82042000D02*
X117443600Y-82042000D01*
D68*
X141732000Y-86614000D02*
X141986000Y-86360000D01*
D69*
X158025200Y-90056600D02*
X157994350Y-90087450D01*
D71*
%TO.N,/Navigation and Control/GPS*%
X113792000Y-84074000D02*
X115570000Y-82296000D01*
X113282000Y-86104000D02*
X113792000Y-85594000D01*
X106934000Y-88646000D02*
X106934000Y-90424000D01*
X109476000Y-86104000D02*
X106934000Y-88646000D01*
X113792000Y-85594000D02*
X113792000Y-84074000D01*
X111430000Y-86104000D02*
X113282000Y-86104000D01*
X111430000Y-86104000D02*
X109476000Y-86104000D01*
%TO.N,Net-(AE2-Pad1)*%
X111252000Y-100838000D02*
X116078000Y-100838000D01*
X98552000Y-90424000D02*
X96520000Y-88392000D01*
X110236000Y-100838000D02*
X111252000Y-100838000D01*
X108966000Y-100838000D02*
X110236000Y-100838000D01*
X96520000Y-88392000D02*
X94742000Y-88392000D01*
X124206000Y-99822000D02*
X130556000Y-99822000D01*
X123317000Y-100711000D02*
X124206000Y-99822000D01*
D73*
X116078000Y-100838000D02*
X123190000Y-100838000D01*
D71*
X98552000Y-90424000D02*
X108966000Y-100838000D01*
D73*
X123190000Y-100838000D02*
X123317000Y-100711000D01*
D68*
%TO.N,3.3V*%
X140217400Y-77308200D02*
X139649200Y-77876400D01*
X129524000Y-81264000D02*
X129540000Y-81280000D01*
X143242400Y-85103600D02*
X143764000Y-84582000D01*
X124428000Y-78994000D02*
X123698000Y-78994000D01*
D69*
X101930000Y-85004000D02*
X101930000Y-85928000D01*
D68*
X114046000Y-75184000D02*
X114300000Y-75184000D01*
X143879200Y-68464800D02*
X143891000Y-68453000D01*
X133557700Y-73131100D02*
X133629400Y-73202800D01*
X141062400Y-77308200D02*
X142332200Y-77308200D01*
X158433400Y-70231000D02*
X157759400Y-70231000D01*
D69*
X161573800Y-59740800D02*
X158851600Y-59740800D01*
D68*
X132644000Y-63754000D02*
X134874000Y-63754000D01*
D69*
X158851600Y-59740800D02*
X156235400Y-59740800D01*
D68*
X128778000Y-70612000D02*
X129794000Y-71628000D01*
X128762000Y-81264000D02*
X128778000Y-81280000D01*
X139400400Y-81808200D02*
X138831200Y-81808200D01*
D69*
X132080000Y-91694000D02*
X132038600Y-91735400D01*
D68*
X133668400Y-73202800D02*
X132283200Y-73202800D01*
X141062400Y-81808200D02*
X139400400Y-81808200D01*
X123444000Y-78768000D02*
X123444000Y-80518000D01*
X175348900Y-96069350D02*
X176472650Y-96069350D01*
X157759400Y-70231000D02*
X157099000Y-70891400D01*
D70*
X156641800Y-64516000D02*
X155778200Y-63652400D01*
D68*
X135128000Y-67310000D02*
X135128000Y-66040000D01*
X139954000Y-68481000D02*
X136299000Y-68481000D01*
X154742400Y-85988200D02*
X155863600Y-85988200D01*
X143242400Y-85988200D02*
X143242400Y-87389600D01*
X138748000Y-82308200D02*
X138353800Y-82702400D01*
X124714000Y-82042000D02*
X123444000Y-80772000D01*
X125123700Y-79264000D02*
X124698000Y-79264000D01*
X131114800Y-73202800D02*
X132283200Y-73202800D01*
X135475600Y-70340600D02*
X137625200Y-70340600D01*
X138137000Y-81241000D02*
X138049000Y-81153000D01*
D70*
X173365000Y-85573800D02*
X171678600Y-85572600D01*
D68*
X135100000Y-66040000D02*
X135100000Y-63782000D01*
D70*
X150368000Y-62255400D02*
X150368000Y-58877200D01*
X151765000Y-63652400D02*
X150368000Y-62255400D01*
D68*
X120170000Y-73914000D02*
X120904000Y-73914000D01*
X142742400Y-69158600D02*
X142468600Y-68884800D01*
D70*
X156641800Y-65913000D02*
X156641800Y-64516000D01*
D68*
X132108000Y-66294000D02*
X132108000Y-64290000D01*
X125222000Y-82550000D02*
X124714000Y-82042000D01*
X142742400Y-70628200D02*
X142742400Y-69322200D01*
X126068700Y-82211300D02*
X125730000Y-82550000D01*
X143242400Y-85988200D02*
X143242400Y-85103600D01*
X142332200Y-77308200D02*
X142748000Y-77724000D01*
D69*
X101930000Y-85004000D02*
X103972000Y-85004000D01*
D68*
X138831200Y-81808200D02*
X138506200Y-81483200D01*
X134323200Y-70340600D02*
X134137400Y-70154800D01*
X141221400Y-68481000D02*
X142014000Y-68481000D01*
X129794000Y-71628000D02*
X129794000Y-72644000D01*
X140335000Y-68481000D02*
X141221400Y-68481000D01*
X137625200Y-70340600D02*
X137947400Y-70662800D01*
X145999200Y-66790200D02*
X147001600Y-66790200D01*
X120904000Y-73914000D02*
X121412000Y-74422000D01*
X138137000Y-82931000D02*
X138137000Y-81241000D01*
D70*
X155778200Y-63652400D02*
X151765000Y-63652400D01*
D68*
X155863600Y-85988200D02*
X155892500Y-86017100D01*
X155892500Y-86017100D02*
X156311600Y-86436200D01*
X132108000Y-64290000D02*
X132644000Y-63754000D01*
X131064000Y-73152000D02*
X131114800Y-73202800D01*
X130302000Y-73152000D02*
X131064000Y-73152000D01*
X134570200Y-70340600D02*
X134323200Y-70340600D01*
X125730000Y-82550000D02*
X125222000Y-82550000D01*
D69*
X152476200Y-58064400D02*
X154482800Y-58064400D01*
D68*
X113538000Y-75184000D02*
X114046000Y-75184000D01*
X139649200Y-77876400D02*
X138912600Y-77876400D01*
X128778000Y-70584000D02*
X128778000Y-70612000D01*
X128762000Y-81264000D02*
X129524000Y-81264000D01*
X141062400Y-77308200D02*
X140217400Y-77308200D01*
X169720200Y-66268600D02*
X169720200Y-65179000D01*
X142087600Y-68464800D02*
X143879200Y-68464800D01*
D69*
X154482800Y-58064400D02*
X155117800Y-58699400D01*
D68*
X114300000Y-74422000D02*
X114300000Y-75184000D01*
D69*
X130310600Y-91735400D02*
X132038600Y-91735400D01*
D73*
X159651000Y-65693200D02*
X156701400Y-65693200D01*
D68*
X157099000Y-70891400D02*
X157099000Y-72313800D01*
X156311600Y-86436200D02*
X156311600Y-87833200D01*
X134570200Y-70340600D02*
X135475600Y-70340600D01*
X123444000Y-80772000D02*
X123444000Y-80684000D01*
X124698000Y-79264000D02*
X124428000Y-78994000D01*
D69*
X175348900Y-96069350D02*
X175348900Y-95084900D01*
D68*
X126068700Y-81809000D02*
X126068700Y-82211300D01*
X137947400Y-70662800D02*
X137947400Y-71170800D01*
X141062400Y-82308200D02*
X138748000Y-82308200D01*
X142742400Y-69322200D02*
X142742400Y-69158600D01*
X136299000Y-68481000D02*
X135128000Y-67310000D01*
D69*
X132080000Y-85598000D02*
X132080000Y-91694000D01*
D70*
X150368000Y-58877200D02*
X151079200Y-58166000D01*
D68*
X176472650Y-96069350D02*
X177234650Y-96069350D01*
X168506200Y-93954600D02*
X169646600Y-93954600D01*
X114300000Y-75184000D02*
X114808000Y-75184000D01*
X142014000Y-68481000D02*
X142036800Y-68503800D01*
X128778000Y-81280000D02*
X128778000Y-81788000D01*
X128213700Y-81264000D02*
X128762000Y-81264000D01*
X129794000Y-72644000D02*
X130302000Y-73152000D01*
D70*
X151079200Y-58166000D02*
X152069800Y-58166000D01*
D68*
X143242400Y-87389600D02*
X143002000Y-87630000D01*
X133557700Y-72182300D02*
X133557700Y-73131100D01*
X125702000Y-76962000D02*
X124714000Y-76962000D01*
X133557700Y-71603100D02*
X133557700Y-72182300D01*
D69*
X132588000Y-85090000D02*
X132080000Y-85598000D01*
X156235400Y-59740800D02*
X156083000Y-59588400D01*
D68*
%TO.N,NRST*%
X143611600Y-64770000D02*
X142087600Y-64770000D01*
X140970000Y-86385400D02*
X142798800Y-84556600D01*
X144449800Y-77038200D02*
X144449800Y-72974200D01*
X142798800Y-78689200D02*
X144449800Y-77038200D01*
X140791999Y-87046001D02*
X140970000Y-86868000D01*
X141325600Y-78790800D02*
X142748000Y-78790800D01*
X142798800Y-84556600D02*
X142798800Y-84048600D01*
X142798800Y-79171800D02*
X142798800Y-78740000D01*
X142798800Y-78740000D02*
X142798800Y-78689200D01*
X140970000Y-87034000D02*
X140970000Y-86385400D01*
X142748000Y-78790800D02*
X142798800Y-78740000D01*
X142798800Y-84048600D02*
X142798800Y-79171800D01*
X138844000Y-87046001D02*
X140791999Y-87046001D01*
X143967200Y-63815850D02*
X143967200Y-64414400D01*
X143967200Y-64414400D02*
X143611600Y-64770000D01*
%TO.N,SWCLK*%
X148615400Y-65887600D02*
X148615400Y-67792600D01*
X154742400Y-69670400D02*
X154742400Y-70628200D01*
X154109200Y-69037200D02*
X154742400Y-69670400D01*
X140945560Y-65278000D02*
X141275280Y-65607720D01*
X141275280Y-65607720D02*
X148335520Y-65607720D01*
X140157200Y-65278000D02*
X140945560Y-65278000D01*
X148615400Y-67792600D02*
X149860000Y-69037200D01*
X148335520Y-65607720D02*
X148615400Y-65887600D01*
X140157200Y-65278000D02*
X140157200Y-66751200D01*
X149860000Y-69037200D02*
X154109200Y-69037200D01*
%TO.N,SWDIO*%
X155397200Y-71348600D02*
X155397200Y-69545200D01*
X136680000Y-66040000D02*
X137668000Y-66040000D01*
X141859000Y-65303400D02*
X141351000Y-64795400D01*
X148919720Y-67666546D02*
X148919720Y-65734720D01*
X138887200Y-63815850D02*
X138887200Y-64795400D01*
X141351000Y-64795400D02*
X138887200Y-64795400D01*
X148488400Y-65303400D02*
X141859000Y-65303400D01*
X148919720Y-65734720D02*
X148488400Y-65303400D01*
X155092400Y-73685400D02*
X155092400Y-71653400D01*
X155397200Y-69545200D02*
X154584880Y-68732880D01*
X155215200Y-73808200D02*
X155092400Y-73685400D01*
X156422400Y-73808200D02*
X155215200Y-73808200D01*
X149986054Y-68732880D02*
X148919720Y-67666546D01*
X155092400Y-71653400D02*
X155397200Y-71348600D01*
X154584880Y-68732880D02*
X149986054Y-68732880D01*
X137668000Y-66040000D02*
X138887200Y-64820800D01*
X138887200Y-64820800D02*
X138887200Y-64795400D01*
D69*
%TO.N,/Navigation and Control/3V_BAK*%
X104128000Y-82562000D02*
X104140000Y-82574000D01*
X103632000Y-83820000D02*
X101854000Y-83820000D01*
X104140000Y-82574000D02*
X104140000Y-83312000D01*
X104140000Y-83312000D02*
X103632000Y-83820000D01*
X104128000Y-74541000D02*
X104128000Y-82562000D01*
D68*
%TO.N,OSC_IN*%
X135788400Y-78765400D02*
X136095120Y-79072120D01*
X136095120Y-79072120D02*
X139496306Y-79072120D01*
X140226826Y-77808200D02*
X141062400Y-77808200D01*
X135788400Y-77546200D02*
X135788400Y-78765400D01*
X131001400Y-75615800D02*
X133553200Y-75615800D01*
X134728600Y-76646200D02*
X134583600Y-76646200D01*
X139649680Y-78385347D02*
X140226826Y-77808200D01*
X139649680Y-78918746D02*
X139649680Y-78385347D01*
X134583600Y-76646200D02*
X133553200Y-75615800D01*
X134728600Y-76646200D02*
X134888400Y-76646200D01*
X130505200Y-76112000D02*
X131001400Y-75615800D01*
X134888400Y-76646200D02*
X135788400Y-77546200D01*
X139496306Y-79072120D02*
X139649680Y-78918746D01*
%TO.N,OSC_OUT*%
X133869800Y-80340200D02*
X133858000Y-80340200D01*
X132969000Y-79451200D02*
X132969000Y-78714600D01*
X139622360Y-79376440D02*
X135764412Y-79376440D01*
X133858000Y-80340200D02*
X132969000Y-79451200D01*
X135764412Y-79376440D02*
X134800654Y-80340200D01*
X141062400Y-78308200D02*
X140157200Y-78308200D01*
X139954000Y-78511400D02*
X139954000Y-79044800D01*
X139954000Y-79044800D02*
X139622360Y-79376440D01*
X134800654Y-80340200D02*
X133985000Y-80340200D01*
X140157200Y-78308200D02*
X139954000Y-78511400D01*
%TO.N,CAP1*%
X153742400Y-85988200D02*
X153742400Y-88108800D01*
%TO.N,SDA*%
X153242400Y-85988200D02*
X153242400Y-87168600D01*
X152704800Y-87706200D02*
X152704800Y-88239600D01*
X124947000Y-78719000D02*
X123698000Y-77470000D01*
X128524000Y-76454000D02*
X128270000Y-76200000D01*
X136118600Y-86080600D02*
X135128000Y-85090000D01*
X115344000Y-80236000D02*
X116078000Y-79502000D01*
X116078000Y-79502000D02*
X119634000Y-79502000D01*
X128524000Y-76708000D02*
X128524000Y-76454000D01*
X114046000Y-80236000D02*
X115344000Y-80236000D01*
X140208000Y-86080600D02*
X136118600Y-86080600D01*
X135128000Y-85090000D02*
X135128000Y-84582000D01*
X124460000Y-76200000D02*
X123698000Y-76962000D01*
X153242400Y-87168600D02*
X152704800Y-87706200D01*
X125668708Y-78719000D02*
X124947000Y-78719000D01*
X128270000Y-76200000D02*
X124460000Y-76200000D01*
%TO.N,SCL*%
X127282000Y-76962000D02*
X127282000Y-77117000D01*
X137871200Y-85547200D02*
X136398000Y-84074000D01*
X136398000Y-84074000D02*
X134366000Y-84074000D01*
X134366000Y-84074000D02*
X133858000Y-84074000D01*
X152742400Y-85988200D02*
X152742400Y-86906600D01*
X115598000Y-78486000D02*
X116586000Y-78486000D01*
X117094000Y-78994000D02*
X120396000Y-78994000D01*
X127889000Y-77724000D02*
X128524000Y-77724000D01*
X126068708Y-78147292D02*
X127000000Y-77216000D01*
X152742400Y-86906600D02*
X152044400Y-87604600D01*
X126068708Y-78719000D02*
X126068708Y-78147292D01*
X139471400Y-85547200D02*
X137871200Y-85547200D01*
X116586000Y-78486000D02*
X117094000Y-78994000D01*
X127282000Y-77117000D02*
X127889000Y-77724000D01*
%TO.N,CAP2*%
X156422400Y-73308200D02*
X158449000Y-73308200D01*
D72*
%TO.N,VIN*%
X97282000Y-74422000D02*
X97282000Y-71628000D01*
D69*
X167195500Y-60490100D02*
X167195500Y-58559700D01*
X165252400Y-58547000D02*
X165227000Y-58521600D01*
X108280200Y-72832001D02*
X106106001Y-72832001D01*
X104902000Y-71628000D02*
X97282000Y-71628000D01*
X123266200Y-73152000D02*
X121666000Y-73152000D01*
D72*
X96774000Y-74930000D02*
X97282000Y-74422000D01*
D69*
X164998400Y-58293000D02*
X162991800Y-58293000D01*
X114376200Y-73340001D02*
X112587999Y-73340001D01*
D72*
X95758000Y-74930000D02*
X96774000Y-74930000D01*
D69*
X106106001Y-72832001D02*
X104902000Y-71628000D01*
D72*
X94805500Y-75882500D02*
X95758000Y-74930000D01*
X97282000Y-68580000D02*
X97282000Y-64770000D01*
X94805500Y-77832230D02*
X94805500Y-75882500D01*
X97282000Y-71628000D02*
X97282000Y-68580000D01*
D69*
X167170100Y-58547000D02*
X165252400Y-58547000D01*
X167195500Y-62502770D02*
X167195500Y-60490100D01*
D72*
X100838000Y-61214000D02*
X101092000Y-61214000D01*
D69*
X162991800Y-58293000D02*
X162306000Y-57607200D01*
D72*
X97282000Y-64770000D02*
X100838000Y-61214000D01*
D69*
%TO.N,5V*%
X173165400Y-65164600D02*
X172491400Y-64490600D01*
D70*
X171320200Y-69416800D02*
X171320200Y-68455800D01*
X180665600Y-71404000D02*
X179705000Y-72364600D01*
X171296800Y-68326800D02*
X171449200Y-68326800D01*
X173165400Y-68187200D02*
X173177200Y-68199000D01*
X171320200Y-68455800D02*
X171449200Y-68326800D01*
X170230200Y-68326800D02*
X171296800Y-68326800D01*
D69*
X170891200Y-63754000D02*
X170891200Y-62611000D01*
X173165400Y-66522600D02*
X173165400Y-65164600D01*
D70*
X177718148Y-72324001D02*
X177718148Y-73360852D01*
X173165400Y-66522600D02*
X173165400Y-68187200D01*
D69*
X172491400Y-64490600D02*
X171627800Y-64490600D01*
X170891200Y-62611000D02*
X170916600Y-62585600D01*
D70*
X173074800Y-68326800D02*
X173075600Y-68326000D01*
X177718148Y-73360852D02*
X177698400Y-73380600D01*
X181678600Y-71404000D02*
X180665600Y-71404000D01*
X179705000Y-72364600D02*
X177927000Y-72364600D01*
X171449200Y-68326800D02*
X173074800Y-68326800D01*
D69*
X171627800Y-64490600D02*
X170891200Y-63754000D01*
D68*
%TO.N,DROGUE*%
X110750350Y-68514001D02*
X112456001Y-68514001D01*
X114554000Y-69088000D02*
X114554000Y-70104000D01*
X141062400Y-75308200D02*
X139316200Y-75308200D01*
X112776000Y-68862000D02*
X114328000Y-68862000D01*
X139316200Y-75308200D02*
X138938000Y-74930000D01*
%TO.N,MAIN*%
X123532000Y-68922000D02*
X123698000Y-69088000D01*
X122174000Y-68922000D02*
X123532000Y-68922000D01*
X149242400Y-70628200D02*
X149242400Y-73296400D01*
X120148350Y-69276001D02*
X120148350Y-70605650D01*
X121985999Y-69276001D02*
X122174000Y-69088000D01*
X149242400Y-73296400D02*
X149860000Y-73914000D01*
X120148350Y-69276001D02*
X121985999Y-69276001D01*
%TO.N,Net-(C20-Pad1)*%
X126868700Y-82926700D02*
X127254000Y-83312000D01*
X126868700Y-81809000D02*
X126868700Y-82926700D01*
D71*
%TO.N,Net-(C26-Pad1)*%
X104394000Y-91440000D02*
X103886000Y-90932000D01*
X107696000Y-91440000D02*
X104394000Y-91440000D01*
X108204000Y-90424000D02*
X109220000Y-89408000D01*
X107950000Y-90424000D02*
X107950000Y-91186000D01*
X107950000Y-91186000D02*
X107696000Y-91440000D01*
X108000800Y-90424000D02*
X108204000Y-90424000D01*
X103886000Y-90932000D02*
X103886000Y-89916000D01*
D73*
%TO.N,Net-(D1-Pad2)*%
X161151000Y-65693200D02*
X161281200Y-65693200D01*
X162052000Y-64922400D02*
X163525200Y-64922400D01*
X161281200Y-65693200D02*
X162052000Y-64922400D01*
D68*
%TO.N,Net-(D1-Pad3)*%
X161151000Y-66793200D02*
X161992400Y-66793200D01*
X161992400Y-66793200D02*
X163626800Y-68427600D01*
X163626800Y-68427600D02*
X163626800Y-69951600D01*
%TO.N,Net-(D1-Pad4)*%
X159994600Y-67792600D02*
X161467800Y-67792600D01*
X159651000Y-66793200D02*
X159651000Y-67449000D01*
X161823400Y-68148200D02*
X161823400Y-69850000D01*
X161467800Y-67792600D02*
X161823400Y-68148200D01*
X159651000Y-67449000D02*
X159994600Y-67792600D01*
D72*
%TO.N,/PIN_SCREW*%
X92964000Y-73406000D02*
X91186000Y-75184000D01*
X91186000Y-75184000D02*
X91186000Y-77724000D01*
X94742000Y-73406000D02*
X92964000Y-73406000D01*
%TO.N,/PIN_HARN*%
X170853100Y-58547000D02*
X170853100Y-59601100D01*
X170853100Y-59601100D02*
X173482000Y-62230000D01*
D70*
%TO.N,Net-(D5-Pad1)*%
X151739600Y-65913000D02*
X151663400Y-65836800D01*
X153593800Y-65913000D02*
X151739600Y-65913000D01*
D73*
%TO.N,/Peripherals/D-*%
X173304200Y-71932800D02*
X173710600Y-72339200D01*
X173304200Y-71323200D02*
X173304200Y-71932800D01*
X172397800Y-70416800D02*
X173304200Y-71323200D01*
D74*
X179354738Y-71570850D02*
X180299738Y-70625850D01*
X176473879Y-71570850D02*
X179354738Y-71570850D01*
X180537949Y-70625850D02*
X180666099Y-70754000D01*
D73*
X171320200Y-70416800D02*
X172397800Y-70416800D01*
D74*
X175720728Y-72324001D02*
X176473879Y-71570850D01*
D73*
X173710600Y-72339200D02*
X175031400Y-72339200D01*
D74*
X180299738Y-70625850D02*
X180537949Y-70625850D01*
X180666099Y-70754000D02*
X181678600Y-70754000D01*
X174986252Y-72324001D02*
X175720728Y-72324001D01*
%TO.N,/Peripherals/D+*%
X180666099Y-70104000D02*
X181678600Y-70104000D01*
X180136662Y-70232150D02*
X180537949Y-70232150D01*
X174986252Y-70423999D02*
X175720728Y-70423999D01*
D73*
X172034200Y-70916800D02*
X172466000Y-71348600D01*
X174986252Y-70423999D02*
X173674999Y-70423999D01*
D74*
X180537949Y-70232150D02*
X180666099Y-70104000D01*
D73*
X171320200Y-70916800D02*
X172034200Y-70916800D01*
D74*
X175720728Y-70423999D02*
X176473879Y-71177150D01*
X179191662Y-71177150D02*
X180136662Y-70232150D01*
X176473879Y-71177150D02*
X179191662Y-71177150D01*
D68*
%TO.N,MOTOR1_PWM*%
X157698039Y-91782187D02*
X156465426Y-93014800D01*
X156465426Y-93014800D02*
X154076400Y-93014800D01*
X151281453Y-89484680D02*
X151916920Y-90120147D01*
D73*
X162585000Y-97434800D02*
X165735000Y-94284800D01*
D68*
X152094254Y-93015280D02*
X154075920Y-93015280D01*
D73*
X167201850Y-91979750D02*
X167201850Y-90906600D01*
D68*
X165912800Y-90906600D02*
X163830000Y-92989400D01*
D73*
X165735000Y-94284800D02*
X165735000Y-93192600D01*
D68*
X147472880Y-89484680D02*
X151281453Y-89484680D01*
D73*
X166370000Y-92811600D02*
X167201850Y-91979750D01*
D68*
X147242400Y-85988200D02*
X147242400Y-89254200D01*
X159931813Y-91782187D02*
X157698039Y-91782187D01*
X151916920Y-90120147D02*
X151916920Y-92837946D01*
D73*
X165735000Y-93192600D02*
X166116000Y-92811600D01*
D68*
X163830000Y-92989400D02*
X161139026Y-92989400D01*
D73*
X166116000Y-92811600D02*
X166370000Y-92811600D01*
D68*
X147242400Y-89254200D02*
X147472880Y-89484680D01*
D73*
X162585000Y-98806000D02*
X162585000Y-97434800D01*
D68*
X154075920Y-93015280D02*
X154076400Y-93014800D01*
X151916920Y-92837946D02*
X152094254Y-93015280D01*
X161139026Y-92989400D02*
X159931813Y-91782187D01*
X167201850Y-90906600D02*
X165912800Y-90906600D01*
%TO.N,MOTOR3_PWM*%
X151612600Y-90246200D02*
X151612600Y-92964000D01*
X146761200Y-89331800D02*
X147218400Y-89789000D01*
X151968200Y-93319600D02*
X153644600Y-93319600D01*
X159410400Y-92538550D02*
X157372050Y-92538550D01*
X147218400Y-89789000D02*
X151155400Y-89789000D01*
X146761200Y-86309200D02*
X146761200Y-89331800D01*
X151155400Y-89789000D02*
X151612600Y-90246200D01*
D73*
X153949000Y-98806000D02*
X155219000Y-97536000D01*
X155219000Y-97536000D02*
X156972000Y-97536000D01*
D68*
X151612600Y-92964000D02*
X151968200Y-93319600D01*
X156591000Y-93319600D02*
X153644600Y-93319600D01*
X157372050Y-92538550D02*
X156591000Y-93319600D01*
D73*
X156972000Y-97536000D02*
X159410400Y-95097600D01*
X159410400Y-95097600D02*
X159410400Y-92538550D01*
D68*
%TO.N,MOTOR2_PWM*%
X150266400Y-93198950D02*
X150266400Y-92608400D01*
X144742400Y-90108988D02*
X144742400Y-85988200D01*
X144602200Y-92278200D02*
X144427388Y-92103388D01*
X144427388Y-92103388D02*
X144427388Y-90424000D01*
X149936200Y-92278200D02*
X144602200Y-92278200D01*
D73*
X150266400Y-93198950D02*
X149625050Y-93198950D01*
X145313000Y-97511000D02*
X149625050Y-93198950D01*
X145313000Y-98806000D02*
X145313000Y-97511000D01*
D68*
X150266400Y-92608400D02*
X149936200Y-92278200D01*
X144427388Y-90424000D02*
X144742400Y-90108988D01*
%TO.N,MOTOR4_PWM*%
X144123068Y-92604932D02*
X144123068Y-90259732D01*
X142792450Y-93935550D02*
X144123068Y-92604932D01*
D73*
X138455000Y-97028000D02*
X136677000Y-98806000D01*
X140462000Y-97028000D02*
X138455000Y-97028000D01*
D68*
X144123068Y-90259732D02*
X144242400Y-90140400D01*
X144242400Y-90140400D02*
X144242400Y-85988200D01*
X141884400Y-93935550D02*
X142792450Y-93935550D01*
D73*
X141884400Y-95605600D02*
X140462000Y-97028000D01*
X141884400Y-93935550D02*
X141884400Y-95605600D01*
D68*
%TO.N,BOOT*%
X145742400Y-70628200D02*
X145742400Y-68628000D01*
%TO.N,VIN_SW*%
X128016000Y-61468000D02*
X128016000Y-60198000D01*
X122936000Y-59436000D02*
X121412000Y-60960000D01*
D75*
X118364000Y-57912000D02*
X114300000Y-57912000D01*
X114300000Y-57912000D02*
X111252000Y-60960000D01*
D68*
X125222000Y-68072000D02*
X125222000Y-64262000D01*
D75*
X106172000Y-60960000D02*
X111252000Y-60960000D01*
X121412000Y-60960000D02*
X118364000Y-57912000D01*
D68*
X123820002Y-71251998D02*
X125222000Y-69850000D01*
X125250000Y-68044000D02*
X125222000Y-68072000D01*
X125222000Y-69850000D02*
X125222000Y-68072000D01*
X125222000Y-64262000D02*
X128016000Y-61468000D01*
X123266200Y-71251998D02*
X123820002Y-71251998D01*
X127254000Y-59436000D02*
X122936000Y-59436000D01*
X128016000Y-60198000D02*
X127254000Y-59436000D01*
X126746000Y-68044000D02*
X125250000Y-68044000D01*
%TO.N,Net-(P4-Pad4)*%
X108280200Y-70931999D02*
X108280200Y-68402200D01*
D72*
X107188000Y-68580000D02*
X107950000Y-68580000D01*
X106934000Y-64262000D02*
X106426000Y-64770000D01*
X116332000Y-62992000D02*
X115062000Y-64262000D01*
X106426000Y-64770000D02*
X106426000Y-67818000D01*
X115062000Y-64262000D02*
X106934000Y-64262000D01*
X116332000Y-60960000D02*
X116332000Y-62992000D01*
X106426000Y-67818000D02*
X107188000Y-68580000D01*
%TO.N,Net-(P4-Pad6)*%
X116078000Y-65532000D02*
X118110000Y-63500000D01*
D68*
X115824000Y-70612000D02*
X116840000Y-70612000D01*
X117602000Y-69850000D02*
X117602000Y-69342000D01*
X114996001Y-71439999D02*
X115824000Y-70612000D01*
X114376200Y-71439999D02*
X114996001Y-71439999D01*
D72*
X117595650Y-69276001D02*
X116520001Y-69276001D01*
X116078000Y-68834000D02*
X116078000Y-65532000D01*
X123952000Y-63500000D02*
X126238000Y-61214000D01*
D68*
X116840000Y-70612000D02*
X117602000Y-69850000D01*
D72*
X118110000Y-63500000D02*
X123952000Y-63500000D01*
X116520001Y-69276001D02*
X116078000Y-68834000D01*
D69*
%TO.N,Net-(P5-Pad3)*%
X160579000Y-98806000D02*
X160579000Y-97281800D01*
X160579000Y-97281800D02*
X163510001Y-94350799D01*
X163510001Y-94350799D02*
X163510001Y-94037150D01*
%TO.N,Net-(P6-Pad3)*%
X153975000Y-96774000D02*
X154178000Y-96774000D01*
X155991601Y-94621350D02*
X155991601Y-96230399D01*
X155702000Y-96520000D02*
X155448000Y-96774000D01*
X155448000Y-96774000D02*
X154178000Y-96774000D01*
X155991601Y-96230399D02*
X155702000Y-96520000D01*
X151943000Y-98806000D02*
X153975000Y-96774000D01*
%TO.N,Net-(P7-Pad3)*%
X143307000Y-98806000D02*
X143307000Y-96977000D01*
X143307000Y-96977000D02*
X144526000Y-95758000D01*
X146812000Y-94742000D02*
X146812000Y-93726000D01*
X145796000Y-95758000D02*
X146812000Y-94742000D01*
X144526000Y-95758000D02*
X145796000Y-95758000D01*
D68*
%TO.N,SWO*%
X148242400Y-70628200D02*
X148242400Y-67343400D01*
X147751800Y-66852800D02*
X147751800Y-66319400D01*
X148242400Y-67343400D02*
X147751800Y-66852800D01*
D69*
%TO.N,Net-(P9-Pad3)*%
X136449000Y-97028000D02*
X136906000Y-97028000D01*
X137668000Y-96266000D02*
X137668000Y-94742000D01*
X136906000Y-97028000D02*
X137668000Y-96266000D01*
X134671000Y-98806000D02*
X136449000Y-97028000D01*
D68*
%TO.N,MOTOR1_EN*%
X162788600Y-86563200D02*
X163499800Y-87274400D01*
X158826200Y-85191600D02*
X160197800Y-86563200D01*
X158496000Y-81026000D02*
X157988000Y-81026000D01*
X157988000Y-81026000D02*
X157734000Y-80772000D01*
X160197800Y-86563200D02*
X162788600Y-86563200D01*
X157734000Y-80772000D02*
X156845000Y-80772000D01*
X163499800Y-87274400D02*
X163499800Y-91186000D01*
%TO.N,MOTOR3_EN*%
X156337000Y-91465400D02*
X156006800Y-91795600D01*
X163652200Y-86537800D02*
X164617400Y-87503000D01*
X163550600Y-92684600D02*
X161264600Y-92684600D01*
X160045400Y-91465400D02*
X156337000Y-91465400D01*
X164617400Y-91617800D02*
X163550600Y-92684600D01*
X156422400Y-81308200D02*
X157762200Y-81308200D01*
X157762200Y-81308200D02*
X158496000Y-82042000D01*
X161264600Y-92684600D02*
X160045400Y-91465400D01*
X164617400Y-87503000D02*
X164617400Y-91617800D01*
%TO.N,MOTOR2_EN*%
X146746001Y-90866001D02*
X146242400Y-90362400D01*
X146242400Y-85988200D02*
X146242400Y-90231600D01*
X146746001Y-91052650D02*
X146746001Y-90866001D01*
X146242400Y-90362400D02*
X146242400Y-90231600D01*
%TO.N,MOTOR4_EN*%
X143510000Y-90678000D02*
X140208000Y-90678000D01*
X138430000Y-91186000D02*
X137668000Y-91948000D01*
X143742400Y-90445600D02*
X143510000Y-90678000D01*
X139700000Y-91186000D02*
X138430000Y-91186000D01*
X143742400Y-85988200D02*
X143742400Y-90445600D01*
X140208000Y-90678000D02*
X139700000Y-91186000D01*
%TO.N,STATUS_B*%
X163779200Y-67945000D02*
X163779200Y-66471800D01*
X161986600Y-75808200D02*
X163118800Y-74676000D01*
X163118800Y-73456800D02*
X163398200Y-73177400D01*
X164188452Y-73177400D02*
X164643280Y-72722572D01*
X164643280Y-68809080D02*
X163779200Y-67945000D01*
X163398200Y-73177400D02*
X164188452Y-73177400D01*
X164643280Y-72722572D02*
X164643280Y-68809080D01*
X163118800Y-74676000D02*
X163118800Y-73456800D01*
X156422400Y-75808200D02*
X161986600Y-75808200D01*
%TO.N,~{USB_RST}*%
X165608000Y-64160400D02*
X164947600Y-64820800D01*
X171300200Y-66268600D02*
X171300200Y-65280600D01*
X171272200Y-67310000D02*
X171272200Y-66421000D01*
X156422400Y-74308200D02*
X158254200Y-74308200D01*
X170180000Y-64160400D02*
X165608000Y-64160400D01*
X169730200Y-68326800D02*
X169730200Y-67699000D01*
X164947600Y-72848626D02*
X164085426Y-73710800D01*
X169730200Y-67699000D02*
X169992200Y-67437000D01*
X171145200Y-67437000D02*
X171272200Y-67310000D01*
X164085426Y-73710800D02*
X163677600Y-73710800D01*
X158254200Y-74308200D02*
X158279600Y-74282800D01*
X171300200Y-65280600D02*
X170180000Y-64160400D01*
X169992200Y-67437000D02*
X171145200Y-67437000D01*
X164947600Y-64820800D02*
X164947600Y-72848626D01*
%TO.N,STATUS_G*%
X162788600Y-73152000D02*
X163677600Y-72263000D01*
X156422400Y-75308200D02*
X161851600Y-75308200D01*
X162788600Y-74371200D02*
X162788600Y-73152000D01*
X163677600Y-72263000D02*
X163677600Y-71526400D01*
X161851600Y-75308200D02*
X162788600Y-74371200D01*
%TO.N,~{USB_SUSPEND}*%
X167617200Y-66195000D02*
X168732200Y-67310000D01*
X156422400Y-76308200D02*
X161918400Y-76308200D01*
X167386000Y-66421000D02*
X167462200Y-66421000D01*
X161918400Y-76308200D02*
X165252400Y-72974200D01*
X167617200Y-66141600D02*
X167617200Y-66195000D01*
X168732200Y-67310000D02*
X168732200Y-68148200D01*
X165252400Y-72974200D02*
X165252400Y-68554600D01*
X165252400Y-68554600D02*
X167386000Y-66421000D01*
%TO.N,STATUS_R*%
X162102800Y-74193400D02*
X162102800Y-71551800D01*
X161488000Y-74808200D02*
X162102800Y-74193400D01*
X156422400Y-74808200D02*
X161488000Y-74808200D01*
%TO.N,~{FLASH_SS}*%
X166903400Y-85826600D02*
X160274000Y-85826600D01*
X168198800Y-92557600D02*
X168198800Y-87122000D01*
X158755600Y-84308200D02*
X156422400Y-84308200D01*
X166624000Y-95758000D02*
X166624000Y-94234000D01*
X168198800Y-87122000D02*
X166903400Y-85826600D01*
X166935350Y-96069350D02*
X166624000Y-95758000D01*
X160274000Y-85826600D02*
X158755600Y-84308200D01*
X167081200Y-93675200D02*
X168198800Y-92557600D01*
X168059100Y-96069350D02*
X166935350Y-96069350D01*
%TO.N,~{SWITCH}*%
X148742400Y-70628200D02*
X148742400Y-71983600D01*
X148742400Y-71983600D02*
X148590000Y-72136000D01*
X128778000Y-72164000D02*
X128778000Y-73406000D01*
X148590000Y-72136000D02*
X148590000Y-73152000D01*
X125653800Y-73152000D02*
X127762000Y-73152000D01*
X127762000Y-73152000D02*
X128524000Y-72390000D01*
%TO.N,VCOMP*%
X115758001Y-71439999D02*
X115570000Y-71628000D01*
X115570000Y-74422000D02*
X115570000Y-72390000D01*
X112014000Y-70866000D02*
X113538000Y-72390000D01*
X120650000Y-71374000D02*
X117094000Y-71374000D01*
X113538000Y-72390000D02*
X115570000Y-72390000D01*
X124460000Y-72136000D02*
X121412000Y-72136000D01*
X116586000Y-75438000D02*
X115570000Y-74422000D01*
X115570000Y-71628000D02*
X115570000Y-72390000D01*
X125344002Y-71251998D02*
X124460000Y-72136000D01*
X110998000Y-70866000D02*
X112014000Y-70866000D01*
X116586000Y-75438000D02*
X118618000Y-75438000D01*
X125653800Y-71251998D02*
X125344002Y-71251998D01*
X116763800Y-71439999D02*
X115758001Y-71439999D01*
X121412000Y-72136000D02*
X120650000Y-71374000D01*
%TO.N,~{MAIN_CONT}*%
X139729200Y-73308200D02*
X139446000Y-73025000D01*
X118044001Y-73340001D02*
X118364000Y-73660000D01*
X121580822Y-73914000D02*
X122428000Y-73914000D01*
X141062400Y-73308200D02*
X139729200Y-73308200D01*
X136448320Y-74117680D02*
X136906000Y-73660000D01*
X122428000Y-73914000D02*
X122631680Y-74117680D01*
X118590000Y-73914000D02*
X119606000Y-72898000D01*
X119606000Y-72898000D02*
X120564822Y-72898000D01*
X120564822Y-72898000D02*
X121580822Y-73914000D01*
X116763800Y-73340001D02*
X118044001Y-73340001D01*
X122631680Y-74117680D02*
X136448320Y-74117680D01*
%TO.N,~{DROGUE_CONT}*%
X111732000Y-73124000D02*
X111506000Y-72898000D01*
X138633680Y-75641680D02*
X137109680Y-75641680D01*
X138800200Y-75808200D02*
X138633680Y-75641680D01*
X141062400Y-75808200D02*
X138800200Y-75808200D01*
X111732000Y-74930000D02*
X111732000Y-75918000D01*
X111732000Y-74930000D02*
X111732000Y-73124000D01*
X112014000Y-76200000D02*
X113030000Y-76200000D01*
X111506000Y-72898000D02*
X111252000Y-72898000D01*
X111732000Y-75918000D02*
X112014000Y-76200000D01*
%TO.N,~{GPS_RST}*%
X107045539Y-96690669D02*
X119286957Y-96690669D01*
X99060000Y-88705130D02*
X107045539Y-96690669D01*
X145242400Y-85988200D02*
X145242400Y-88854400D01*
X145242400Y-88854400D02*
X145288000Y-88900000D01*
X119286957Y-96690669D02*
X123393680Y-92583946D01*
X99060000Y-87404000D02*
X99060000Y-88705130D01*
X123393680Y-87172320D02*
X125222000Y-85344000D01*
X123393680Y-92583946D02*
X123393680Y-87172320D01*
%TO.N,Net-(R21-Pad2)*%
X101930000Y-87204000D02*
X100412000Y-87204000D01*
X100412000Y-87204000D02*
X99314000Y-86106000D01*
%TO.N,~{GPS_SBOOT}*%
X141062400Y-76308200D02*
X138829800Y-76308200D01*
X117348000Y-78232000D02*
X118872000Y-78232000D01*
X116586000Y-77470000D02*
X117348000Y-78232000D01*
X109502000Y-76482000D02*
X110490000Y-77470000D01*
X110490000Y-77470000D02*
X116586000Y-77470000D01*
X138829800Y-76308200D02*
X138684000Y-76454000D01*
X109502000Y-76454000D02*
X109502000Y-76482000D01*
X138684000Y-76454000D02*
X136652000Y-76454000D01*
%TO.N,Net-(R22-Pad2)*%
X107950000Y-76708000D02*
X107950000Y-76454000D01*
X108884000Y-78404000D02*
X107950000Y-77470000D01*
X111430000Y-78404000D02*
X108884000Y-78404000D01*
X107950000Y-77470000D02*
X107950000Y-76708000D01*
%TO.N,GPS_INT*%
X138703800Y-84308200D02*
X138430000Y-84582000D01*
X123698000Y-92710000D02*
X119413011Y-96994989D01*
X141062400Y-84308200D02*
X138703800Y-84308200D01*
X123698000Y-89408000D02*
X123698000Y-92710000D01*
X97762000Y-87837504D02*
X97762000Y-83058000D01*
X106919485Y-96994989D02*
X97762000Y-87837504D01*
X119413011Y-96994989D02*
X106919485Y-96994989D01*
X127254000Y-85852000D02*
X123698000Y-89408000D01*
%TO.N,Net-(R23-Pad2)*%
X101930000Y-82804000D02*
X99568000Y-82804000D01*
%TO.N,Net-(R24-Pad2)*%
X111430000Y-80604000D02*
X112862000Y-80604000D01*
X112862000Y-80604000D02*
X113792000Y-81534000D01*
%TO.N,Net-(R25-Pad2)*%
X111430000Y-79504000D02*
X113028000Y-79504000D01*
X113028000Y-79504000D02*
X113792000Y-78740000D01*
%TO.N,Net-(R26-Pad1)*%
X99342000Y-77216000D02*
X99342000Y-77244000D01*
X100330000Y-79248000D02*
X100584000Y-79502000D01*
X100584000Y-79502000D02*
X101600000Y-79502000D01*
X100330000Y-78232000D02*
X100330000Y-79248000D01*
X99342000Y-77244000D02*
X100330000Y-78232000D01*
%TO.N,GPS_TX*%
X107188000Y-75438000D02*
X109982000Y-75438000D01*
X98552000Y-75438000D02*
X100076000Y-75438000D01*
X97762000Y-76228000D02*
X98552000Y-75438000D01*
X116712054Y-77165680D02*
X117016374Y-77470000D01*
X101854000Y-72898000D02*
X104648000Y-72898000D01*
X109982000Y-75438000D02*
X111709680Y-77165680D01*
X117016374Y-77470000D02*
X117856000Y-77470000D01*
X97762000Y-77216000D02*
X97762000Y-76228000D01*
X141062400Y-83308200D02*
X139195800Y-83308200D01*
X104648000Y-72898000D02*
X107188000Y-75438000D01*
X101600000Y-73914000D02*
X101600000Y-73152000D01*
X139195800Y-83308200D02*
X139192000Y-83312000D01*
X111709680Y-77165680D02*
X116712054Y-77165680D01*
X100076000Y-75438000D02*
X101600000Y-73914000D01*
X101600000Y-73152000D02*
X101854000Y-72898000D01*
%TO.N,Net-(R27-Pad1)*%
X101930000Y-80604000D02*
X100416000Y-80604000D01*
X100416000Y-80604000D02*
X99060000Y-79248000D01*
%TO.N,GPS_RX*%
X101727947Y-72593680D02*
X104851680Y-72593680D01*
X111913360Y-76861360D02*
X117194640Y-76861360D01*
X101295680Y-73025946D02*
X101727947Y-72593680D01*
X96774000Y-76454000D02*
X98094320Y-75133680D01*
X98094320Y-75133680D02*
X99949946Y-75133680D01*
X110185680Y-75133680D02*
X111913360Y-76861360D01*
X96774000Y-78514000D02*
X96774000Y-76454000D01*
X139958200Y-82808200D02*
X139954000Y-82804000D01*
X104851680Y-72593680D02*
X104851680Y-72671306D01*
X101295680Y-73787946D02*
X101295680Y-73025946D01*
X107314054Y-75133680D02*
X110185680Y-75133680D01*
X117194640Y-76861360D02*
X117602000Y-76454000D01*
X141062400Y-82808200D02*
X139958200Y-82808200D01*
X99949946Y-75133680D02*
X101295680Y-73787946D01*
X97254000Y-78994000D02*
X96774000Y-78514000D01*
X104851680Y-72671306D02*
X107314054Y-75133680D01*
%TO.N,Net-(R28-Pad1)*%
X101930000Y-81704000D02*
X99484000Y-81704000D01*
X99484000Y-81704000D02*
X98806000Y-81026000D01*
%TO.N,GPS_TIM*%
X97254000Y-81026000D02*
X96520000Y-81760000D01*
X108300122Y-98806000D02*
X118364000Y-98806000D01*
X96520000Y-84074000D02*
X97124122Y-84678122D01*
X145742400Y-85988200D02*
X145742400Y-88338400D01*
X97124122Y-84678122D02*
X97124122Y-87630000D01*
X145938080Y-88534080D02*
X145938080Y-89519920D01*
X98552000Y-89057877D02*
X98551999Y-89057877D01*
X145742400Y-88338400D02*
X145938080Y-88534080D01*
X145938080Y-89519920D02*
X145542000Y-89916000D01*
X97124122Y-87630000D02*
X98552000Y-89057877D01*
X98551999Y-89057877D02*
X108300122Y-98806000D01*
X96520000Y-81760000D02*
X96520000Y-84074000D01*
X118364000Y-98806000D02*
X118618000Y-98552000D01*
%TO.N,BP_SCL*%
X140157680Y-71577680D02*
X138616280Y-70036280D01*
X133858000Y-69342000D02*
X134874000Y-69342000D01*
X146742400Y-70628200D02*
X146742400Y-71951600D01*
X133858000Y-68834000D02*
X133350000Y-68326000D01*
X131318000Y-68326000D02*
X130556000Y-67564000D01*
X142924374Y-72390000D02*
X142112053Y-71577680D01*
X133858000Y-69342000D02*
X133858000Y-68834000D01*
X130556000Y-67564000D02*
X130556000Y-66548000D01*
X133350000Y-68326000D02*
X131318000Y-68326000D01*
X146742400Y-71951600D02*
X146304000Y-72390000D01*
X133557700Y-69642300D02*
X133858000Y-69342000D01*
X146304000Y-72390000D02*
X142924374Y-72390000D01*
X133557700Y-70078100D02*
X133557700Y-69642300D01*
X135382000Y-69342000D02*
X134874000Y-69342000D01*
X142112053Y-71577680D02*
X140157680Y-71577680D01*
X136711280Y-70036280D02*
X136017000Y-69342000D01*
X138616280Y-70036280D02*
X136711280Y-70036280D01*
X136017000Y-69342000D02*
X135382000Y-69342000D01*
%TO.N,BP_SDA*%
X146242400Y-70628200D02*
X146242400Y-71586000D01*
X133045200Y-70840600D02*
X132613400Y-70840600D01*
X131826000Y-70612000D02*
X131318000Y-70612000D01*
X131064000Y-70866000D02*
X131064000Y-71882000D01*
X132080000Y-71628000D02*
X131064000Y-71628000D01*
X132613400Y-70840600D02*
X132334000Y-71120000D01*
X145742720Y-72085680D02*
X143459680Y-72085680D01*
X132334000Y-71120000D02*
X132334000Y-71374000D01*
X146242400Y-71586000D02*
X145742720Y-72085680D01*
X132334000Y-71374000D02*
X132080000Y-71628000D01*
X131318000Y-70612000D02*
X131064000Y-70866000D01*
X143459680Y-72085680D02*
X143256000Y-71882000D01*
D71*
%TO.N,Net-(R31-Pad2)*%
X102870000Y-88900000D02*
X102616000Y-89154000D01*
X102616000Y-89154000D02*
X102616000Y-89916000D01*
X111252000Y-82804000D02*
X109728000Y-82804000D01*
X109728000Y-82804000D02*
X108966000Y-83566000D01*
X108966000Y-85991382D02*
X106057382Y-88900000D01*
X106057382Y-88900000D02*
X102870000Y-88900000D01*
X108966000Y-83566000D02*
X108966000Y-85991382D01*
D68*
%TO.N,W_SCK*%
X114574178Y-86741000D02*
X120015000Y-86741000D01*
X115510600Y-91735400D02*
X114163600Y-91735400D01*
X122782640Y-75083360D02*
X123444000Y-74422000D01*
X113563880Y-91135680D02*
X113563880Y-87751298D01*
X121210720Y-76203786D02*
X122331145Y-75083360D01*
X139013254Y-72491120D02*
X139446000Y-72491120D01*
X139807200Y-72308200D02*
X141062400Y-72308200D01*
X139624280Y-72491120D02*
X139807200Y-72308200D01*
X137082374Y-74422000D02*
X138938000Y-72566374D01*
X120015000Y-86741000D02*
X121210720Y-85545280D01*
X114163600Y-91735400D02*
X113563880Y-91135680D01*
X122331145Y-75083360D02*
X122782640Y-75083360D01*
X138938000Y-72566374D02*
X139013254Y-72491120D01*
X123444000Y-74422000D02*
X136652000Y-74422000D01*
X121210720Y-85545280D02*
X121210720Y-76203786D01*
X139446000Y-72491120D02*
X139624280Y-72491120D01*
X113563880Y-87751298D02*
X114574178Y-86741000D01*
X136652000Y-74422000D02*
X137082374Y-74422000D01*
%TO.N,W_MISO*%
X132818040Y-74726320D02*
X137819454Y-74726320D01*
X122986320Y-75387680D02*
X123647680Y-74726320D01*
X115510600Y-89735400D02*
X119306600Y-89735400D01*
X122457199Y-75387680D02*
X122986320Y-75387680D01*
X138758774Y-73787000D02*
X140665200Y-73787000D01*
X129996720Y-74727280D02*
X132817080Y-74727280D01*
X121515040Y-87526960D02*
X121515040Y-76329841D01*
X119306600Y-89735400D02*
X121515040Y-87526960D01*
X132817080Y-74727280D02*
X132818040Y-74726320D01*
X121515040Y-76329841D02*
X121528440Y-76316440D01*
X121528440Y-76316440D02*
X122457199Y-75387680D01*
X137819454Y-74726320D02*
X138758774Y-73787000D01*
X129995760Y-74726320D02*
X129996720Y-74727280D01*
X123647680Y-74726320D02*
X129995760Y-74726320D01*
%TO.N,W_MOSI*%
X122583253Y-75692000D02*
X123190000Y-75692000D01*
X113868200Y-90246200D02*
X114325400Y-90703400D01*
X138681147Y-74295000D02*
X140766800Y-74295000D01*
X121819360Y-76455894D02*
X122583253Y-75692000D01*
X123190000Y-75692000D02*
X123850400Y-75031600D01*
X114325400Y-90703400D02*
X119862600Y-90703400D01*
X113868200Y-88188800D02*
X113868200Y-90246200D01*
X137944547Y-75031600D02*
X138681147Y-74295000D01*
X115510600Y-87735400D02*
X114321600Y-87735400D01*
X119862600Y-90703400D02*
X121819360Y-88746640D01*
X114321600Y-87735400D02*
X113868200Y-88188800D01*
X123850400Y-75031600D02*
X137944547Y-75031600D01*
X121819360Y-88746640D02*
X121819360Y-76455894D01*
%TO.N,FLASH_MISO*%
X161391600Y-85318600D02*
X167844626Y-85318600D01*
X161163000Y-85090000D02*
X161391600Y-85318600D01*
X169614650Y-97339350D02*
X168059100Y-97339350D01*
X167844626Y-85318600D02*
X168503120Y-85977094D01*
X168503120Y-85977094D02*
X168503120Y-91387293D01*
X160782000Y-85090000D02*
X161163000Y-85090000D01*
X168503120Y-91387293D02*
X170358280Y-93242454D01*
X170358280Y-93242454D02*
X170358280Y-96595720D01*
X156422400Y-83308200D02*
X158543000Y-83308200D01*
X170358280Y-96595720D02*
X169614650Y-97339350D01*
%TO.N,FLASH_SCK*%
X170841360Y-90650707D02*
X171399200Y-91208548D01*
X171399200Y-98323400D02*
X171685150Y-98609350D01*
X156422400Y-83808200D02*
X169562412Y-83808200D01*
X170130640Y-88389161D02*
X170841360Y-89099882D01*
X177546000Y-97536000D02*
X176530000Y-98552000D01*
X170130640Y-84376428D02*
X170130640Y-88389161D01*
X169562412Y-83808200D02*
X170130640Y-84376428D01*
X170841360Y-89099882D02*
X170841360Y-90650707D01*
X176530000Y-98552000D02*
X175768000Y-98552000D01*
X175348900Y-98609350D02*
X171685150Y-98609350D01*
X177546000Y-97508000D02*
X177546000Y-97536000D01*
X171399200Y-91208548D02*
X171399200Y-98323400D01*
%TO.N,FLASH_MOSI*%
X169826320Y-88515214D02*
X169826320Y-84502482D01*
X159186000Y-82808200D02*
X159512000Y-83134200D01*
X169826320Y-84502482D02*
X169436358Y-84112520D01*
X160692680Y-84112520D02*
X160451800Y-84353400D01*
X169436358Y-84112520D02*
X160692680Y-84112520D01*
X171043600Y-99517200D02*
X171043600Y-91283322D01*
X171043600Y-91283322D02*
X170537040Y-90776760D01*
X156422400Y-82808200D02*
X159186000Y-82808200D01*
X170537040Y-90776760D02*
X170537040Y-89225936D01*
X170537040Y-89225936D02*
X169826320Y-88515214D01*
X171405750Y-99879350D02*
X171043600Y-99517200D01*
X175348900Y-99879350D02*
X171405750Y-99879350D01*
%TO.N,W_SS*%
X122123680Y-90220320D02*
X122123680Y-76581947D01*
X135026880Y-81076800D02*
X134442200Y-81661480D01*
X141062400Y-79308200D02*
X140200026Y-79308200D01*
X129436974Y-75842974D02*
X129436974Y-78867960D01*
X131037887Y-81255313D02*
X131037887Y-80467913D01*
X129436974Y-78867960D02*
X129877214Y-79308200D01*
X124054080Y-75335920D02*
X128929920Y-75335920D01*
X135026880Y-80544347D02*
X135026880Y-81076800D01*
X123240320Y-76149680D02*
X124054080Y-75335920D01*
X129920287Y-79351273D02*
X129919807Y-79350793D01*
X131037887Y-80467913D02*
X129920767Y-79350793D01*
X118608600Y-93735400D02*
X122123680Y-90220320D01*
X128929920Y-75335920D02*
X129436974Y-75842974D01*
X129920767Y-79350793D02*
X129920287Y-79351273D01*
X139827466Y-79680760D02*
X135890466Y-79680760D01*
X115510600Y-93735400D02*
X118608600Y-93735400D01*
X140200026Y-79308200D02*
X139827466Y-79680760D01*
X134442200Y-81661480D02*
X131444054Y-81661480D01*
X131444054Y-81661480D02*
X131037887Y-81255313D01*
X122123680Y-76581947D02*
X122555946Y-76149680D01*
X135890466Y-79680760D02*
X135026880Y-80544347D01*
X122555946Y-76149680D02*
X123240320Y-76149680D01*
%TO.N,W_RST*%
X129132654Y-75969028D02*
X129132654Y-78994013D01*
X122428000Y-76708000D02*
X122682000Y-76454000D01*
X131318000Y-81965800D02*
X134645400Y-81965800D01*
X129947800Y-79808200D02*
X130708400Y-80568800D01*
X124257760Y-75640240D02*
X128803866Y-75640240D01*
X119402600Y-95735400D02*
X122428000Y-92710000D01*
X115510600Y-95735400D02*
X119402600Y-95735400D01*
X128803866Y-75640240D02*
X129132654Y-75969028D01*
X130708400Y-81356200D02*
X131318000Y-81965800D01*
X130708400Y-80568800D02*
X130708400Y-81356200D01*
X140130400Y-79808200D02*
X141062400Y-79808200D01*
X134645400Y-81965800D02*
X135331200Y-81280000D01*
X136016520Y-79985080D02*
X139953520Y-79985080D01*
X129946840Y-79808200D02*
X129947800Y-79808200D01*
X122682000Y-76454000D02*
X123444000Y-76454000D01*
X123444000Y-76454000D02*
X124257760Y-75640240D01*
X122428000Y-92710000D02*
X122428000Y-76708000D01*
X139953520Y-79985080D02*
X140130400Y-79808200D01*
X135331200Y-81280000D02*
X135331200Y-80670400D01*
X135331200Y-80670400D02*
X136016520Y-79985080D01*
X129132654Y-78994013D02*
X129946840Y-79808200D01*
%TO.N,W_IO0*%
X148742400Y-87680800D02*
X148031200Y-88392000D01*
X129898400Y-89735400D02*
X128727200Y-90906600D01*
X128727200Y-90906600D02*
X128727200Y-92354400D01*
X131876800Y-92964000D02*
X131597400Y-92684600D01*
X130310600Y-89735400D02*
X129898400Y-89735400D01*
X138684000Y-92456000D02*
X138684000Y-91948000D01*
X129057400Y-92684600D02*
X131597400Y-92684600D01*
X128727200Y-92354400D02*
X129057400Y-92684600D01*
X148742400Y-85988200D02*
X148742400Y-87680800D01*
X138176000Y-92964000D02*
X138684000Y-92456000D01*
X138176000Y-92964000D02*
X131876800Y-92964000D01*
%TO.N,W_IO1*%
X129032000Y-94742000D02*
X128422400Y-94132400D01*
X131826000Y-94742000D02*
X129032000Y-94742000D01*
X132995360Y-93572640D02*
X138455887Y-93572640D01*
X139954000Y-92964000D02*
X140462000Y-92964000D01*
X149742400Y-85988200D02*
X149742400Y-88636600D01*
X129815600Y-87735400D02*
X130310600Y-87735400D01*
X132995360Y-93572640D02*
X131826000Y-94742000D01*
X138455887Y-93572640D02*
X139192000Y-92836527D01*
X139826527Y-92836527D02*
X139954000Y-92964000D01*
X128422400Y-89128600D02*
X129815600Y-87735400D01*
X128422400Y-94132400D02*
X128422400Y-89154000D01*
X139192000Y-92836527D02*
X139826527Y-92836527D01*
%TO.N,BEEP*%
X156422400Y-79308200D02*
X160562800Y-79308200D01*
X160562800Y-79308200D02*
X161086800Y-79832200D01*
X161086800Y-79832200D02*
X161086800Y-81711800D01*
%TO.N,W_IO2*%
X150742400Y-88106000D02*
X150742400Y-85988200D01*
X128549400Y-98577400D02*
X132207000Y-98577400D01*
X152476200Y-90170000D02*
X151130000Y-88823800D01*
X130310600Y-85735400D02*
X129885200Y-85735400D01*
X152476200Y-92456000D02*
X152476200Y-90170000D01*
X128118080Y-87502520D02*
X128118080Y-98146080D01*
X151130000Y-88493600D02*
X150742400Y-88106000D01*
X151130000Y-88823800D02*
X151130000Y-88493600D01*
X150317680Y-96443320D02*
X151968200Y-94792800D01*
X134010400Y-100380800D02*
X149301200Y-100380800D01*
X128118080Y-98146080D02*
X128549400Y-98577400D01*
X150317680Y-99364320D02*
X150317680Y-96443320D01*
X129885200Y-85735400D02*
X128118080Y-87502520D01*
X149301200Y-100380800D02*
X150317680Y-99364320D01*
X132207000Y-98577400D02*
X134010400Y-100380800D01*
%TO.N,W_IO3*%
X139041040Y-93876960D02*
X139369800Y-93548200D01*
X131848600Y-95735400D02*
X133707040Y-93876960D01*
X150583900Y-88658700D02*
X150583900Y-88963500D01*
X150242400Y-85988200D02*
X150242400Y-88317200D01*
X130310600Y-95735400D02*
X131848600Y-95735400D01*
X133707040Y-93876960D02*
X139041040Y-93876960D01*
X150242400Y-88317200D02*
X150583900Y-88658700D01*
%TO.N,~{FLASH_WP}*%
X161569400Y-84658200D02*
X167614600Y-84658200D01*
X159308800Y-80949800D02*
X159308800Y-82092800D01*
X170662600Y-93116400D02*
X170662600Y-98069400D01*
X167614600Y-84658200D02*
X168807440Y-85851040D01*
X156422400Y-80308200D02*
X158667200Y-80308200D01*
X170662600Y-98069400D02*
X170180000Y-98552000D01*
X170180000Y-98552000D02*
X168402000Y-98552000D01*
X168807440Y-91261240D02*
X170662600Y-93116400D01*
X168807440Y-85851040D02*
X168807440Y-91261240D01*
X158667200Y-80308200D02*
X159308800Y-80949800D01*
%TO.N,~{FLASH_HOLD}*%
X156422400Y-79808200D02*
X158954600Y-79808200D01*
X169369586Y-83185000D02*
X170079593Y-83895007D01*
X158954600Y-79808200D02*
X159867600Y-80721200D01*
X159867600Y-82219800D02*
X160832800Y-83185000D01*
X171145680Y-90524653D02*
X171145680Y-88973828D01*
X172015350Y-97339350D02*
X171704000Y-97028000D01*
X170434960Y-88263107D02*
X170434960Y-84250374D01*
X170434960Y-84250374D02*
X170079593Y-83895007D01*
X159867600Y-80721200D02*
X159867600Y-82219800D01*
X171145680Y-88973828D02*
X170434960Y-88263107D01*
X171704000Y-91082974D02*
X171145680Y-90524653D01*
X160832800Y-83185000D02*
X169369586Y-83185000D01*
X175348900Y-97339350D02*
X172015350Y-97339350D01*
X171704000Y-97028000D02*
X171704000Y-91082974D01*
%TO.N,W_IO4*%
X130310600Y-93735400D02*
X130768600Y-93735400D01*
X149242400Y-85988200D02*
X149242400Y-88349200D01*
X138302053Y-93268320D02*
X132283680Y-93268320D01*
X139495374Y-92075000D02*
X138302053Y-93268320D01*
X131826000Y-93726000D02*
X130556000Y-93726000D01*
X140766800Y-92075000D02*
X139495374Y-92075000D01*
X149242400Y-88349200D02*
X148717000Y-88874600D01*
X132283680Y-93268320D02*
X131826000Y-93726000D01*
%TO.N,W_IO5*%
X153085800Y-93980000D02*
X153085800Y-95580200D01*
X149504880Y-100685120D02*
X133884347Y-100685120D01*
X153085800Y-91744800D02*
X152780520Y-91439520D01*
X150622000Y-98044000D02*
X150622000Y-99568000D01*
X152780520Y-91439520D02*
X152780520Y-89966320D01*
X150622000Y-99568000D02*
X149504880Y-100685120D01*
X133884347Y-100685120D02*
X132080946Y-98881720D01*
X153085800Y-95580200D02*
X150622000Y-98044000D01*
X151242400Y-88174200D02*
X152780520Y-89712320D01*
X127277027Y-97735400D02*
X115510600Y-97735400D01*
X151242400Y-85988200D02*
X151242400Y-88174200D01*
X152780520Y-89712320D02*
X152780520Y-89966320D01*
X128423347Y-98881720D02*
X127277027Y-97735400D01*
X132080946Y-98881720D02*
X128423347Y-98881720D01*
%TO.N,RX_USB*%
X168730200Y-74134600D02*
X168730200Y-73506800D01*
X156422400Y-78308200D02*
X166903400Y-78308200D01*
X168376600Y-75260200D02*
X168376600Y-74488200D01*
X168376600Y-74488200D02*
X168730200Y-74134600D01*
X166903400Y-78308200D02*
X166928800Y-78282800D01*
%TO.N,TX_USB*%
X156422400Y-77808200D02*
X166590600Y-77808200D01*
X166700200Y-77698600D02*
X168706800Y-77698600D01*
X166590600Y-77808200D02*
X166700200Y-77698600D01*
X169037000Y-76225400D02*
X169037000Y-74498200D01*
X169230200Y-74305000D02*
X169230200Y-73506800D01*
X169037000Y-74498200D02*
X169230200Y-74305000D01*
%TO.N,BP_INT*%
X141986000Y-71882000D02*
X142240000Y-72136000D01*
X142240000Y-72644000D02*
X142240000Y-72136000D01*
X134391400Y-72186800D02*
X139498226Y-72186800D01*
X141062400Y-72808200D02*
X142075800Y-72808200D01*
X134057700Y-71853100D02*
X134391400Y-72186800D01*
X139803026Y-71882000D02*
X141986000Y-71882000D01*
X139498226Y-72186800D02*
X139803026Y-71882000D01*
X134057700Y-71603100D02*
X134057700Y-71853100D01*
X142075800Y-72808200D02*
X142240000Y-72644000D01*
%TO.N,IMU_INT*%
X129032000Y-84582000D02*
X131318000Y-84582000D01*
X127668700Y-81809000D02*
X128037000Y-81809000D01*
X128778000Y-84328000D02*
X129032000Y-84582000D01*
X128778000Y-82550000D02*
X128778000Y-84328000D01*
X141062400Y-83808200D02*
X137476600Y-83808200D01*
X137476600Y-83808200D02*
X137236200Y-84048600D01*
X128037000Y-81809000D02*
X128778000Y-82550000D01*
%TO.N,SD_DAT2*%
X153927800Y-71885800D02*
X153797000Y-71755000D01*
X154305000Y-71885800D02*
X153927800Y-71885800D01*
X173863000Y-81153000D02*
X173863000Y-82423000D01*
X153797000Y-71755000D02*
X153797000Y-71120000D01*
%TO.N,SD_DAT3*%
X153085800Y-72212200D02*
X153339800Y-72466200D01*
X172643800Y-80822800D02*
X172135800Y-81330800D01*
X172135800Y-81330800D02*
X172135800Y-83058000D01*
X172135800Y-83058000D02*
X172415200Y-83337400D01*
X172415200Y-83337400D02*
X172897800Y-83337400D01*
X172720000Y-80822800D02*
X172643800Y-80822800D01*
X153242400Y-70628200D02*
X153242400Y-71776200D01*
X153242400Y-71776200D02*
X153085800Y-71932800D01*
X153085800Y-71932800D02*
X153085800Y-72212200D01*
%TO.N,SD_CMD*%
X151242400Y-70628200D02*
X151242400Y-71998200D01*
X172288200Y-84480400D02*
X173075600Y-84480400D01*
X171196000Y-79832200D02*
X171196000Y-83388200D01*
X171196000Y-83388200D02*
X172288200Y-84480400D01*
%TO.N,SD_CLK*%
X171805600Y-80518000D02*
X172186600Y-80137000D01*
X174777400Y-81000600D02*
X174777400Y-86334600D01*
X173913800Y-80137000D02*
X174777400Y-81000600D01*
X172186600Y-80137000D02*
X173913800Y-80137000D01*
X174777400Y-86334600D02*
X174447200Y-86664800D01*
X152742400Y-70628200D02*
X152742400Y-71768200D01*
X174447200Y-86664800D02*
X173913800Y-86664800D01*
X152742400Y-71768200D02*
X152527000Y-71983600D01*
%TO.N,SD_DAT0*%
X170637200Y-83362800D02*
X170637200Y-77647800D01*
X164423600Y-77308200D02*
X156422400Y-77308200D01*
X171043600Y-88011000D02*
X171043600Y-83769200D01*
X170078400Y-77089000D02*
X164642800Y-77089000D01*
X164642800Y-77089000D02*
X164423600Y-77308200D01*
X171043600Y-83769200D02*
X170637200Y-83362800D01*
X170637200Y-77647800D02*
X170078400Y-77089000D01*
X171906400Y-88873800D02*
X171043600Y-88011000D01*
X173365000Y-88873800D02*
X171906400Y-88873800D01*
%TO.N,SD_DAT1*%
X172085480Y-76784680D02*
X172504100Y-77203300D01*
X156422400Y-76808200D02*
X156445920Y-76784680D01*
X172504100Y-77203300D02*
X175310800Y-80010000D01*
X175310800Y-80010000D02*
X175310800Y-89611200D01*
X172083600Y-76782800D02*
X172504100Y-77203300D01*
X175310800Y-89611200D02*
X174904400Y-90017600D01*
X156445920Y-76784680D02*
X172085480Y-76784680D01*
X174904400Y-90017600D02*
X173710600Y-90017600D01*
%TO.N,~{SD_DETECT}*%
X171450000Y-90398600D02*
X171450000Y-88847774D01*
X170739280Y-84124320D02*
X170332880Y-83717920D01*
X170739280Y-88137054D02*
X170739280Y-84124320D01*
X170332880Y-79629000D02*
X169512080Y-78808200D01*
X170332880Y-83717920D02*
X170332880Y-79629000D01*
X173365000Y-91073800D02*
X172125200Y-91073800D01*
X169512080Y-78808200D02*
X156422400Y-78808200D01*
X177800000Y-94206000D02*
X174216000Y-94206000D01*
X173482000Y-93472000D02*
X173482000Y-91186000D01*
X174216000Y-94206000D02*
X173482000Y-93472000D01*
X172125200Y-91073800D02*
X171450000Y-90398600D01*
X171450000Y-88847774D02*
X170739280Y-88137054D01*
%TD*%
M02*
