%TF.GenerationSoftware,KiCad,Pcbnew,(6.0.10)*%
%TF.CreationDate,2023-01-06T17:42:40-07:00*%
%TF.ProjectId,Flight-Computer,466c6967-6874-42d4-936f-6d7075746572,1.0*%
%TF.SameCoordinates,Original*%
%TF.FileFunction,Copper,L4,Bot*%
%TF.FilePolarity,Positive*%
%FSLAX46Y46*%
G04 Gerber Fmt 4.6, Leading zero omitted, Abs format (unit mm)*
G04 Created by KiCad (PCBNEW (6.0.10)) date 2023-01-06 17:42:40*
%MOMM*%
%LPD*%
G01*
G04 APERTURE LIST*
%TA.AperFunction,SMDPad,CuDef*%
%ADD10R,5.080000X2.413000*%
%TD*%
%TA.AperFunction,ComponentPad*%
%ADD11C,1.066800*%
%TD*%
%TA.AperFunction,ComponentPad*%
%ADD12R,1.150000X1.150000*%
%TD*%
%TA.AperFunction,ComponentPad*%
%ADD13C,1.150000*%
%TD*%
%TA.AperFunction,ComponentPad*%
%ADD14C,1.408000*%
%TD*%
%TA.AperFunction,ComponentPad*%
%ADD15R,2.050000X2.050000*%
%TD*%
%TA.AperFunction,ComponentPad*%
%ADD16C,2.050000*%
%TD*%
%TA.AperFunction,ComponentPad*%
%ADD17O,0.650000X1.300000*%
%TD*%
%TA.AperFunction,ComponentPad*%
%ADD18O,1.550000X0.775000*%
%TD*%
%TA.AperFunction,ComponentPad*%
%ADD19C,1.701800*%
%TD*%
%TA.AperFunction,ComponentPad*%
%ADD20R,1.650000X1.650000*%
%TD*%
%TA.AperFunction,ComponentPad*%
%ADD21C,1.650000*%
%TD*%
%TA.AperFunction,SMDPad,CuDef*%
%ADD22C,1.524000*%
%TD*%
%TA.AperFunction,ViaPad*%
%ADD23C,0.500000*%
%TD*%
%TA.AperFunction,ViaPad*%
%ADD24C,1.016000*%
%TD*%
%TA.AperFunction,Conductor*%
%ADD25C,0.508000*%
%TD*%
%TA.AperFunction,Conductor*%
%ADD26C,0.177800*%
%TD*%
%TA.AperFunction,Conductor*%
%ADD27C,0.254000*%
%TD*%
%TA.AperFunction,Conductor*%
%ADD28C,0.762000*%
%TD*%
%TA.AperFunction,Conductor*%
%ADD29C,1.778000*%
%TD*%
%TA.AperFunction,Conductor*%
%ADD30C,0.381000*%
%TD*%
%TA.AperFunction,Conductor*%
%ADD31C,0.266700*%
%TD*%
G04 APERTURE END LIST*
D10*
%TO.P,AE2,2,Shield*%
%TO.N,Earth*%
X96304100Y-82232500D03*
X96304100Y-91008200D03*
%TD*%
D11*
%TO.P,P3,1,1*%
%TO.N,3.3V*%
X135382000Y-66178050D03*
%TO.P,P3,2,2*%
X135382000Y-64908050D03*
%TO.P,P3,3,3*%
%TO.N,Earth*%
X136652000Y-66178050D03*
%TO.P,P3,4,4*%
X136652000Y-64908050D03*
%TO.P,P3,5,5*%
X137922000Y-66178050D03*
%TO.P,P3,6,6*%
X137922000Y-64908050D03*
%TO.P,P3,7,7*%
%TO.N,SWDIO*%
X139192000Y-66178050D03*
%TO.P,P3,8,8*%
%TO.N,Earth*%
X139192000Y-64908050D03*
%TO.P,P3,9,9*%
%TO.N,SWCLK*%
X140462000Y-66178050D03*
%TO.P,P3,10,10*%
%TO.N,Earth*%
X140462000Y-64908050D03*
%TO.P,P3,11,11*%
%TO.N,unconnected-(P3-Pad11)*%
X141732000Y-66178050D03*
%TO.P,P3,12,12*%
%TO.N,Earth*%
X141732000Y-64908050D03*
%TO.P,P3,13,13*%
%TO.N,SWO*%
X143002000Y-66178050D03*
%TO.P,P3,14,14*%
%TO.N,Earth*%
X143002000Y-64908050D03*
%TO.P,P3,15,15*%
%TO.N,NRST*%
X144272000Y-66178050D03*
%TO.P,P3,16,16*%
%TO.N,Earth*%
X144272000Y-64908050D03*
%TO.P,P3,17,17*%
%TO.N,unconnected-(P3-Pad17)*%
X145542000Y-66178050D03*
%TO.P,P3,18,18*%
%TO.N,Earth*%
X145542000Y-64908050D03*
%TO.P,P3,19,19*%
%TO.N,unconnected-(P3-Pad19)*%
X146812000Y-66178050D03*
%TO.P,P3,20,20*%
%TO.N,Earth*%
X146812000Y-64908050D03*
%TD*%
D12*
%TO.P,P7,1,+12V*%
%TO.N,VIN*%
X140081000Y-98679000D03*
D13*
%TO.P,P7,2,GND*%
%TO.N,MOTOR4_PWM*%
X138074000Y-98679000D03*
%TO.P,P7,3,3*%
%TO.N,Net-(P7-Pad3)*%
X136068000Y-98679000D03*
%TD*%
D14*
%TO.P,BZ1,1,-*%
%TO.N,BEEP*%
X161122200Y-81788000D03*
%TO.P,BZ1,2,+*%
%TO.N,Earth*%
X168722200Y-81788000D03*
%TD*%
D15*
%TO.P,P1,1,1*%
%TO.N,/PIN_HARN*%
X173790500Y-64557500D03*
D16*
%TO.P,P1,2,2*%
%TO.N,Earth*%
X173790500Y-60597500D03*
%TD*%
D17*
%TO.P,P8,S1,SHIELD*%
%TO.N,Earth*%
X181932600Y-74414000D03*
%TO.P,P8,S2,SHIELD*%
X181932600Y-69414000D03*
D18*
X184632600Y-68414000D03*
X184632600Y-75414000D03*
%TD*%
D12*
%TO.P,P5,1,+12V*%
%TO.N,VIN*%
X157454500Y-98654800D03*
D13*
%TO.P,P5,2,GND*%
%TO.N,MOTOR3_PWM*%
X155447500Y-98654800D03*
%TO.P,P5,3,3*%
%TO.N,Net-(P5-Pad3)*%
X153441500Y-98654800D03*
%TD*%
D19*
%TO.P,P9,1,5*%
%TO.N,VIN*%
X127267252Y-64425101D03*
%TO.P,P9,2,6*%
%TO.N,VIN_SW*%
X123767249Y-64425101D03*
%TO.P,P9,3,5*%
X120267248Y-64425101D03*
%TO.P,P9,4,6*%
%TO.N,Net-(P9-Pad4)*%
X116767247Y-64425101D03*
%TO.P,P9,5,5*%
%TO.N,VIN_SW*%
X113267247Y-64425101D03*
%TO.P,P9,6,6*%
%TO.N,Net-(P9-Pad6)*%
X109767246Y-64425101D03*
%TD*%
D12*
%TO.P,P4,1,+12V*%
%TO.N,VIN*%
X166090500Y-98679000D03*
D13*
%TO.P,P4,2,GND*%
%TO.N,MOTOR1_PWM*%
X164083500Y-98679000D03*
%TO.P,P4,3,3*%
%TO.N,Net-(P4-Pad3)*%
X162077500Y-98679000D03*
%TD*%
D20*
%TO.P,P2,1,5*%
%TO.N,/PIN_SCREW*%
X98552000Y-67465000D03*
D21*
%TO.P,P2,2,6*%
%TO.N,Earth*%
X98552000Y-70965000D03*
%TD*%
D12*
%TO.P,P6,1,+12V*%
%TO.N,VIN*%
X148818500Y-98654800D03*
D13*
%TO.P,P6,2,GND*%
%TO.N,MOTOR2_PWM*%
X146811500Y-98654800D03*
%TO.P,P6,3,3*%
%TO.N,Net-(P6-Pad3)*%
X144805500Y-98654800D03*
%TD*%
D22*
%TO.P,TP1,1*%
%TO.N,3.3V*%
X156210000Y-69088000D03*
%TD*%
D23*
%TO.N,Earth*%
X107143000Y-80563000D03*
D24*
X178943000Y-77724000D03*
D23*
X138176000Y-72644000D03*
X171196000Y-100838000D03*
D24*
X162052000Y-87757000D03*
D23*
X142441800Y-76808200D03*
X161036000Y-70739000D03*
X126873000Y-72263000D03*
D24*
X120650000Y-85725000D03*
D23*
X133477000Y-85852000D03*
X150661000Y-64809000D03*
X131889500Y-81978500D03*
X131038600Y-79273400D03*
X165227000Y-90297000D03*
X114935000Y-70866000D03*
X141795500Y-89344500D03*
X112182000Y-87163000D03*
X123317000Y-70358000D03*
X125730000Y-81280000D03*
X155829000Y-85344000D03*
X121793000Y-74168000D03*
X169418000Y-88519000D03*
X133748400Y-70467600D03*
D24*
X159512000Y-90043000D03*
D23*
X121031000Y-98806000D03*
X112313000Y-89363000D03*
X173990000Y-72898000D03*
X136931400Y-70967600D03*
X133684000Y-97710000D03*
D24*
X166243000Y-66929000D03*
D23*
X127241300Y-80124300D03*
X96304100Y-79667100D03*
X113792000Y-74803000D03*
X143242400Y-69228600D03*
X139230100Y-80886300D03*
D24*
X179832000Y-93853000D03*
D23*
X137477500Y-82232500D03*
X171577000Y-74549000D03*
X175133000Y-89154000D03*
X119938800Y-82499200D03*
X96304100Y-93510100D03*
X150622000Y-90805000D03*
D24*
X159067500Y-64452500D03*
D23*
%TO.N,3.3V*%
X106258000Y-87163000D03*
X169926000Y-91059000D03*
X172819000Y-69370000D03*
X127571500Y-82740500D03*
X136779000Y-85344000D03*
X157099000Y-71374000D03*
X146177000Y-67818000D03*
X175006000Y-86995000D03*
D24*
X158750000Y-61976000D03*
D23*
X155311800Y-85988200D03*
X142113000Y-69215000D03*
X136906000Y-69977000D03*
X143764000Y-84582000D03*
X127254000Y-79248000D03*
X133322000Y-73180000D03*
X142748000Y-77724000D03*
X175514000Y-96012000D03*
X133477000Y-89789000D03*
X133985000Y-84328000D03*
X124333000Y-82423000D03*
X139400400Y-81808200D03*
X126873000Y-75819000D03*
X119380000Y-74422000D03*
%TO.N,NRST*%
X144272000Y-73533000D03*
%TO.N,SWCLK*%
X151156628Y-69037680D03*
%TO.N,SWDIO*%
X145796000Y-75057000D03*
X141986000Y-70231000D03*
%TO.N,SDA*%
X152704800Y-88239600D03*
X130302000Y-80391000D03*
X139827000Y-86233000D03*
X135890000Y-86487000D03*
X118237000Y-79502000D03*
X136970000Y-83756000D03*
%TO.N,SCL*%
X140411200Y-85547200D03*
X134493000Y-85598000D03*
X129526851Y-80658149D03*
X118872000Y-78994000D03*
X152044400Y-87604600D03*
X135382000Y-82804000D03*
%TO.N,VIN*%
X126807001Y-73213001D03*
X120472200Y-74472800D03*
D24*
X167195500Y-62928500D03*
%TO.N,5V*%
X178971000Y-74069000D03*
D23*
X176403000Y-71374000D03*
X171196000Y-69088000D03*
%TO.N,DROGUE*%
X139316200Y-75308200D03*
X117729000Y-73152000D03*
%TO.N,MAIN*%
X124079000Y-71247000D03*
X149860000Y-73914000D03*
%TO.N,/Peripherals/D-*%
X172585000Y-71128000D03*
X172585000Y-72763000D03*
%TO.N,MOTOR1_PWM*%
X161417000Y-92710000D03*
%TO.N,SWO*%
X143383000Y-72898000D03*
%TO.N,MOTOR1_EN*%
X158496000Y-81026000D03*
X164465000Y-88138000D03*
%TO.N,MOTOR3_EN*%
X158496000Y-82042000D03*
X163652200Y-86537800D03*
%TO.N,~{USB_RST}*%
X158279600Y-74282800D03*
X164084000Y-75692000D03*
%TO.N,~{USB_SUSPEND}*%
X172466000Y-67818000D03*
X165735000Y-69215000D03*
%TO.N,~{SWITCH}*%
X129385000Y-73180000D03*
X148590000Y-73152000D03*
%TO.N,~{MAIN_CONT}*%
X137414000Y-73279000D03*
X139446000Y-73025000D03*
%TO.N,~{DROGUE_CONT}*%
X116014500Y-75628500D03*
X137109680Y-75641680D03*
%TO.N,~{GPS_RST}*%
X145288000Y-88900000D03*
X126238000Y-88773000D03*
%TO.N,~{GPS_SBOOT}*%
X121285000Y-77470000D03*
X136652000Y-76454000D03*
%TO.N,GPS_INT*%
X126873000Y-87884000D03*
X142875000Y-83185000D03*
%TO.N,GPS_TX*%
X118999000Y-77343000D03*
X142494000Y-82042000D03*
%TO.N,GPS_RX*%
X139446000Y-82804000D03*
X120496640Y-76861360D03*
%TO.N,GPS_TIM*%
X145542000Y-89916000D03*
X118618000Y-98552000D03*
%TO.N,BP_SDA*%
X133477000Y-71501000D03*
X143256000Y-71882000D03*
%TO.N,FLASH_MISO*%
X158543000Y-83308200D03*
X160782000Y-85090000D03*
%TO.N,FLASH_MOSI*%
X159512000Y-83134200D03*
X160451800Y-84353400D03*
%TO.N,W_IO0*%
X134670800Y-91236800D03*
X148031200Y-88392000D03*
%TO.N,W_IO1*%
X149742400Y-88636600D03*
X129540000Y-91821000D03*
%TO.N,W_IO2*%
X151638000Y-88773000D03*
X152400000Y-99695000D03*
%TO.N,W_IO3*%
X139446000Y-94742000D03*
X150583900Y-88963500D03*
%TO.N,~{FLASH_WP}*%
X161569400Y-84658200D03*
X159308800Y-82092800D03*
%TO.N,W_IO4*%
X148717000Y-88874600D03*
X135255000Y-92075000D03*
%TO.N,W_IO5*%
X153162000Y-88900000D03*
X154432000Y-99822000D03*
%TO.N,RX_USB*%
X166928800Y-78282800D03*
X168021000Y-76200000D03*
%TO.N,TX_USB*%
X168706800Y-77698600D03*
X169037000Y-76225400D03*
%TO.N,USB_DETECT*%
X176276000Y-75819000D03*
X169672000Y-79756000D03*
X154432000Y-81407000D03*
%TO.N,IMU_INT1*%
X124472700Y-80124300D03*
X142322800Y-80308200D03*
%TO.N,IMU_INT2*%
X139700000Y-84582000D03*
X128016000Y-85344000D03*
%TO.N,MAG_INT*%
X148082000Y-83566000D03*
X135255000Y-85217000D03*
%TO.N,MAG_DRDY*%
X137160000Y-84582000D03*
X144907000Y-83693000D03*
%TO.N,SD_DAT2*%
X154305000Y-71885800D03*
X175133000Y-83566000D03*
%TO.N,SD_DAT3*%
X153339800Y-72466200D03*
X175133000Y-84836000D03*
%TO.N,SD_CMD*%
X151242400Y-71998200D03*
X175133000Y-85852000D03*
%TO.N,SD_CLK*%
X173863000Y-82296000D03*
X152527000Y-71983600D03*
%TD*%
D25*
%TO.N,Earth*%
X96304100Y-82232500D02*
X96304100Y-79667100D01*
X96304100Y-93510100D02*
X96304100Y-91478100D01*
D26*
%TO.N,3.3V*%
X157099000Y-71374000D02*
X157099000Y-69977000D01*
X157099000Y-69977000D02*
X156210000Y-69088000D01*
D27*
%TO.N,NRST*%
X144272000Y-66178050D02*
X144272000Y-73533000D01*
D26*
%TO.N,SDA*%
X127812800Y-77419200D02*
X127000000Y-78232000D01*
X135954000Y-83756000D02*
X135890000Y-83820000D01*
X129590320Y-79679320D02*
X129590320Y-77774320D01*
X127000000Y-78232000D02*
X118928410Y-78232000D01*
X130302000Y-80391000D02*
X129590320Y-79679320D01*
X140462000Y-86233000D02*
X142087600Y-87858600D01*
X135890000Y-82423000D02*
X134239000Y-80772000D01*
X135890000Y-83820000D02*
X135890000Y-82423000D01*
X135890000Y-83820000D02*
X135890000Y-86487000D01*
X118237000Y-78923410D02*
X118237000Y-79502000D01*
X130683000Y-80772000D02*
X130302000Y-80391000D01*
X129590320Y-77774320D02*
X129235200Y-77419200D01*
X134239000Y-80772000D02*
X130683000Y-80772000D01*
X142087600Y-87858600D02*
X151561800Y-87858600D01*
X151561800Y-87858600D02*
X151942800Y-88239600D01*
X140462000Y-86233000D02*
X139827000Y-86233000D01*
X136970000Y-83756000D02*
X135954000Y-83756000D01*
X118928410Y-78232000D02*
X118237000Y-78923410D01*
X129235200Y-77419200D02*
X127812800Y-77419200D01*
X151942800Y-88239600D02*
X152704800Y-88239600D01*
%TO.N,SCL*%
X129526851Y-80658149D02*
X134493000Y-85598000D01*
X129286000Y-78105000D02*
X129286000Y-80418574D01*
X118872000Y-78994000D02*
X126746000Y-78994000D01*
X134493000Y-83693000D02*
X134493000Y-85598000D01*
X135382000Y-82804000D02*
X134493000Y-83693000D01*
X151765480Y-87325680D02*
X152044400Y-87604600D01*
X140411200Y-85547200D02*
X142189680Y-87325680D01*
X142189680Y-87325680D02*
X151765480Y-87325680D01*
X128905000Y-77724000D02*
X129286000Y-78105000D01*
X129286000Y-80418574D02*
X129526851Y-80658149D01*
X128016000Y-77724000D02*
X128905000Y-77724000D01*
X126746000Y-78994000D02*
X128016000Y-77724000D01*
D28*
%TO.N,VIN*%
X167195500Y-62928500D02*
X171069000Y-66802000D01*
X148818500Y-100736500D02*
X148793200Y-100761800D01*
D27*
X127446999Y-73213001D02*
X128397000Y-72263000D01*
D28*
X171069000Y-66802000D02*
X178816000Y-66802000D01*
D27*
X126807001Y-73213001D02*
X127446999Y-73213001D01*
D28*
X156133800Y-100761800D02*
X151282400Y-100761800D01*
D27*
X121266000Y-70504000D02*
X127254000Y-64516000D01*
X120472200Y-74472800D02*
X121266000Y-73679000D01*
D29*
X131240353Y-60452000D02*
X164719000Y-60452000D01*
D28*
X177520600Y-91922600D02*
X180467000Y-88976200D01*
D27*
X128397000Y-65659000D02*
X127127000Y-64389000D01*
D28*
X180467000Y-88976200D02*
X180467000Y-70104000D01*
D29*
X127267252Y-64425101D02*
X131240353Y-60452000D01*
D28*
X180467000Y-68453000D02*
X180467000Y-70104000D01*
X178816000Y-66802000D02*
X180467000Y-68453000D01*
D27*
X128397000Y-72263000D02*
X128397000Y-65659000D01*
D29*
X167195500Y-62928500D02*
X166116000Y-61849000D01*
D27*
X121266000Y-73679000D02*
X121266000Y-73514000D01*
D28*
X165430200Y-100761800D02*
X166116000Y-100076000D01*
X176580800Y-100660200D02*
X177520600Y-99720400D01*
X157429200Y-100761800D02*
X165430200Y-100761800D01*
X151282400Y-100761800D02*
X148793200Y-100761800D01*
X171297600Y-98679000D02*
X173278800Y-100660200D01*
X157454500Y-98654800D02*
X157454500Y-100736500D01*
X166116000Y-100076000D02*
X166116000Y-98679000D01*
X140081000Y-98679000D02*
X140081000Y-99923600D01*
X140919200Y-100761800D02*
X147497800Y-100761800D01*
D29*
X164719000Y-60452000D02*
X166116000Y-61849000D01*
D28*
X140081000Y-99923600D02*
X140919200Y-100761800D01*
X157454500Y-100736500D02*
X157429200Y-100761800D01*
X148818500Y-98654800D02*
X148818500Y-100736500D01*
X166090500Y-98679000D02*
X171297600Y-98679000D01*
X177520600Y-99720400D02*
X177520600Y-91922600D01*
D27*
X121266000Y-73514000D02*
X121266000Y-70504000D01*
D28*
X148793200Y-100761800D02*
X147497800Y-100761800D01*
X173278800Y-100660200D02*
X176580800Y-100660200D01*
X156133800Y-100761800D02*
X157429200Y-100761800D01*
D30*
%TO.N,5V*%
X172494000Y-74069000D02*
X176431000Y-74069000D01*
D27*
X176403000Y-71374000D02*
X176403000Y-74041000D01*
D30*
X171119000Y-69038000D02*
X171119000Y-72694000D01*
X171119000Y-72694000D02*
X172494000Y-74069000D01*
X176431000Y-74069000D02*
X178971000Y-74069000D01*
D27*
X176403000Y-74041000D02*
X176431000Y-74069000D01*
D26*
%TO.N,DROGUE*%
X138046200Y-75308200D02*
X137795000Y-75057000D01*
X118237000Y-75057000D02*
X117729000Y-74549000D01*
X139316200Y-75308200D02*
X138046200Y-75308200D01*
X137795000Y-75057000D02*
X118237000Y-75057000D01*
X117729000Y-74549000D02*
X117729000Y-73152000D01*
%TO.N,MAIN*%
X124079000Y-73279000D02*
X124079000Y-71247000D01*
X138480320Y-74625680D02*
X125425680Y-74625680D01*
X149352000Y-74422000D02*
X138684000Y-74422000D01*
X138684000Y-74422000D02*
X138480320Y-74625680D01*
X149860000Y-73914000D02*
X149352000Y-74422000D01*
X125425680Y-74625680D02*
X124079000Y-73279000D01*
D31*
%TO.N,/Peripherals/D-*%
X172585000Y-71128000D02*
X172585000Y-72763000D01*
D26*
%TO.N,MOTOR1_PWM*%
X161417000Y-92710000D02*
X164084000Y-95377000D01*
X164084000Y-95377000D02*
X164084000Y-98679000D01*
%TO.N,SWO*%
X143929100Y-72351900D02*
X143929100Y-68364100D01*
X143929100Y-68364100D02*
X143002000Y-67437000D01*
X143002000Y-67437000D02*
X143002000Y-66294000D01*
X143383000Y-72898000D02*
X143929100Y-72351900D01*
%TO.N,MOTOR1_EN*%
X158496000Y-81026000D02*
X157962600Y-81559400D01*
X157962600Y-84328000D02*
X159867600Y-86233000D01*
X159867600Y-86233000D02*
X162560000Y-86233000D01*
X157962600Y-81559400D02*
X157962600Y-84328000D01*
X162560000Y-86233000D02*
X164465000Y-88138000D01*
%TO.N,MOTOR3_EN*%
X163652200Y-86537800D02*
X162331400Y-85217000D01*
X158496000Y-82042000D02*
X159004000Y-81534000D01*
X162331400Y-85217000D02*
X162331400Y-84632800D01*
X159004000Y-81534000D02*
X159131000Y-81534000D01*
X159486600Y-81534000D02*
X162331400Y-84378800D01*
X162331400Y-84378800D02*
X162331400Y-84632800D01*
X159131000Y-81534000D02*
X159486600Y-81534000D01*
%TO.N,~{USB_RST}*%
X162674800Y-74282800D02*
X164084000Y-75692000D01*
X158279600Y-74282800D02*
X162674800Y-74282800D01*
%TO.N,~{USB_SUSPEND}*%
X172466000Y-67818000D02*
X167132000Y-67818000D01*
X167132000Y-67818000D02*
X165735000Y-69215000D01*
%TO.N,~{SWITCH}*%
X129894640Y-74321360D02*
X138354266Y-74321360D01*
X129385000Y-73811720D02*
X129894640Y-74321360D01*
X147624800Y-74117200D02*
X148590000Y-73152000D01*
X138354266Y-74321360D02*
X138354266Y-74320682D01*
X138557748Y-74117200D02*
X147624800Y-74117200D01*
X138354266Y-74320682D02*
X138557748Y-74117200D01*
X129385000Y-73180000D02*
X129385000Y-73811720D01*
%TO.N,~{MAIN_CONT}*%
X139065000Y-73025000D02*
X139446000Y-73025000D01*
X139001500Y-73088500D02*
X139065000Y-73025000D01*
X137414000Y-73279000D02*
X138811000Y-73279000D01*
X138811000Y-73279000D02*
X139001500Y-73088500D01*
%TO.N,~{DROGUE_CONT}*%
X126416266Y-77623360D02*
X128397947Y-75641680D01*
X122909640Y-77623360D02*
X126416266Y-77623360D01*
X120914780Y-75628500D02*
X122909640Y-77623360D01*
X116014500Y-75628500D02*
X120914780Y-75628500D01*
X128397947Y-75641680D02*
X137109680Y-75641680D01*
%TO.N,~{GPS_RST}*%
X127209600Y-88855600D02*
X127127000Y-88773000D01*
X142576600Y-88855600D02*
X127209600Y-88855600D01*
X142621000Y-88900000D02*
X142576600Y-88855600D01*
X145288000Y-88900000D02*
X142621000Y-88900000D01*
X127127000Y-88773000D02*
X126238000Y-88773000D01*
%TO.N,~{GPS_SBOOT}*%
X128524000Y-75946000D02*
X126542320Y-77927680D01*
X121742680Y-77927680D02*
X121285000Y-77470000D01*
X136144000Y-75946000D02*
X128524000Y-75946000D01*
X136652000Y-76454000D02*
X136144000Y-75946000D01*
X126542320Y-77927680D02*
X121742680Y-77927680D01*
%TO.N,GPS_INT*%
X142875000Y-83693000D02*
X142875000Y-83185000D01*
X126873000Y-87884000D02*
X127539800Y-88550800D01*
X139319000Y-85947990D02*
X140303990Y-84963000D01*
X127539800Y-88550800D02*
X139033200Y-88550800D01*
X140303990Y-84963000D02*
X141605000Y-84963000D01*
X139319000Y-88265000D02*
X139319000Y-85947990D01*
X141605000Y-84963000D02*
X142875000Y-83693000D01*
X139033200Y-88550800D02*
X139319000Y-88265000D01*
%TO.N,GPS_TX*%
X117348000Y-78613000D02*
X118618000Y-77343000D01*
X141351000Y-82042000D02*
X138709400Y-84683600D01*
X138423600Y-87941200D02*
X133534200Y-87941200D01*
X138709400Y-84683600D02*
X138709400Y-87655400D01*
X117348000Y-81788000D02*
X117348000Y-78613000D01*
X118618000Y-77343000D02*
X118999000Y-77343000D01*
X133534200Y-87941200D02*
X128968500Y-83375500D01*
X138709400Y-87655400D02*
X138423600Y-87941200D01*
X128968500Y-83375500D02*
X118935500Y-83375500D01*
X118935500Y-83375500D02*
X117348000Y-81788000D01*
X142494000Y-82042000D02*
X141351000Y-82042000D01*
%TO.N,GPS_RX*%
X117919500Y-81470500D02*
X118237000Y-81788000D01*
X138938000Y-82804000D02*
X139446000Y-82804000D01*
X138404600Y-83337400D02*
X138938000Y-82804000D01*
X117748100Y-78847900D02*
X117748100Y-81299100D01*
X118237000Y-81788000D02*
X127812052Y-81788000D01*
X119507000Y-77851000D02*
X118745000Y-77851000D01*
X133660452Y-87636400D02*
X138042600Y-87636400D01*
X117729000Y-81280000D02*
X117919500Y-81470500D01*
X138042600Y-87636400D02*
X138404600Y-87274400D01*
X127812052Y-81788000D02*
X133660452Y-87636400D01*
X120496640Y-76861360D02*
X119507000Y-77851000D01*
X118745000Y-77851000D02*
X117748100Y-78847900D01*
X138404600Y-87274400D02*
X138404600Y-83337400D01*
X117748100Y-81299100D02*
X117919500Y-81470500D01*
%TO.N,GPS_TIM*%
X126746000Y-90424000D02*
X145034000Y-90424000D01*
X118618000Y-98552000D02*
X126746000Y-90424000D01*
X145034000Y-90424000D02*
X145542000Y-89916000D01*
%TO.N,BP_SDA*%
X133477000Y-71501000D02*
X133858000Y-71882000D01*
X133858000Y-71882000D02*
X143256000Y-71882000D01*
%TO.N,FLASH_MISO*%
X160300827Y-85090000D02*
X158543000Y-83332173D01*
X158543000Y-83332173D02*
X158543000Y-83308200D01*
X160782000Y-85090000D02*
X160300827Y-85090000D01*
%TO.N,FLASH_MOSI*%
X159994600Y-84353400D02*
X160451800Y-84353400D01*
X159512000Y-83134200D02*
X159512000Y-83870800D01*
X159512000Y-83870800D02*
X159994600Y-84353400D01*
%TO.N,W_IO0*%
X148031200Y-88392000D02*
X148031200Y-89128600D01*
X145923000Y-91236800D02*
X140385800Y-91236800D01*
X148031200Y-89128600D02*
X145923000Y-91236800D01*
X140385800Y-91236800D02*
X134670800Y-91236800D01*
%TO.N,W_IO1*%
X130683000Y-92964000D02*
X129540000Y-91821000D01*
X146151600Y-92227400D02*
X141960600Y-92227400D01*
X141960600Y-92227400D02*
X141224000Y-92964000D01*
X149742400Y-88636600D02*
X146151600Y-92227400D01*
X141224000Y-92964000D02*
X130683000Y-92964000D01*
%TO.N,W_IO2*%
X152400000Y-89535000D02*
X152400000Y-99695000D01*
X151638000Y-88773000D02*
X152400000Y-89535000D01*
%TO.N,W_IO3*%
X150583900Y-88963500D02*
X147015200Y-92532200D01*
X140563600Y-94742000D02*
X139446000Y-94742000D01*
X147015200Y-92532200D02*
X142773400Y-92532200D01*
X142773400Y-92532200D02*
X140563600Y-94742000D01*
%TO.N,~{FLASH_WP}*%
X161569400Y-84658200D02*
X161569400Y-84353400D01*
X161569400Y-84353400D02*
X159308800Y-82092800D01*
%TO.N,W_IO4*%
X141274800Y-91567000D02*
X146024600Y-91567000D01*
X140766800Y-92075000D02*
X135255000Y-92075000D01*
X140766800Y-92075000D02*
X141274800Y-91567000D01*
X146024600Y-91567000D02*
X148717000Y-88874600D01*
%TO.N,W_IO5*%
X153162000Y-96901000D02*
X154432000Y-98171000D01*
X153162000Y-88900000D02*
X153162000Y-96901000D01*
X154432000Y-98171000D02*
X154432000Y-99822000D01*
%TO.N,RX_USB*%
X168021000Y-77190600D02*
X168021000Y-76200000D01*
X166928800Y-78282800D02*
X168021000Y-77190600D01*
%TO.N,TX_USB*%
X168706800Y-77698600D02*
X168706800Y-76555600D01*
X168706800Y-76555600D02*
X169037000Y-76225400D01*
%TO.N,USB_DETECT*%
X154432000Y-81407000D02*
X156083000Y-79756000D01*
X156083000Y-79756000D02*
X169672000Y-79756000D01*
%TO.N,IMU_INT1*%
X138049000Y-81153000D02*
X138811000Y-80391000D01*
X136398000Y-87249000D02*
X138049000Y-85598000D01*
X126352300Y-80124300D02*
X127508000Y-81280000D01*
X128143000Y-81280000D02*
X134112000Y-87249000D01*
X142322800Y-80308200D02*
X139782800Y-80308200D01*
X138049000Y-85598000D02*
X138049000Y-81153000D01*
X139782800Y-80308200D02*
X139700000Y-80391000D01*
X138811000Y-80391000D02*
X139700000Y-80391000D01*
X134112000Y-87249000D02*
X136398000Y-87249000D01*
X124472700Y-80124300D02*
X126352300Y-80124300D01*
X127508000Y-81280000D02*
X128143000Y-81280000D01*
%TO.N,IMU_INT2*%
X138779200Y-88246000D02*
X130918000Y-88246000D01*
X139700000Y-85135938D02*
X139014200Y-85821738D01*
X139700000Y-84582000D02*
X139700000Y-85135938D01*
X139014200Y-88011000D02*
X138779200Y-88246000D01*
X130918000Y-88246000D02*
X128016000Y-85344000D01*
X139014200Y-85821738D02*
X139014200Y-88011000D01*
%TO.N,SD_DAT2*%
X175133000Y-79654400D02*
X175133000Y-83693000D01*
X154305000Y-71885800D02*
X167364400Y-71885800D01*
X167364400Y-71885800D02*
X175133000Y-79654400D01*
%TO.N,SD_DAT3*%
X153339800Y-72466200D02*
X153746200Y-72466200D01*
X156772120Y-72190120D02*
X167238346Y-72190120D01*
X174498000Y-79449774D02*
X174498000Y-84201000D01*
X153975280Y-72695280D02*
X156266960Y-72695280D01*
X153746200Y-72466200D02*
X153975280Y-72695280D01*
X174498000Y-84201000D02*
X175133000Y-84836000D01*
X167238346Y-72190120D02*
X174498000Y-79449774D01*
X156266960Y-72695280D02*
X156772120Y-72190120D01*
%TO.N,SD_CMD*%
X152959746Y-73303920D02*
X156566080Y-73303920D01*
X156566080Y-73303920D02*
X157071240Y-72798760D01*
X151242400Y-71998200D02*
X151654026Y-71998200D01*
X173355000Y-84074000D02*
X175133000Y-85852000D01*
X173355000Y-79167523D02*
X173355000Y-84074000D01*
X151654026Y-71998200D02*
X152959746Y-73303920D01*
X166986237Y-72798760D02*
X173355000Y-79167523D01*
X157071240Y-72798760D02*
X166986237Y-72798760D01*
%TO.N,SD_CLK*%
X173863000Y-79245149D02*
X167112291Y-72494440D01*
X167112291Y-72494440D02*
X156945186Y-72494440D01*
X152527000Y-72440800D02*
X152527000Y-71983600D01*
X156440026Y-72999600D02*
X153085800Y-72999600D01*
X153085800Y-72999600D02*
X152527000Y-72440800D01*
X173863000Y-82296000D02*
X173863000Y-79245149D01*
X156945186Y-72494440D02*
X156440026Y-72999600D01*
%TD*%
M02*
